<svg width="25" height="25" viewBox="0 0 25 25" fill="none" xmlns="http://www.w3.org/2000/svg">
<path d="M24.1586 3.84548C24.4468 5.85349 21.9674 7.87053 18.6205 8.35085C17.4549 8.51813 16.3377 8.47692 15.3649 8.26755L15.3644 8.26716C13.5432 7.87492 12.2262 6.89338 12.0384 5.58488C11.7502 3.57687 14.2301 1.55925 17.577 1.07897C20.9238 0.5987 23.8705 1.83747 24.1586 3.84548Z" fill="#FF5B47"/>
<path d="M18.0848 4.6186C16.2559 4.88106 14.6123 4.34868 14.0369 3.39312C13.9854 3.58936 13.9713 3.78906 14 3.98867C14.1861 5.2856 16.0892 6.0855 18.2508 5.77529C20.4123 5.46509 22.0136 4.16231 21.8276 2.86533C21.7989 2.66572 21.7293 2.47803 21.6246 2.3042C21.3412 3.38311 19.9137 4.35615 18.0848 4.6186Z" fill="#E53E2D"/>
<path d="M15.6535 4.48071L15.4755 5.52114C15.4755 5.52114 13.7161 7.0313 15.3644 8.2668C13.5432 7.87456 12.2262 6.89302 12.0384 5.58452C11.7502 3.57651 14.2301 1.55889 17.577 1.07861C17.577 1.07861 14.3823 3.13286 15.6535 4.48071Z" fill="#E53E2D"/>
<path d="M24.9997 12.4998C24.9997 12.6752 24.9961 12.8493 24.9885 13.0227C24.9727 13.4166 24.9385 13.8054 24.8859 14.1885C24.7645 15.09 24.5466 15.9615 24.2436 16.7916C23.7513 16.7702 23.2798 16.7095 22.8385 16.6146H22.838C21.0166 16.2222 19.6998 15.2406 19.512 13.9319C19.236 12.0079 21.5013 10.0748 24.636 9.49463C24.6518 9.55791 24.6671 9.62114 24.6819 9.68491C24.8895 10.5896 24.9997 11.5319 24.9997 12.4998Z" fill="#FF5B47"/>
<path d="M24.9882 13.0229C24.9723 13.4168 24.9382 13.8056 24.8856 14.1887C24.1642 14.1989 23.4984 14.0836 22.9484 13.8688C22.1295 13.5494 21.5698 13.0101 21.4734 12.3361C21.4443 12.1366 21.4586 11.9372 21.5101 11.7407C21.806 12.2326 22.3851 12.6122 23.1264 12.829C23.6744 12.9893 24.3111 13.0606 24.9882 13.0229Z" fill="#E53E2D"/>
<path d="M23.1268 12.8284V12.8289L22.9487 13.8687C22.9487 13.8687 21.1896 15.3789 22.838 16.6146C21.0166 16.2222 19.6998 15.2406 19.512 13.9319C19.236 12.0079 21.5013 10.0748 24.636 9.49463C24.6518 9.55791 24.6671 9.62114 24.6819 9.68491C23.8809 10.2789 22.1298 11.7707 23.1268 12.8284Z" fill="#E53E2D"/>
<path d="M15.4152 19.2401C14.1205 20.8018 10.961 20.3185 8.35804 18.1607C7.4515 17.4092 6.73197 16.5535 6.23402 15.6921L6.23397 15.6913C5.30199 14.0784 5.1451 12.4433 5.9888 11.4256C7.28343 9.86384 10.4437 10.347 13.0467 12.505C15.6496 14.6629 16.7099 17.6784 15.4152 19.2401Z" fill="#FF5B47"/>
<path d="M10.764 15.2582C9.34156 14.079 8.63262 12.5036 8.9545 11.4355C8.77447 11.5291 8.617 11.6528 8.48834 11.808C7.65215 12.8167 8.33712 14.7641 10.0182 16.1578C11.6993 17.5515 13.74 17.8635 14.5762 16.8548C14.7049 16.6996 14.7973 16.522 14.8558 16.3277C13.8659 16.842 12.1863 16.4374 10.764 15.2582Z" fill="#E53E2D"/>
<path d="M9.23392 13.3636L8.34335 13.9302C8.34335 13.9302 6.04291 13.6403 6.23397 15.6913C5.30199 14.0784 5.1451 12.4433 5.9888 11.4256C7.28343 9.86384 10.4437 10.347 13.0467 12.505C13.0467 12.5049 9.37938 11.5165 9.23392 13.3636Z" fill="#E53E2D"/>
<path d="M12.3222 9.42462C11.8663 11.4013 8.82603 12.3876 5.5314 11.6277C4.38394 11.3631 3.35694 10.9214 2.5253 10.3752L2.5249 10.3746C0.96802 9.35153 0.0939475 7.96085 0.391067 6.67272C0.846975 4.69606 3.88784 3.70934 7.18247 4.46925C10.4771 5.22916 12.7781 7.44791 12.3222 9.42462Z" fill="#FF5B47"/>
<path d="M6.37865 7.95381C4.57836 7.53857 3.23764 6.44897 3.04584 5.3501C2.92689 5.5145 2.84174 5.6957 2.79647 5.89219C2.50199 7.16885 3.98822 8.60166 6.116 9.09243C8.24379 9.5832 10.2074 8.94609 10.5019 7.66943C10.5473 7.47295 10.55 7.27275 10.5152 7.07285C9.86146 7.97676 8.17894 8.36909 6.37865 7.95381Z" fill="#E53E2D"/>
<path d="M4.16084 6.94787L3.61934 7.85397C3.61934 7.85397 1.43345 8.62741 2.52485 10.3745C0.968067 9.35153 0.0939454 7.96085 0.391065 6.67272C0.846973 4.69606 3.88784 3.70934 7.18247 4.46925C7.18242 4.4692 3.46172 5.23209 4.16084 6.94787Z" fill="#E53E2D"/>
<path d="M23.1468 19.0521C22.4111 20.2454 21.4799 21.3057 20.3983 22.1883C20.037 22.4837 19.6595 22.7587 19.2661 23.0118C18.385 23.5802 17.4279 24.0409 16.4131 24.3745C15.5329 23.6337 15.0452 22.7296 15.1401 21.8041C15.3462 19.7858 18.2411 18.4286 21.6044 18.7725C22.1417 18.8276 22.6585 18.9225 23.1468 19.0521Z" fill="#FF5B47"/>
<path d="M20.3983 22.1882C20.0371 22.4836 19.6596 22.7586 19.2662 23.0117C18.0866 22.4862 17.3381 21.6239 17.43 20.73C17.4504 20.5295 17.5121 20.3392 17.6096 20.1611C17.8846 21.0586 18.9667 21.8489 20.3983 22.1882Z" fill="#E53E2D"/>
<path d="M18.9146 21.6077L18.4901 22.5745C18.4901 22.5745 17.3886 23.1271 17.2962 24.046C17.0069 24.1664 16.7125 24.2761 16.4131 24.3745C15.5329 23.6337 15.0452 22.7296 15.1401 21.8041C15.3462 19.7858 18.2411 18.4286 21.6044 18.7725C21.6044 18.7725 18.0075 19.9924 18.9146 21.6077Z" fill="#E53E2D"/>
<path d="M6.04038 23.2032C5.26846 22.7369 4.55108 22.1889 3.9001 21.5711C3.62051 21.3063 3.35317 21.0282 3.09907 20.7385C2.32969 19.8619 1.68174 18.8762 1.17969 17.8084C4.03784 16.6033 6.90059 16.9395 7.74346 18.6487C8.396 19.9721 7.65826 21.7543 6.04038 23.2032Z" fill="#FF5B47"/>
<path d="M3.89966 21.5708C3.62007 21.306 3.35273 21.0279 3.09863 20.7381C4.23232 19.9314 4.90884 18.8677 4.8563 17.9697C5.00986 18.1024 5.13384 18.259 5.22314 18.4401C5.67363 19.3534 5.09814 20.6055 3.89966 21.5708Z" fill="#E53E2D"/>
</svg>
