<svg id="Capa_1" enable-background="new 0 0 512 512" height="25" viewBox="0 0 512 512" width="25" xmlns="http://www.w3.org/2000/svg" xmlns:xlink="http://www.w3.org/1999/xlink"><linearGradient id="SVGID_1_" gradientUnits="userSpaceOnUse" x1="74.98" x2="437.018" y1="437.019" y2="74.98"><stop offset=".1" stop-color="#ff195e"/><stop offset="1" stop-color="#ffc5a3"/></linearGradient><radialGradient id="SVGID_2_" cx="256" cy="256" gradientUnits="userSpaceOnUse" r="280.258"><stop offset="0" stop-color="#ff195e" stop-opacity=".5"/><stop offset=".0509" stop-color="#ff2b6b" stop-opacity=".475"/><stop offset=".2479" stop-color="#ff6b97" stop-opacity=".376"/><stop offset=".436" stop-color="#ffa0bc" stop-opacity=".282"/><stop offset=".6103" stop-color="#ffc9d9" stop-opacity=".195"/><stop offset=".7677" stop-color="#ffe7ee" stop-opacity=".116"/><stop offset=".9028" stop-color="#fff9fb" stop-opacity=".049"/><stop offset="1" stop-color="#fff" stop-opacity="0"/></radialGradient><linearGradient id="lg1"><stop offset="0" stop-color="#ff2667"/><stop offset=".1066" stop-color="#ff316d"/><stop offset=".2917" stop-color="#ff4d7e"/><stop offset=".5332" stop-color="#ff7b98"/><stop offset=".8185" stop-color="#ffbabd"/><stop offset="1" stop-color="#ffe6d6"/></linearGradient><linearGradient id="SVGID_3_" gradientTransform="matrix(.707 .707 -.707 .707 -138.968 -236.502)" gradientUnits="userSpaceOnUse" x1="642.835" x2="642.835" xlink:href="#lg1" y1="591.81" y2="92.232"/><linearGradient id="SVGID_4_" gradientTransform="matrix(.707 .707 -.707 .707 -138.968 -236.502)" gradientUnits="userSpaceOnUse" x1="596.941" x2="596.941" xlink:href="#lg1" y1="772.239" y2="72.86"/><linearGradient id="lg2"><stop offset="0" stop-color="#ffb5d3"/><stop offset=".4183" stop-color="#ffdbea"/><stop offset=".7836" stop-color="#fff5f9"/><stop offset="1" stop-color="#fff"/></linearGradient><linearGradient id="SVGID_5_" gradientTransform="matrix(.707 .707 -.707 .707 -138.968 -236.502)" gradientUnits="userSpaceOnUse" x1="642.913" x2="642.913" xlink:href="#lg2" y1="397.82" y2="-261.268"/><linearGradient id="SVGID_6_" gradientTransform="matrix(.707 .707 -.707 .707 -138.968 -236.502)" gradientUnits="userSpaceOnUse" x1="596.786" x2="596.786" xlink:href="#lg2" y1="660.798" y2="-131.72"/><linearGradient id="lg3"><stop offset="0" stop-color="#ff195e"/><stop offset="1" stop-color="#ffc5a3"/></linearGradient><linearGradient id="SVGID_7_" gradientTransform="matrix(.707 .707 -.707 .707 -138.968 -236.502)" gradientUnits="userSpaceOnUse" x1="635.2" x2="635.2" xlink:href="#lg3" y1="213.211" y2="-717.667"/><linearGradient id="SVGID_8_" gradientTransform="matrix(.707 .707 -.707 .707 -138.968 -236.502)" gradientUnits="userSpaceOnUse" x1="612.191" x2="612.191" xlink:href="#lg3" y1="335.106" y2="-378.991"/><linearGradient id="SVGID_9_" gradientTransform="matrix(.707 .707 -.707 .707 -138.968 -236.502)" gradientUnits="userSpaceOnUse" x1="635.218" x2="635.218" xlink:href="#lg2" y1="437.607" y2="-59.805"/><linearGradient id="SVGID_10_" gradientTransform="matrix(.707 .707 -.707 .707 -138.968 -236.502)" gradientUnits="userSpaceOnUse" x1="612.17" x2="612.17" xlink:href="#lg2" y1="738.005" y2="40.238"/><linearGradient id="lg4"><stop offset="0" stop-color="#ffb5d3"/><stop offset=".212" stop-color="#ffc2d4"/><stop offset=".7062" stop-color="#ffddd5"/><stop offset="1" stop-color="#ffe6d6"/></linearGradient><linearGradient id="SVGID_11_" gradientTransform="matrix(.707 .707 -.707 .707 293.782 -57.252)" gradientUnits="userSpaceOnUse" x1="202.475" x2="202.475" xlink:href="#lg4" y1="393.35" y2="10.481"/><linearGradient id="SVGID_12_" gradientTransform="matrix(.707 .707 -.707 .707 -138.968 -236.502)" gradientUnits="userSpaceOnUse" x1="612.163" x2="612.163" xlink:href="#lg4" y1="672.491" y2="-39.223"/><linearGradient id="lg5"><stop offset="0" stop-color="#ff79a2"/><stop offset="1" stop-color="#ffe3f1"/></linearGradient><linearGradient id="SVGID_13_" gradientTransform="matrix(.707 .707 -.707 .707 -138.968 -236.502)" gradientUnits="userSpaceOnUse" x1="658.132" x2="658.132" xlink:href="#lg5" y1="317.97" y2="-331.16"/><linearGradient id="SVGID_14_" gradientTransform="matrix(.707 .707 -.707 .707 -138.968 -236.502)" gradientUnits="userSpaceOnUse" x1="604.591" x2="604.591" xlink:href="#lg5" y1="451.231" y2="-196.535"/><linearGradient id="SVGID_15_" gradientTransform="matrix(.707 .707 -.707 .707 -138.968 -236.502)" gradientUnits="userSpaceOnUse" x1="650.526" x2="650.526" xlink:href="#lg5" y1="132.664" y2="-344.765"/><linearGradient id="SVGID_16_" gradientTransform="matrix(.707 .707 -.707 .707 -138.968 -236.502)" gradientUnits="userSpaceOnUse" x1="604.591" x2="604.591" xlink:href="#lg5" y1="218.103" y2="-209.292"/><linearGradient id="SVGID_17_" gradientTransform="matrix(.707 .707 -.707 .707 -138.968 -236.502)" gradientUnits="userSpaceOnUse" x1="627.536" x2="627.536" y1="290.758" y2="-103.658"><stop offset=".2212" stop-color="#fff" stop-opacity="0"/><stop offset=".5176" stop-color="#fffdfe" stop-opacity=".381"/><stop offset=".6244" stop-color="#fff6f9" stop-opacity=".518"/><stop offset=".7006" stop-color="#ffeaf1" stop-opacity=".616"/><stop offset=".7621" stop-color="#ffdae5" stop-opacity=".695"/><stop offset=".8149" stop-color="#ffc4d5" stop-opacity=".762"/><stop offset=".8616" stop-color="#ffa8c2" stop-opacity=".822"/><stop offset=".9038" stop-color="#ff88ac" stop-opacity=".877"/><stop offset=".9427" stop-color="#ff6291" stop-opacity=".926"/><stop offset=".9772" stop-color="#ff3974" stop-opacity=".971"/><stop offset="1" stop-color="#ff195e"/></linearGradient><linearGradient id="SVGID_18_" gradientTransform="matrix(.707 .707 -.707 .707 -138.968 -236.502)" gradientUnits="userSpaceOnUse" x1="673.068" x2="673.068" xlink:href="#lg5" y1="365.893" y2="-288.061"/><linearGradient id="SVGID_19_" gradientTransform="matrix(.707 .707 -.707 .707 -138.968 -236.502)" gradientUnits="userSpaceOnUse" x1="604.719" x2="604.719" xlink:href="#lg5" y1="416.86" y2="-214.166"/><g><circle cx="256" cy="256" fill="url(#SVGID_1_)" r="256"/><circle cx="256" cy="256" fill="url(#SVGID_2_)" r="256"/><path d="m159.649 309.085c-26.854 27.017-53.662 54.08-80.424 81.189 2.228 10.335 7.074 19.979 14.802 27.701 23.377 23.286 64.524 20.759 88.223-2.371 14.409-14.129 28.793-28.285 43.15-42.466-22.766-20.502-44.683-41.853-65.751-64.053z" fill="url(#SVGID_3_)"/><path d="m138.861 286.604c-14.182 14.357-28.337 28.74-42.466 43.15-15.588 15.913-21.628 39.529-17.167 60.516 19.438 5.834 42.247.241 58.283-15.78.186-28.804.836-58.352 1.35-87.886z" fill="url(#SVGID_4_)"/><path d="m137.513 374.488c23.681 23.566 64.279 21.895 87.886-1.35 47.857-47.272 95.422-94.837 142.694-142.694-20.502-22.765-41.854-44.682-64.053-65.75-55.518 55.182-110.843 110.557-165.975 166.125-.249 14.679-.458 29.268-.552 43.669z" fill="url(#SVGID_5_)"/><path d="m281.554 143.91c-47.857 47.273-95.421 94.837-142.694 142.694-11.71 11.855-17.811 27.826-18.214 43.916-.384 16.068 5.024 32.148 16.863 43.97 62.815-62.815 125.629-125.629 188.444-188.444-14.422-14.422-29.222-28.468-44.399-42.136z" fill="url(#SVGID_6_)"/><path d="m170.254 320.114c-3.671 10.905-7.342 21.79-10.997 32.631 11.883 11.874 31.698 11.481 43.66-.393 9.655-9.597 19.305-19.199 28.948-28.808-3.789-17.889-7.389-36.012-10.976-54.166-16.886 16.903-33.765 33.815-50.635 50.736z" fill="url(#SVGID_7_)"/><path d="m159.65 309.085c-11.874 11.962-12.266 31.777-.393 43.66 16.912-16.911 33.823-33.823 50.735-50.735-7.235-7.234-14.412-14.525-21.534-21.873-9.609 9.643-19.211 19.293-28.808 28.948z" fill="url(#SVGID_8_)"/><path d="m242.607 247.651c-10.858 18.105-21.737 36.246-32.615 54.359 7.234 7.234 14.526 14.413 21.873 21.534 7.233-7.206 14.462-14.416 21.688-21.629-3.725-17.995-7.315-36.151-10.946-54.264z" fill="url(#SVGID_9_)"/><path d="m210.087 258.448c-7.213 7.226-14.423 14.456-21.629 21.688 7.121 7.348 14.299 14.639 21.534 21.873 14.496-14.495 28.991-28.991 43.487-43.487-14.496.001-28.991.001-43.392-.074z" fill="url(#SVGID_10_)"/><path d="m304.193 186.144c-24.167 24.105-48.316 48.228-72.446 72.37-.003 7.252-.01 14.507-.012 21.753 7.244 7.244 14.517 14.461 21.818 21.648 27.7-27.65 55.352-55.348 82.956-83.094-10.591-11.073-21.364-21.965-32.316-32.677z" fill="url(#SVGID_11_)"/><path d="m315.086 196.916c-7.221-7.221-14.523-14.362-21.904-21.424-27.747 27.603-55.444 55.256-83.094 82.956 7.188 7.301 14.404 14.574 21.648 21.818 27.783-27.783 55.566-55.566 83.35-83.35z" fill="url(#SVGID_12_)"/><path d="m347.701 164.301c-14.496 14.496-28.991 28.992-43.487 43.487 7.23 7.23 14.394 14.526 21.492 21.888 14.303.127 28.464.358 42.388.768-6.577-22.355-13.269-44.523-20.393-66.143z" fill="url(#SVGID_13_)"/><path d="m281.558 143.908c.41 13.925.641 28.086.768 42.388 7.362 7.098 14.658 14.262 21.888 21.492 10.863-3.633 21.701-7.257 32.49-10.856 7.23-7.252 14.458-14.505 21.684-21.76-24.885-11.017-50.68-21.269-76.83-31.264z" fill="url(#SVGID_14_)"/><path d="m399.958 198.096c-16.561-19.295-33.975-37.735-52.245-55.321-3.577 17.872-7.282 35.974-11.01 54.157 10.675 10.959 21.139 22.129 31.39 33.512 10.637-10.768 21.258-21.551 31.865-32.348z" fill="url(#SVGID_15_)"/><path d="m369.227 164.288c-17.586-18.27-36.026-35.684-55.321-52.245-10.798 10.607-21.58 21.228-32.348 31.865 18.971 17.085 37.353 34.76 55.146 53.024 10.845-10.877 21.685-21.759 32.523-32.644z" fill="url(#SVGID_16_)"/><path d="m324.706 101.44c-76.852 75.355-152.955 151.459-228.311 228.31-23.13 23.697-25.658 64.846-2.371 88.223 23.38 23.289 64.527 20.761 88.225-2.369 76.852-75.356 152.955-151.459 228.311-228.311-26.204-31.031-54.822-59.649-85.854-85.853z" fill="url(#SVGID_17_)"/><path d="m452.869 143.986c-9.362-11.851-19.191-23.235-29.486-34.153-21.65 21.795-43.315 43.575-64.994 65.339 10.595 10.963 20.915 22.202 30.959 33.717 5.561 6.349 14.665 6.805 20.446.887 13.983-14.301 27.934-28.635 41.851-43.002 5.745-5.942 6.384-16.239 1.224-22.788z" fill="url(#SVGID_18_)"/><path d="m379.676 175.352c14.376-14.503 28.738-29.018 43.087-43.547 5.933-6.014 6.301-15.945.62-21.972-17.159-18.196-35.615-35.096-55.366-50.7-6.549-5.159-16.846-4.522-22.788 1.225-14.367 13.917-28.701 27.868-43.002 41.851-5.917 5.779-5.463 14.885.887 20.446 19.191 16.74 37.616 34.245 55.275 52.517 5.858 6.052 15.337 6.187 21.287.18z" fill="url(#SVGID_19_)"/></g></svg>