<svg id="Capa_1" enable-background="new 0 0 512 512" height="250" viewBox="0 0 512 512" width="250" xmlns="http://www.w3.org/2000/svg"><g><g><path d="m304.828 261.048v-12.768c0-6.045 4.9-10.945 10.945-10.945h35.828c22.323 0 40.42-18.097 40.42-40.42v-19.133c0-5.19 4.207-9.397 9.397-9.397h5.647c5.19 0 9.397-4.207 9.397-9.397 0-2.399-.918-4.708-2.565-6.452l-18.888-19.999c-1.919-2.032-2.988-4.72-2.988-7.515v-10.99c0-36.747-18.527-71.348-49.787-90.665-17.123-10.581-37.461-16.456-59.212-15.82-57.592 1.685-103.025 48.137-103.505 105.752-.285 34.134 15.462 64.598 40.161 84.326 2.627 2.098 4.203 5.239 4.203 8.601v54.822c0 4.666-2.958 8.819-7.368 10.344l-89.052 30.796c-32.033 11.078-53.52 41.245-53.52 75.139v114.869c0 6.796 5.509 12.305 12.305 12.305h356.218c6.796 0 12.305-5.509 12.305-12.305v-114.87c0-33.894-21.488-64.061-53.52-75.139l-89.052-30.796c-4.411-1.525-7.369-5.678-7.369-10.343z" fill="#ffbd86"/></g><g><path d="m131.172 500.695v-114.869c0-33.894 21.488-64.061 53.52-75.139l89.052-30.796c4.41-1.525 7.368-5.678 7.368-10.344v-54.822c0-3.362-1.577-6.503-4.203-8.601-24.698-19.728-40.445-50.192-40.161-84.326.452-54.12 40.568-98.387 93.167-104.955-14.248-6.404-30.148-9.786-46.893-9.297-57.592 1.686-103.024 48.138-103.505 105.753-.285 34.134 15.462 64.598 40.161 84.326 2.627 2.098 4.203 5.239 4.203 8.601v54.822c0 4.666-2.958 8.819-7.367 10.344l-89.052 30.796c-32.033 11.078-53.52 41.245-53.52 75.139v114.869c0 6.796 5.509 12.305 12.305 12.305h45.533c-.391-1.2-.608-2.477-.608-3.806z" fill="#f6a96c"/></g><g><path d="m201.227 411.174c-5.781 4.201-13.871 2.918-18.069-2.862-4.2-5.78-2.919-13.87 2.861-18.069l41.609-30.231v-13.76c0-17.277-19.835-27.057-33.532-16.526-53.737 41.318-65.266 93.404-67.15 122.452-.779 12.015 8.753 22.182 20.793 22.182h59.055c11.506 0 20.833-9.327 20.833-20.833v-61.535z" fill="#fe653b"/><g><path d="m152.045 452.178c1.884-29.049 13.412-81.134 67.15-122.452.049-.038.1-.069.15-.107-7.018-5.25-17.192-6.087-25.247.107-53.737 41.318-65.266 93.404-67.15 122.452-.779 12.015 8.753 22.182 20.793 22.182h25.098c-12.042.001-21.574-10.166-20.794-22.182z" fill="#ef4424"/></g><path d="m401.762 452.178c-1.884-29.049-13.412-81.134-67.15-122.452-13.697-10.531-33.532-.751-33.532 16.526v13.761l41.293 30.001c5.61 4.076 7.35 11.884 3.583 17.706-2.501 3.866-6.661 5.926-10.882 5.926-2.636 0-5.297-.803-7.593-2.471l-26.401-19.181v61.534c0 11.506 9.327 20.833 20.833 20.833h59.055c12.041 0 21.573-10.167 20.794-22.183z" fill="#fe653b"/><g fill="#ef4424"><path d="m326.274 378.316v-32.065c0-7.094 3.347-12.919 8.237-16.598-13.693-10.407-33.43-.637-33.43 16.598v13.761z"/><path d="m326.274 453.527v-43.23l-25.193-18.304v61.534c0 11.506 9.327 20.833 20.833 20.833h25.193c-11.506.001-20.833-9.327-20.833-20.833z"/></g><g fill="#fff3de"><path d="m257.221 270.283h14.268c2.096 0 4.068.522 5.802 1.434v-25.51c-1.735.912-3.707 1.434-5.802 1.434h-14.268c-2.096 0-4.068-.522-5.802-1.434v25.51c1.734-.912 3.706-1.434 5.802-1.434z"/><path d="m271.488 317.925c2.096 0 4.068.522 5.802 1.434v-25.509c-1.735.911-3.707 1.434-5.802 1.434h-14.268c-2.096 0-4.068-.522-5.802-1.434v25.509c1.735-.912 3.707-1.434 5.802-1.434z"/><path d="m342.374 390.014-65.083-47.286v-1.237c-1.735.912-3.707 1.434-5.802 1.434h-14.268c-2.096 0-4.068-.522-5.802-1.434v1.237l-65.399 47.515c-5.78 4.199-7.062 12.289-2.861 18.069 4.198 5.78 12.288 7.063 18.069 2.862l60.188-43.729c1.752-1.273 4.125-1.273 5.878 0l60.188 43.729c2.296 1.668 4.957 2.471 7.593 2.471 4.221 0 8.381-2.06 10.882-5.926 3.767-5.822 2.027-13.629-3.583-17.705z"/></g></g><g><g><path d="m271.488 247.641h-14.268c-6.903 0-12.5-5.596-12.5-12.5s5.597-12.5 12.5-12.5h14.268c6.903 0 12.5 5.596 12.5 12.5s-5.597 12.5-12.5 12.5z" fill="#ffe5c2"/></g></g><g><g><path d="m271.488 295.283h-14.268c-6.903 0-12.5-5.596-12.5-12.5s5.597-12.5 12.5-12.5h14.268c6.903 0 12.5 5.596 12.5 12.5s-5.597 12.5-12.5 12.5z" fill="#ffe5c2"/></g></g><g><g><path d="m271.488 342.925h-14.268c-6.903 0-12.5-5.596-12.5-12.5s5.597-12.5 12.5-12.5h14.268c6.903 0 12.5 5.596 12.5 12.5s-5.597 12.5-12.5 12.5z" fill="#ffe5c2"/></g></g><g><path d="m284.658 43.184c-25.462 0-46.373 14.972-48.637 34.084-.217 1.836 1.243 3.446 3.092 3.446h91.091c1.849 0 3.309-1.609 3.092-3.446-2.265-19.112-23.176-34.084-48.638-34.084z" fill="#fe653b"/></g><g><path d="m269.704 77.268c1.737-14.668 14.464-26.888 31.795-31.783-5.252-1.483-10.921-2.302-16.842-2.302-25.462 0-46.373 14.972-48.637 34.084-.218 1.836 1.243 3.446 3.092 3.446h33.684c-1.849.001-3.309-1.608-3.092-3.445z" fill="#ef4424"/></g><g><g><path d="m147.31 133.335c-12.487-12.487-32.733-12.487-45.22 0l-15.372 15.372-15.372-15.372c-12.487-12.487-32.733-12.487-45.22 0-12.487 12.487-12.487 32.733 0 45.22l58.455 58.456c1.18 1.18 3.093 1.18 4.273 0l58.456-58.456c12.487-12.487 12.487-32.733 0-45.22z" fill="#fe653b"/></g><g><g><path d="m59.45 178.555c-12.487-12.487-12.487-32.733 0-45.22 1.831-1.831 3.832-3.386 5.948-4.68-12.313-7.531-28.616-5.977-39.273 4.68-12.487 12.487-12.487 32.733 0 45.22l58.455 58.456c1.18 1.18 3.093 1.18 4.273 0l14.526-14.526z" fill="#ef4424"/></g></g></g><g><path d="m469.093 255.081c-3.429-2.322-8.093-1.426-10.415 2.003l-33.288 49.138c-6.564-4.631-13.835-8.407-21.691-11.123l-89.053-30.796c-1.387-.48-2.318-1.788-2.318-3.255v-12.768c0-1.899 1.545-3.445 3.444-3.445h35.829c26.423 0 47.92-21.497 47.92-47.92v-19.133c0-1.046.851-1.897 1.896-1.897h5.647c9.317 0 16.897-7.58 16.897-16.897 0-4.333-1.639-8.453-4.613-11.602l-18.889-19.999c-.605-.642-.939-1.481-.939-2.365v-10.99c0-13.657-2.374-27.079-7.057-39.894-1.422-3.89-5.727-5.894-9.619-4.47-3.891 1.422-5.892 5.728-4.47 9.619 4.078 11.16 6.146 22.85 6.146 34.745v10.99c0 4.729 1.788 9.228 5.035 12.665l18.889 19.999c.334.354.518.816.518 1.302 0 1.046-.852 1.897-1.897 1.897h-5.647c-9.316 0-16.896 7.58-16.896 16.897v7.181h-29.349c-4.143 0-7.5 3.358-7.5 7.5s3.357 7.5 7.5 7.5h29.202c-1.543 16.728-15.649 29.873-32.774 29.873h-35.829c-10.17 0-18.444 8.274-18.444 18.445v12.768c0 7.858 4.989 14.863 12.416 17.432l89.053 30.796c6.592 2.28 12.686 5.464 18.178 9.37l-20.15 29.745h-31.091c-7.513-8.441-16.288-16.721-26.549-24.61-8.615-6.624-20.028-7.755-29.781-2.951-9.478 4.668-15.451 13.993-15.79 24.487l-5.413-3.933c2.073-3.151 3.289-6.913 3.289-10.958 0-5.918-2.599-11.228-6.697-14.893v-17.857c4.099-3.665 6.697-8.975 6.697-14.893s-2.599-11.228-6.697-14.893v-17.857c4.099-3.665 6.697-8.975 6.697-14.893 0-11.028-8.972-20-20-20h-14.268c-11.028 0-20 8.972-20 20 0 5.918 2.599 11.228 6.697 14.893v17.857c-4.099 3.665-6.697 8.975-6.697 14.893s2.599 11.228 6.697 14.893v17.857c-4.099 3.665-6.697 8.975-6.697 14.893 0 4.045 1.216 7.807 3.289 10.958l-5.413 3.933c-.338-10.494-6.312-19.819-15.79-24.486-9.755-4.804-21.166-3.673-29.781 2.951-56.565 43.492-68.176 98.81-70.062 127.913-.505 7.787 2.265 15.518 7.6 21.21 5.336 5.693 12.873 8.958 20.678 8.958h18.257c4.143 0 7.5-3.358 7.5-7.5s-3.357-7.5-7.5-7.5h-18.26c-3.729 0-7.186-1.497-9.733-4.215s-3.816-6.263-3.575-9.982c1.722-26.571 12.357-77.103 64.236-116.992 4.114-3.163 9.353-3.682 14.011-1.386 4.665 2.297 7.45 6.771 7.45 11.966v9.938l-38.518 27.984c-4.416 3.208-7.319 7.945-8.173 13.337s.443 10.793 3.651 15.208c3.208 4.417 7.944 7.319 13.336 8.174 1.083.171 2.166.256 3.241.256 4.28 0 8.439-1.343 11.969-3.908l14.493-10.53v46.816c0 7.352-5.981 13.333-13.334 13.333h-5.794c-4.143 0-7.5 3.358-7.5 7.5s3.357 7.5 7.5 7.5h5.795c15.623 0 28.334-12.71 28.334-28.333v-57.714l29.226-21.234 29.226 21.234v57.713c0 15.623 12.711 28.333 28.334 28.333h59.055c7.805 0 15.342-3.265 20.678-8.958 5.335-5.692 8.104-13.423 7.6-21.21-1.343-20.722-7.622-54.732-31.542-88.302h23.098c2.488 0 4.814-1.234 6.209-3.293l21.297-31.439c11.913 12.995 18.959 30.227 18.959 48.668v36.672c0 4.142 3.357 7.5 7.5 7.5s7.5-3.358 7.5-7.5v-36.674c0-23.517-9.484-45.406-25.357-61.367l34.184-50.462c2.323-3.429 1.426-8.092-2.003-10.416zm-211.872-24.94h14.268c2.757 0 5 2.243 5 5s-2.243 5-5 5h-14.268c-2.757 0-5-2.243-5-5s2.243-5 5-5zm12.57 25v7.642h-10.873v-7.642zm-12.57 22.642h14.268c2.757 0 5 2.243 5 5s-2.243 5-5 5h-14.268c-2.757 0-5-2.243-5-5s2.243-5 5-5zm12.57 25v7.643h-10.873v-7.643zm-12.57 22.642h14.268c2.757 0 5 2.243 5 5s-2.243 5-5 5h-14.268c-2.757 0-5-2.243-5-5s2.243-5 5-5zm14.48 35.952c-4.392-3.193-10.297-3.193-14.694 0l-60.188 43.729c-1.176.854-2.612 1.2-4.046.971-1.435-.227-2.694-.999-3.548-2.175-.854-1.174-1.199-2.611-.972-4.045s.999-2.694 2.174-3.547l63.55-46.172c1.058.174 2.136.287 3.243.287h14.268c1.106 0 2.185-.114 3.243-.287l63.235 45.943c2.471 1.795 3.231 5.188 1.694 7.563-1.013 1.566-2.728 2.501-4.586 2.501-.8 0-2.002-.18-3.185-1.04zm122.576 91.286c.241 3.719-1.028 7.264-3.575 9.982-2.548 2.718-6.005 4.215-9.733 4.215h-59.055c-7.353 0-13.334-5.981-13.334-13.333v-46.815l14.493 10.53c3.516 2.554 7.665 3.904 12.001 3.904 6.968 0 13.39-3.496 17.18-9.353 5.892-9.106 3.487-21.338-5.472-27.847l-38.202-27.756v-9.939c0-5.195 2.785-9.668 7.45-11.966 1.925-.948 3.947-1.416 5.949-1.416 2.845 0 5.647.945 8.062 2.802 51.879 39.889 62.515 90.421 64.236 116.992z"/><path d="m454.769 441.5c-4.143 0-7.5 3.358-7.5 7.5v43.195c0 2.649-2.155 4.805-4.805 4.805h-356.218c-2.649 0-4.806-2.155-4.806-4.805v-114.87c0-30.677 19.479-58.024 48.472-68.05l89.054-30.796c7.426-2.569 12.415-9.574 12.415-17.432v-54.822c0-5.624-2.559-10.894-7.022-14.461-23.986-19.159-37.598-47.736-37.342-78.403.447-53.566 42.715-96.752 96.226-98.318 19.504-.571 38.56 4.513 55.05 14.703 9.137 5.647 17.234 12.787 24.067 21.222 2.607 3.219 7.33 3.714 10.549 1.107s3.715-7.33 1.107-10.549c-7.897-9.748-17.264-18.004-27.839-24.54-18.993-11.736-40.899-17.59-63.374-16.936-61.607 1.802-110.271 51.519-110.786 113.186-.294 35.303 15.372 68.197 42.979 90.248.881.704 1.386 1.703 1.386 2.742v54.822c0 1.468-.932 2.776-2.318 3.256l-8.598 2.973-37.131-67.577c-1.317-2.398-3.837-3.888-6.573-3.888h-21.102l11.952-11.953c7.456-7.456 11.563-17.369 11.563-27.913s-4.105-20.458-11.562-27.914c0 0 0 0-.001 0-15.392-15.391-40.435-15.39-55.826 0l-10.068 10.068-10.069-10.069c-15.39-15.391-40.434-15.392-55.827 0-7.456 7.456-11.562 17.369-11.562 27.914 0 4.906.9 9.672 2.602 14.121-1.879 1.363-3.106 3.57-3.106 6.069 0 4.142 3.357 7.5 7.5 7.5h4.353c.072.073.14.15.213.223l58.455 58.455c1.987 1.988 4.63 3.083 7.441 3.083 2.81 0 5.451-1.094 7.44-3.082l31.502-31.503h31.664l33.758 61.439-66.072 22.849c-35.032 12.115-58.569 45.159-58.569 82.227v114.87c0 10.92 8.885 19.805 19.806 19.805h356.218c10.92 0 19.805-8.884 19.805-19.805v-43.196c-.001-4.142-3.359-7.5-7.501-7.5zm-368.051-212.96-44.906-44.906h12.31l2.77 8.586c.977 3.029 3.758 5.111 6.939 5.196.067.001.133.002.199.002 3.103 0 5.894-1.914 7.006-4.824l3.804-9.961 7.229 19.714c1.085 2.958 3.9 4.918 7.041 4.918.05 0 .1 0 .149-.001 3.2-.063 6.008-2.15 6.989-5.197l6.103-18.925h7.079c4.143 0 7.5-3.358 7.5-7.5s-3.357-7.5-7.5-7.5h-12.542c-3.256 0-6.139 2.1-7.138 5.198l-1.096 3.398-6.632-18.083c-1.076-2.937-3.863-4.897-6.991-4.918-.017 0-.033 0-.05 0-3.108 0-5.896 1.918-7.007 4.824l-4.308 11.281c-1.188-.771-2.598-1.209-4.084-1.209h-31.783c-2.305-3.787-3.539-8.143-3.539-12.69 0-6.538 2.546-12.684 7.168-17.307 4.772-4.772 11.039-7.157 17.308-7.157 6.267 0 12.536 2.386 17.307 7.157l15.372 15.372c2.93 2.929 7.678 2.929 10.607 0l15.371-15.372c9.542-9.542 25.071-9.543 34.613 0 4.623 4.623 7.169 10.77 7.169 17.307s-2.546 12.684-7.169 17.307z"/><path d="m255.053 120.068h4.902c4.143 0 7.5-3.358 7.5-7.5s-3.357-7.5-7.5-7.5h-4.902c-17.11 0-31.03 13.92-31.03 31.031s13.92 31.031 31.03 31.031h4.902c4.143 0 7.5-3.358 7.5-7.5s-3.357-7.5-7.5-7.5h-4.902c-8.839 0-16.03-7.191-16.03-16.031s7.191-16.031 16.03-16.031z"/><path d="m348.606 98.501c-4.143 0-7.5 3.358-7.5 7.5v10.944c0 4.142 3.357 7.5 7.5 7.5s7.5-3.358 7.5-7.5v-10.944c0-4.142-3.357-7.5-7.5-7.5z"/><path d="m503.244 124.381v-50.13c0-4.142-3.357-7.5-7.5-7.5s-7.5 3.358-7.5 7.5v7.602h-44.735v-7.602c0-4.142-3.357-7.5-7.5-7.5s-7.5 3.358-7.5 7.5v50.13c0 12.146 5.802 23.749 15.519 31.036l9.349 7.012-9.349 7.012c-9.717 7.287-15.519 18.89-15.519 31.036v49.707c0 4.142 3.357 7.5 7.5 7.5s7.5-3.358 7.5-7.5v-8.13h44.735v8.13c0 4.142 3.357 7.5 7.5 7.5s7.5-3.358 7.5-7.5v-49.707c0-12.146-5.802-23.748-15.519-31.036l-9.349-7.012 9.349-7.012c9.717-7.288 15.519-18.891 15.519-31.036zm-59.735-27.529h44.735v15.762h-44.735zm44.735 130.202h-44.735v-15.762h44.735zm-9.518-45.613c4.83 3.623 8.081 8.983 9.141 14.851h-43.981c1.06-5.868 4.311-11.228 9.141-14.851l12.849-9.637zm0-38.024-12.849 9.637-12.849-9.637c-5.09-3.817-8.419-9.566-9.286-15.802h44.27c-.867 6.236-4.197 11.985-9.286 15.802z"/><path d="m338.145 84.645c2.005-2.257 2.952-5.268 2.598-8.259-2.749-23.204-26.86-40.702-56.086-40.702s-53.336 17.498-56.085 40.701c-.354 2.992.593 6.002 2.598 8.26 2.016 2.268 4.91 3.569 7.942 3.569h91.091c3.032 0 5.927-1.301 7.942-3.569zm-93.506-11.431c4.661-12.967 21.079-22.53 40.019-22.53 18.938 0 35.356 9.563 40.02 22.53z"/><path d="m142.435 243.737c4.143 0 7.5-3.358 7.5-7.5s-3.357-7.5-7.5-7.5h-19.327c-4.143 0-7.5 3.358-7.5 7.5s3.357 7.5 7.5 7.5z"/><path d="m27.491 243.737h19.326c4.143 0 7.5-3.358 7.5-7.5s-3.357-7.5-7.5-7.5h-19.326c-4.143 0-7.5 3.358-7.5 7.5s3.358 7.5 7.5 7.5z"/><path d="m27.491 267.962h114.943c4.143 0 7.5-3.358 7.5-7.5s-3.357-7.5-7.5-7.5h-114.943c-4.143 0-7.5 3.358-7.5 7.5s3.358 7.5 7.5 7.5z"/><path d="m111.281 284.686c0-4.142-3.357-7.5-7.5-7.5h-76.29c-4.143 0-7.5 3.358-7.5 7.5s3.357 7.5 7.5 7.5h76.29c4.143 0 7.5-3.357 7.5-7.5z"/></g></g></svg>