<svg id="Layer_5" enable-background="new 0 0 64 64" height="20" viewBox="0 0 64 64" width="20" xmlns="http://www.w3.org/2000/svg"><path d="m39.96 11h-19.96-2-4-9.95c.45-5.05 4.69-9 9.85-9 2.63 0 5.14 1.04 7 2.9l1.1 1.1 1.1-1.1c1.86-1.86 4.37-2.9 7-2.9 5.17 0 9.4 3.95 9.86 9z" fill="#ef7385"/><path d="m20 19h17.43l.01.01c-.31.34-.64.66-1 .96l-14.44 12.03-14.44-12.03c-.36-.3-.68-.63-.99-.97h7.43 4z" fill="#ef7385"/><path d="m40 12.36c0 2.48-.92 4.85-2.56 6.65l-.01-.01h-17.43c1.1 0 2.1-.45 2.83-1.17.72-.73 1.17-1.73 1.17-2.83 0-2.21-1.79-4-4-4h19.96c.03.29.04.6.04.9z" fill="#ffeaa7"/><path d="m2 17v-4c0-1.1.9-2 2-2h.05 9.95v8h-7.43-2.57c-1.1 0-2-.9-2-2z" fill="#fcd770"/><path d="m20 11c2.21 0 4 1.79 4 4 0 1.1-.45 2.1-1.17 2.83-.73.72-1.73 1.17-2.83 1.17h-2v-8z" fill="#fcd770"/><path d="m14 11h4v8h-4z" fill="#e6e9ed"/><path d="m32 42v16c0 2.21-1.79 4-4 4h-22c-2.21 0-4-1.79-4-4v-16c0-2.21 1.79-4 4-4h22c2.21 0 4 1.79 4 4z" fill="#ccd1d9"/><path d="m27 42h-20c-.55 0-1 .45-1 1v5 9c0 .55.45 1 1 1h20c.55 0 1-.45 1-1v-7-7c0-.55-.45-1-1-1z" fill="#69d6f4"/><path d="m52 50.65v4.35h-3-3v-4.35c.96.23 1.97.35 3 .35s2.04-.12 3-.35z" fill="#ccd1d9"/><path d="m52 50.65c-.96.23-1.97.35-3 .35s-2.04-.12-3-.35c-5.73-1.35-10-6.5-10-12.65 0-7.18 5.82-13 13-13s13 5.82 13 13c0 6.15-4.27 11.3-10 12.65z" fill="#fcd770"/><path d="m49 29c4.97 0 9 4.03 9 9s-4.03 9-9 9-9-4.03-9-9 4.03-9 9-9z" fill="#e6e9ed"/><path d="m52 39.71v.29c0 .83-.34 1.58-.88 2.12s-1.29.88-2.12.88c-1.66 0-3-1.34-3-3v-.29c0-.47.11-.93.32-1.34l2.68-5.37 2.68 5.37c.21.41.32.87.32 1.34z" fill="#ef7385"/><path d="m49 30.764-3.577 7.155c-.277.553-.423 1.171-.423 1.789v.292c0 2.206 1.794 4 4 4s4-1.794 4-4v-.292c0-.618-.146-1.236-.422-1.789zm2 9.236c0 1.103-.897 2-2 2s-2-.897-2-2v-.292c0-.309.073-.618.211-.894l1.789-3.578 1.789 3.578c.138.276.211.585.211.894z"/><path d="m49 28c-5.514 0-10 4.486-10 10s4.486 10 10 10 10-4.486 10-10-4.486-10-10-10zm0 18c-4.411 0-8-3.589-8-8s3.589-8 8-8 8 3.589 8 8-3.589 8-8 8z"/><path d="m63 38c0-7.382-5.747-13.433-13-13.949v-6.551c0-4.136-3.364-7.5-7.5-7.5h-1.677c-.903-5.106-5.362-9-10.723-9-2.912 0-5.648 1.134-7.707 3.192l-.393.394-.394-.394c-2.058-2.058-4.795-3.192-7.707-3.192-5.412 0-9.896 3.877-10.743 9.136-1.242.367-2.156 1.505-2.156 2.864v4c0 1.654 1.346 3 3 3h2.144c.266.275.522.523.778.736l15.078 12.566 15.078-12.565c2.493-2.078 3.922-5.13 3.922-8.374v-.363h1.5c3.033 0 5.5 2.467 5.5 5.5v6.551c-7.253.516-13 6.567-13 13.949v17.5c0 4.136 3.364 7.5 7.5 7.5 3.967 0 7.216-3.098 7.475-7h3.025v-4.59c5.775-1.726 10-7.081 10-13.41zm-49.101-35c2.377 0 4.612.926 6.293 2.606l1.808 1.808 1.808-1.808c1.681-1.68 3.916-2.606 6.293-2.606 4.255 0 7.817 3.003 8.69 7h-18.791-14.785c.87-4.057 4.425-7 8.684-7zm9.101 12c0 1.654-1.346 3-3 3h-1v-6h1c1.654 0 3 1.346 3 3zm-6-3v6h-2v-6zm-14 5v-4c0-.551.449-1 1-1h9v6h-9c-.551 0-1-.449-1-1zm6.162 3h10.838 14.838l-12.838 10.698zm29.838-7.637c0 2.081-.729 4.059-2.025 5.637h-13c.634-.838 1.025-1.87 1.025-3s-.391-2.162-1.026-3h15.026zm3.5 48.637c-3.033 0-5.5-2.467-5.5-5.5v-10.326c1.781 2.967 4.619 5.226 8 6.237v4.589h2.975c-.254 2.799-2.611 5-5.475 5zm8.5-7h-4v-2.16c.655.094 1.319.16 2 .16s1.345-.065 2-.16zm-2-4c-6.617 0-12-5.383-12-12s5.383-12 12-12 12 5.383 12 12-5.383 12-12 12z"/><path d="m28 37h-22c-2.757 0-5 2.243-5 5v16c0 2.757 2.243 5 5 5h22c2.757 0 5-2.243 5-5v-16c0-2.757-2.243-5-5-5zm3 21c0 1.654-1.346 3-3 3h-22c-1.654 0-3-1.346-3-3v-16c0-1.654 1.346-3 3-3h22c1.654 0 3 1.346 3 3z"/><path d="m27 41h-20c-1.103 0-2 .897-2 2v14c0 1.103.897 2 2 2h20c1.103 0 2-.897 2-2v-14c0-1.103-.897-2-2-2zm0 2 .001 6h-5.536l-1.273 1.909-3.122-7.285-4.07 8.14-2.382-4.764h-3.618v-4zm-20 14v-8h2.382l3.618 7.236 3.93-7.86 2.878 6.715 2.727-4.091h4.466l.001 6z"/><path d="m31 14h2v2h-2z"/><path d="m35 14h2v2h-2z"/><path d="m27 14h2v2h-2z"/><path d="m5 14h2v2h-2z"/><path d="m9 14h2v2h-2z"/></svg>