
<svg id="Layer_3" enable-background="new 0 0 64 64" height="80" viewBox="0 0 64 64" width="80" xmlns="http://www.w3.org/2000/svg"><g><g><path d="m50 19v-5h3l-5-8-5 8h3v5" fill="#78b75b"/></g><g><path d="m46 45v5h-3l5 8 5-8h-3v-5" fill="#78b75b"/></g><g><path d="m27 39h2c1.105 0 2-.895 2-2v-15c0-2.209-1.791-4-4-4h-12c-2.209 0-4 1.791-4 4v15c0 1.105.895 2 2 2h2" fill="#78b75b"/></g><g><path d="m18 18v1c0 1.657 1.343 3 3 3 1.657 0 3-1.343 3-3v-1" fill="#efbe9a"/></g><g><path d="m15 39h-2c-1.105 0-2-.895-2-2v-2h4z" fill="#efbe9a"/></g><g><path d="m29 39h-2v-4h4v2c0 1.105-.895 2-2 2z" fill="#efbe9a"/></g><g><path d="m15 35h12v23h-12z" fill="#4d5d7a"/></g><g><path d="m21 58h-6c-1.105 0-2 .895-2 2v2h8z" fill="#78b75b"/></g><g><path d="m21 58h6c1.105 0 2 .895 2 2v2h-8z" fill="#78b75b"/></g><g><path d="m17 10h-3c-1.105 0-2 .895-2 2 0 1.105.895 2 2 2h3" fill="#db9b7c"/></g><g><path d="m25 10h3c1.105 0 2 .895 2 2 0 1.105-.895 2-2 2h-3" fill="#db9b7c"/></g><g><path d="m26 6v7c0 2.761-2.239 5-5 5-2.761 0-5-2.239-5-5v-7" fill="#efbe9a"/></g><g><path d="m24 6c0 2.209-3.791 4-6 4h-4v-4c0-2.209 1.791-4 4-4h6c2.209 0 4 1.791 4 4v4c-2.209 0-4-1.791-4-4z" fill="#976947"/></g><g><path d="m14 23h2v35h-2z"/></g><g><path d="m21 63h-8c-.553 0-1-.447-1-1v-2c0-1.654 1.346-3 3-3h5v-17h2v22c0 .553-.447 1-1 1zm-7-2h6v-2h-5c-.552 0-1 .448-1 1z"/></g><g><path d="m26 23h2v35h-2z"/></g><g><path d="m29 63h-8v-2h7v-1c0-.552-.448-1-1-1h-6v-2h6c1.654 0 3 1.346 3 3v2c0 .553-.447 1-1 1z"/></g><g><path d="m11 34h20v2h-20z"/></g><g><path d="m28 11c-1.794 0-3.371-.95-4.253-2.374-1.537 1.498-4.135 2.374-5.747 2.374h-4c-.553 0-1-.447-1-1v-4c0-2.757 2.243-5 5-5h6c2.757 0 5 2.243 5 5v4c0 .553-.447 1-1 1zm-13-2h3c1.975 0 5-1.609 5-3 0-.553.447-1 1-1s1 .447 1 1c0 1.304.836 2.416 2 2.829v-2.829c0-1.654-1.346-3-3-3h-6c-1.654 0-3 1.346-3 3z"/></g><g><path d="m21 19c-3.309 0-6-2.691-6-6v-3h2v3c0 2.206 1.794 4 4 4s4-1.794 4-4v-4h2v4c0 3.309-2.691 6-6 6z"/></g><g><path d="m16 15h-2c-1.654 0-3-1.346-3-3s1.346-3 3-3h1v2h-1c-.552 0-1 .448-1 1s.448 1 1 1h2z"/></g><g><path d="m28 15h-2v-2h2c.552 0 1-.448 1-1s-.448-1-1-1h-1v-2h1c1.654 0 3 1.346 3 3s-1.346 3-3 3z"/></g><g><path d="m21 23c-2.206 0-4-1.794-4-4v-1h2v1c0 1.103.897 2 2 2s2-.897 2-2v-1h2v1c0 2.206-1.794 4-4 4z"/></g><g><path d="m29 40h-2v-2h2c.552 0 1-.448 1-1v-15c0-1.654-1.346-3-3-3h-12c-1.654 0-3 1.346-3 3v15c0 .552.448 1 1 1h2v2h-2c-1.654 0-3-1.346-3-3v-15c0-2.757 2.243-5 5-5h12c2.757 0 5 2.243 5 5v15c0 1.654-1.346 3-3 3z"/></g><g><path d="m32 61h10v2h-10z"/></g><g><path d="m34 2h2v60h-2z"/></g><g><path d="m32 1h10v2h-10z"/></g><g><path d="m35 5h5v2h-5z"/></g><g><path d="m35 9h5v2h-5z"/></g><g><path d="m35 13h5v2h-5z"/></g><g><path d="m35 17h5v2h-5z"/></g><g><path d="m35 21h5v2h-5z"/></g><g><path d="m35 25h5v2h-5z"/></g><g><path d="m35 29h5v2h-5z"/></g><g><path d="m35 33h5v2h-5z"/></g><g><path d="m35 37h5v2h-5z"/></g><g><path d="m35 41h5v2h-5z"/></g><g><path d="m35 45h5v2h-5z"/></g><g><path d="m35 49h5v2h-5z"/></g><g><path d="m35 53h5v2h-5z"/></g><g><path d="m35 57h5v2h-5z"/></g><g><path d="m51 19h-2v-5c0-.553.447-1 1-1h1.195l-3.195-5.113-3.195 5.113h1.195c.553 0 1 .447 1 1v5h-2v-4h-2c-.363 0-.698-.197-.875-.516-.176-.317-.166-.706.027-1.015l5-8c.365-.584 1.33-.584 1.695 0l5 8c.193.309.203.697.027 1.015-.176.319-.511.516-.874.516h-2z"/></g><g><path d="m45 21h2v2h-2z"/></g><g><path d="m45 25h2v2h-2z"/></g><g><path d="m45 29h2v2h-2z"/></g><g><path d="m49 21h2v2h-2z"/></g><g><path d="m49 25h2v2h-2z"/></g><g><path d="m49 29h2v2h-2z"/></g><g><path d="m48 59c-.345 0-.665-.178-.848-.47l-5-8c-.193-.309-.203-.697-.027-1.015.177-.318.512-.515.875-.515h2v-4h2v5c0 .553-.447 1-1 1h-1.195l3.195 5.113 3.195-5.113h-1.195c-.553 0-1-.447-1-1v-5h2v4h2c.363 0 .698.197.875.516.176.317.166.706-.027 1.015l-5 8c-.183.291-.503.469-.848.469z"/></g><g><path d="m49 41h2v2h-2z"/></g><g><path d="m49 37h2v2h-2z"/></g><g><path d="m49 33h2v2h-2z"/></g><g><path d="m45 41h2v2h-2z"/></g><g><path d="m45 37h2v2h-2z"/></g><g><path d="m45 33h2v2h-2z"/></g></g></svg>