<svg width="25" height="25" viewBox="0 0 25 25" fill="none" xmlns="http://www.w3.org/2000/svg">
<g clip-path="url(#clip0)">
<path d="M9.47188 10.4145C10.3865 10.0927 11.0542 9.10831 11.0542 7.94654V7.4554C11.0542 7.24693 10.8852 7.07812 10.6769 7.07812C10.4685 7.07812 10.2997 7.24693 10.2997 7.4554V7.94654C10.2997 8.95267 9.63782 9.7713 8.82434 9.7713H8.0511C7.84263 9.7713 7.67383 9.9401 7.67383 10.1484C7.67383 10.2766 7.73791 10.3897 7.83557 10.4579C7.76233 10.5266 7.71636 10.6241 7.71636 10.7326C7.71636 10.9409 7.88535 11.1099 8.09364 11.1099H8.87145C10.1555 11.1099 11.2001 12.1543 11.2001 13.4384V21.7494C11.2001 21.9579 11.3691 22.1267 11.5774 22.1267C11.7857 22.1267 11.9547 21.9577 11.9547 21.7494V13.4386C11.9545 11.944 10.8854 10.6946 9.47188 10.4145Z" fill="#D81229"/>
<path d="M3.37029 3.20169C4.47846 2.65657 5.83839 2.69872 6.94027 3.43248C8.58765 4.52902 9.03397 6.75356 7.93724 8.40074C7.9155 8.43336 7.89433 8.46578 7.87334 8.49821C7.6437 8.85526 7.65533 9.31055 7.8783 9.6718C8.02937 9.9167 8.11787 10.2129 8.11787 10.532C8.11787 10.8511 8.02956 11.1471 7.87849 11.392C7.65419 11.756 7.64542 12.2133 7.87754 12.5725C7.88803 12.5885 7.89852 12.6047 7.90901 12.6209C9.00192 14.2832 8.57887 16.5619 6.91319 17.6497C6.3097 18.0437 5.63011 18.2327 4.95796 18.2327C3.80001 18.2327 2.6638 17.6726 1.97334 16.6369C0.663376 14.6721 -0.000571838 12.6179 3.6954e-07 10.5313C0.000572577 8.44709 0.663948 6.39402 1.97201 4.42926C2.03342 4.33714 2.09885 4.24921 2.16713 4.16452C2.16713 4.16452 2.58179 3.60262 3.37029 3.20169Z" fill="#CF4842"/>
<path d="M3.52745 16.6368C2.21767 14.672 1.55354 12.6178 1.55411 10.5312C1.55468 8.44702 2.21825 6.39395 3.52612 4.42938C3.58753 4.33707 3.65315 4.24914 3.72124 4.16445L4.92439 3.20162C5.18341 3.07421 5.45635 2.97942 5.73635 2.91743C4.93527 2.7389 4.09851 2.84342 3.37029 3.20162C2.91557 3.42402 2.51923 3.75361 2.16713 4.16445C2.09885 4.24914 2.03342 4.33707 1.97201 4.42919C0.663948 6.39395 0.000572577 8.44702 3.6954e-07 10.5312C-0.000571838 12.6178 0.663376 14.672 1.97334 16.6368C2.66399 17.6725 3.80001 18.2327 4.95796 18.2327C5.21698 18.2327 5.47733 18.2043 5.73387 18.147C4.8626 17.9542 4.0617 17.4379 3.52745 16.6368Z" fill="#A83A36"/>
<path d="M15.5121 10.4145C14.5975 10.0927 13.9298 9.10831 13.9298 7.94654V7.4554C13.9298 7.24693 14.0987 7.07812 14.307 7.07812C14.5153 7.07812 14.6843 7.24693 14.6843 7.4554V7.94654C14.6843 8.95267 15.3462 9.7713 16.1596 9.7713H16.9329C17.1414 9.7713 17.3102 9.9401 17.3102 10.1484C17.3102 10.2766 17.2461 10.3897 17.1484 10.4579C17.2217 10.5266 17.2676 10.6241 17.2676 10.7326C17.2676 10.9409 17.0986 11.1099 16.8903 11.1099H16.1125C14.8285 11.1099 13.7838 12.1543 13.7838 13.4384V21.7494C13.7838 21.9579 13.6149 22.1267 13.4066 22.1267C13.1983 22.1267 13.0293 21.9577 13.0293 21.7494V13.4386C13.0295 11.944 14.0986 10.6946 15.5121 10.4145Z" fill="#1E59A2"/>
<path d="M22.833 4.16452C22.8954 4.2536 22.9668 4.33714 23.0282 4.42926C24.336 6.39402 24.9996 8.44709 25.0002 10.5313C25.0007 12.6179 24.3366 14.6721 23.0268 16.6369C22.3362 17.6726 21.2002 18.2327 20.0422 18.2327C19.3701 18.2327 18.6905 18.0437 18.0868 17.6497C16.4211 16.5619 15.9981 14.2832 17.091 12.6209C17.1017 12.6047 17.1121 12.5885 17.1224 12.5725C17.3546 12.2133 17.346 11.756 17.1217 11.392C16.9706 11.1471 16.8823 10.8511 16.8823 10.532C16.8823 10.2129 16.9706 9.91689 17.1219 9.6718C17.3446 9.31055 17.3563 8.85526 17.1266 8.49821C17.1058 8.46578 17.0845 8.43336 17.0627 8.40074C15.9662 6.75356 16.4125 4.52902 18.0597 3.43248C19.1618 2.69872 20.5217 2.65657 21.6299 3.20169C21.6299 3.20169 22.5073 3.6997 22.833 4.16452Z" fill="#CF4842"/>
<path d="M23.0278 4.42915C22.9664 4.33702 22.901 4.2491 22.8327 4.16441C22.4714 3.76158 22.072 3.43714 21.6295 3.20158C20.8668 2.8264 19.9845 2.72951 19.1494 2.94485C19.389 3.00608 19.6228 3.09172 19.8462 3.20158L21.0493 4.16441C21.1176 4.2491 21.183 4.33702 21.2444 4.42915C22.5525 6.39391 23.2159 8.44698 23.2165 10.5311C23.217 12.6178 22.5529 14.672 21.2431 16.6368C20.7323 17.4026 19.978 17.9082 19.1513 18.1197C19.4449 18.1952 19.7441 18.2326 20.0419 18.2326C21.1998 18.2326 22.336 17.6724 23.0265 16.6368C24.3363 14.672 25.0004 12.6178 24.9998 10.5311C24.9992 8.44698 24.3359 6.39391 23.0278 4.42915Z" fill="#A83A36"/>
</g>
<defs>
<clipPath id="clip0">
<rect width="25" height="25" fill="white"/>
</clipPath>
</defs>
</svg>
