<svg width="25" height="25" viewBox="0 0 25 25" fill="none" xmlns="http://www.w3.org/2000/svg">
<g clip-path="url(#clip0)">
<path d="M3.21667 24.6248C3.57869 24.9878 4.1898 24.8934 4.42384 24.4374C5.1925 22.9391 6.49903 20.7323 8.44873 18.49C11.2762 15.2386 14.0684 13.0724 17.7864 11.6009L19.2998 11.0207C21.0393 10.4204 22.8673 10.0092 24.7804 9.79005C24.9052 9.77574 24.9996 9.67084 24.9996 9.54533V4.4365C24.9996 4.29268 24.8767 4.1771 24.7335 4.19083C24.7327 4.19083 24.7318 4.19102 24.7308 4.19102C21.6344 4.49105 18.6839 5.2147 15.9171 6.34957C16.2849 4.15154 17.7291 2.00119 19.0011 0.805474C19.234 0.58651 19.0776 0.195312 18.7578 0.195312C17.3816 0.195312 14.9137 0.195312 13.5217 0.195312C12.8845 0.195312 12.2953 0.532723 11.9726 1.08204L11.9668 1.09177C10.975 2.78206 9.93036 5.55001 10.2998 9.39427C8.03865 10.952 5.9562 12.8344 4.0891 15.0114C2.32728 17.0658 1.01864 19.0806 0.096822 20.7165C-0.0694989 21.0118 -0.0189541 21.3814 0.220418 21.6215L3.21667 24.6248Z" fill="#F5879F"/>
<path d="M5.25467 19.5141C5.25467 19.8919 4.94835 20.198 4.57069 20.198C4.19304 20.198 3.88672 19.8919 3.88672 19.5141C3.88672 19.1364 4.19304 18.8301 4.57069 18.8301C4.94835 18.8301 5.25467 19.1364 5.25467 19.5141Z" fill="#D47589"/>
<path d="M14.8011 3.50038C14.8011 3.87823 14.4947 4.18436 14.1171 4.18436C13.7392 4.18436 13.4331 3.87823 13.4331 3.50038C13.4331 3.12273 13.7392 2.81641 14.1171 2.81641C14.4947 2.81641 14.8011 3.12273 14.8011 3.50038Z" fill="#D47589"/>
<path d="M17.8445 9.99355C17.8445 10.3712 17.5382 10.6775 17.1605 10.6775C16.7827 10.6775 16.4766 10.3712 16.4766 9.99355C16.4766 9.6157 16.7827 9.30957 17.1605 9.30957C17.5382 9.30957 17.8445 9.6157 17.8445 9.99355Z" fill="#D47589"/>
<path d="M13.4114 8.69081C13.4114 9.06847 13.1053 9.3746 12.7274 9.3746C12.3498 9.3746 12.0435 9.06847 12.0435 8.69081C12.0435 8.31297 12.3498 8.00684 12.7274 8.00684C13.1053 8.00684 13.4114 8.31297 13.4114 8.69081Z" fill="#D47589"/>
<path d="M11.512 13.9818C11.512 14.3597 11.2059 14.6658 10.828 14.6658C10.4504 14.6658 10.144 14.3597 10.144 13.9818C10.144 13.6042 10.4504 13.2979 10.828 13.2979C11.2059 13.2979 11.512 13.6042 11.512 13.9818Z" fill="#D47589"/>
<path d="M23.1516 6.87196C23.1516 7.24962 22.8453 7.55594 22.4677 7.55594C22.0898 7.55594 21.7837 7.24962 21.7837 6.87196C21.7837 6.49431 22.0898 6.18799 22.4677 6.18799C22.8453 6.18799 23.1516 6.49431 23.1516 6.87196Z" fill="#D47589"/>
<path d="M3.03592 20.8817C3.03592 21.2596 2.7296 21.5657 2.35194 21.5657C1.9741 21.5657 1.66797 21.2596 1.66797 20.8817C1.66797 20.5041 1.9741 20.1978 2.35194 20.1978C2.7296 20.1978 3.03592 20.5041 3.03592 20.8817Z" fill="#D47589"/>
<path d="M4.40408 23.0097C4.40408 23.3875 4.09776 23.6936 3.72011 23.6936C3.34226 23.6936 3.03613 23.3875 3.03613 23.0097C3.03613 22.632 3.34226 22.3257 3.72011 22.3257C4.09776 22.3257 4.40408 22.632 4.40408 23.0097Z" fill="#D47589"/>
<path d="M23.9138 4.28174V7.12007C23.9138 7.99135 23.2851 8.73941 22.4253 8.87922C20.9692 9.11592 19.5648 9.46802 18.2141 9.93417L16.7006 10.5144C12.9826 11.9859 10.1904 14.1521 7.36313 17.4035C4.95129 20.1772 3.52364 22.8965 2.88086 24.2876L3.21732 24.625C3.57933 24.9877 4.19045 24.8933 4.42448 24.4373C5.19314 22.9391 6.49968 20.7323 8.44937 18.49C11.2766 15.2385 14.069 13.0723 17.7868 11.6008L19.3003 11.0206C21.0398 10.4204 22.868 10.0091 24.7811 9.78998C24.9056 9.77567 25.0002 9.67096 25.0002 9.54546V4.43757C25.0002 4.29376 24.8778 4.18027 24.7345 4.19171C24.477 4.2125 24.1497 4.25294 23.9138 4.28174Z" fill="#D47589"/>
<path d="M4.08954 15.0115C3.31954 15.9091 2.63652 16.7993 2.03418 17.6536C2.87055 17.6185 2.635 18.0236 3.59096 17.7512C4.06227 17.617 4.45156 17.0478 5.00259 16.7695C5.47027 16.5334 6.16798 16.574 6.62613 16.2C7.03659 15.8649 7.14111 15.1887 7.49721 14.7187C7.81498 14.2993 8.44917 14.0262 8.69007 13.4824C8.90179 13.0052 8.69446 12.3508 8.82397 11.7662C8.93688 11.2575 9.41467 10.7619 9.45034 10.1642L9.33533 10.0879C7.44438 11.5009 5.6879 13.1478 4.08954 15.0115Z" fill="#FCDA55"/>
<path d="M9.45034 10.1642L9.33533 10.0879C8.89339 10.4181 8.45909 10.7616 8.03203 11.1173C7.95116 11.6697 8.1171 12.2676 7.92007 12.7122C7.67898 13.2562 7.04498 13.5291 6.72702 13.9487C6.37111 14.4185 6.2664 15.0947 5.85594 15.43C5.39798 15.804 4.70027 15.7634 4.23259 15.9995C3.68156 16.2778 3.29227 16.847 2.82096 16.9812C2.676 17.0224 2.55889 17.048 2.46085 17.0621C2.31456 17.2609 2.17189 17.4583 2.03418 17.6536C2.87074 17.6187 2.63519 18.0236 3.59115 17.7512C4.06227 17.617 4.45175 17.0478 5.00278 16.7695C5.47027 16.5334 6.16817 16.574 6.62613 16.2C7.03659 15.8649 7.1413 15.1887 7.49721 14.7189C7.81517 14.2993 8.44917 14.0262 8.69026 13.4824C8.90179 13.0052 8.69465 12.351 8.82416 11.7662C8.93688 11.2575 9.41467 10.7619 9.45034 10.1642Z" fill="#D9BC49"/>
<path d="M4.9368 19.2855C4.9368 19.6632 4.63067 19.9695 4.25282 19.9695C3.87517 19.9695 3.56885 19.6632 3.56885 19.2855C3.56885 18.9077 3.87517 18.6016 4.25282 18.6016C4.63067 18.6016 4.9368 18.9077 4.9368 19.2855Z" fill="#D81229"/>
<path d="M14.4827 3.27236C14.4827 3.6502 14.1764 3.95633 13.7987 3.95633C13.4211 3.95633 13.1147 3.6502 13.1147 3.27236C13.1147 2.8947 13.4211 2.58838 13.7987 2.58838C14.1764 2.58838 14.4827 2.8947 14.4827 3.27236Z" fill="#D81229"/>
<path d="M17.5266 9.76601C17.5266 10.1437 17.2205 10.4498 16.8427 10.4498C16.465 10.4498 16.1587 10.1437 16.1587 9.76601C16.1587 9.38816 16.465 9.08203 16.8427 9.08203C17.2205 9.08203 17.5266 9.38816 17.5266 9.76601Z" fill="#D81229"/>
<path d="M13.0938 8.46278C13.0938 8.84063 12.7877 9.14676 12.4101 9.14676C12.0322 9.14676 11.7261 8.84063 11.7261 8.46278C11.7261 8.08513 12.0322 7.77881 12.4101 7.77881C12.7877 7.77881 13.0938 8.08513 13.0938 8.46278Z" fill="#D81229"/>
<path d="M11.1939 13.7538C11.1939 14.1317 10.8878 14.4378 10.51 14.4378C10.1323 14.4378 9.82617 14.1317 9.82617 13.7538C9.82617 13.3761 10.1323 13.0698 10.51 13.0698C10.8878 13.0698 11.1939 13.3761 11.1939 13.7538Z" fill="#D81229"/>
<path d="M22.8343 6.64393C22.8343 7.02159 22.5279 7.32791 22.1503 7.32791C21.7726 7.32791 21.4663 7.02159 21.4663 6.64393C21.4663 6.26609 21.7726 5.95996 22.1503 5.95996C22.5279 5.95996 22.8343 6.26609 22.8343 6.64393Z" fill="#D81229"/>
<path d="M2.71805 20.6537C2.71805 21.0314 2.41173 21.3377 2.03407 21.3377C1.65642 21.3377 1.3501 21.0314 1.3501 20.6537C1.3501 20.2759 1.65642 19.9697 2.03407 19.9697C2.41173 19.9697 2.71805 20.2759 2.71805 20.6537Z" fill="#D81229"/>
<path d="M4.08573 22.7816C4.08573 23.1593 3.7794 23.4656 3.40175 23.4656C3.02409 23.4656 2.71777 23.1593 2.71777 22.7816C2.71777 22.404 3.02409 22.0977 3.40175 22.0977C3.7794 22.0977 4.08573 22.404 4.08573 22.7816Z" fill="#D81229"/>
<path d="M5.30331 22.6647C5.30331 22.6647 5.34546 22.6603 5.42157 22.6525C6.17573 21.4052 7.17481 19.9555 8.44892 18.4902C9.26679 17.5497 10.0816 16.7008 10.9168 15.9323L10.8888 15.9151C10.3895 15.946 9.87104 15.8327 9.4745 16.0084C8.93071 16.2495 8.65758 16.8835 8.23815 17.2014C7.76818 17.5575 7.09203 17.6621 6.7569 18.0725C6.38287 18.5307 6.4235 19.2284 6.18737 19.6959C5.90909 20.2469 5.33974 20.6364 5.20566 21.1075C4.9331 22.0637 5.33841 21.8279 5.30331 22.6647Z" fill="#D9BC49"/>
</g>
<defs>
<clipPath id="clip0">
<rect width="25" height="25" fill="white"/>
</clipPath>
</defs>
</svg>
