<svg width="25" height="25" viewBox="0 0 25 25" fill="none" xmlns="http://www.w3.org/2000/svg">
<g clip-path="url(#clip0)">
<path d="M11.1646 18.0617V23.9575C11.1646 24.4352 11.552 24.8222 12.0293 24.8222C12.5066 24.8222 12.894 24.4352 12.894 23.9575V17.0396C12.3354 17.3941 11.7591 17.7365 11.1646 18.0617Z" fill="#556080"/>
<path d="M19.8118 17.0398H18.9471C17.5964 17.0398 16.4878 16.0073 16.365 14.689C15.8881 15.0746 15.3865 15.4629 14.8604 15.8481C15.4436 17.5465 17.0512 18.7692 18.9471 18.7692H19.8118C20.2892 18.7692 20.6766 18.3823 20.6766 17.9045C20.6766 17.4267 20.2896 17.0398 19.8118 17.0398Z" fill="#F5B05C"/>
<path d="M13.758 4.50094C13.5194 4.50094 13.3257 4.30724 13.3257 4.06857C13.3257 2.87653 12.3559 1.90673 11.1638 1.90673C10.9251 1.90673 10.7314 1.71303 10.7314 1.47436C10.7314 1.23569 10.9251 1.04199 11.1638 1.04199C12.8328 1.04199 14.1904 2.39963 14.1904 4.06857C14.1904 4.30724 13.9971 4.50094 13.758 4.50094Z" fill="#366DB6"/>
<path d="M15.0554 4.50094C14.8167 4.50094 14.623 4.30724 14.623 4.06857C14.623 3.82991 14.8167 3.6362 15.0554 3.6362C16.2475 3.6362 17.2173 2.6664 17.2173 1.47436C17.2173 1.23569 17.411 1.04199 17.6496 1.04199C17.8883 1.04199 18.082 1.23569 18.082 1.47436C18.082 3.1433 16.7244 4.50094 15.0554 4.50094Z" fill="#366DB6"/>
<path d="M14.2307 5.92127C14.5039 5.98266 14.7794 6.03195 15.0556 6.07519V1.04198C15.0556 0.564216 14.6682 0.177246 14.1909 0.177246C13.7136 0.177246 13.3262 0.564216 13.3262 1.04198V5.74356C13.6535 5.8015 13.9635 5.86117 14.2307 5.92127Z" fill="#556080"/>
<path d="M2.94921 4.50096H3.38158C4.2675 4.50096 5.04361 4.95019 5.51143 5.62815C6.09642 5.46904 6.7052 5.37218 7.3196 5.31944C6.64164 3.81825 5.13613 2.77148 3.38158 2.77148H2.94921C2.47188 2.77148 2.08447 3.15845 2.08447 3.63622C2.08447 4.11399 2.47188 4.50096 2.94921 4.50096Z" fill="#F5B05C"/>
<path d="M0.751018 10.473C0.805496 10.2948 0.863002 10.1171 0.924398 9.93986C1.25386 8.98778 1.67153 8.05516 2.28204 7.25398C3.99292 5.00783 7.01907 4.72506 9.64268 4.86255C10.9177 4.92914 12.9845 5.20931 14.2305 5.48949C15.4468 5.76274 16.6955 5.85527 17.9424 5.77442C19.6222 5.66546 21.7702 5.18769 23.0725 4.47861C24.1478 3.89318 25.3826 4.99226 24.8871 6.1121C24.5521 6.86917 23.8274 7.88048 22.4685 9.22991C22.0335 9.66184 21.6068 10.0977 21.1982 10.5547C19.8133 12.1034 15.7067 16.3502 10.4201 19.0408C9.41093 19.5544 8.34039 19.9475 7.22661 20.1528C6.14958 20.3517 4.37816 20.999 3.38155 23.0929C3.19693 23.4808 3.12343 24.8471 1.65207 24.8224C1.28067 24.8164 0.878134 24.1842 0.808523 23.2616C0.712537 21.9913 0.322973 20.7759 0.196289 19.506C-0.108964 16.45 -0.149606 13.4217 0.751018 10.473Z" fill="#B24648"/>
<path d="M2.51699 20.9314C2.48024 20.9314 2.44349 20.9267 2.40673 20.9172C2.24676 20.8748 2.1244 20.7451 2.09283 20.5825C2.08548 20.5449 2.07122 20.4822 2.05219 20.3983C1.8546 19.5159 1.25317 16.8309 1.66047 14.794C1.70716 14.5596 1.93545 14.4092 2.16936 14.455C2.40371 14.5017 2.55547 14.7295 2.50834 14.9639C2.28394 16.085 2.37215 17.6472 2.76906 19.6127C4.28884 18.1928 6.02177 17.738 6.75593 17.6026C7.62024 17.4431 8.53686 17.0125 9.23903 16.6557C9.45175 16.5468 9.71204 16.632 9.82057 16.8451C9.92866 17.0579 9.84391 17.3181 9.63119 17.4267C8.87714 17.8106 7.88701 18.2737 6.91288 18.4535C6.17353 18.5897 4.29705 19.09 2.84516 20.7818C2.76214 20.8778 2.64151 20.9314 2.51699 20.9314Z" fill="#892F34"/>
<path d="M2.51702 11.8515C2.47033 11.8515 2.42233 11.8437 2.37564 11.8273C2.14994 11.7495 2.03017 11.503 2.10843 11.2773C2.42968 10.349 3.22913 8.86514 3.65804 8.30176C4.52148 7.16852 6.0365 6.66309 8.57019 6.66309C8.80885 6.66309 9.00255 6.85679 9.00255 7.09545C9.00255 7.33412 8.80885 7.52782 8.57019 7.52782C6.33268 7.52782 5.02995 7.9282 4.34594 8.82579C3.96286 9.32907 3.21703 10.7174 2.92561 11.5605C2.86378 11.7395 2.69645 11.8515 2.51702 11.8515Z" fill="#892F34"/>
<path d="M14.6802 16.4097C15.4143 15.8783 16.1048 15.3404 16.7447 14.8108C18.1603 11.5996 16.2895 9.02873 16.2661 8.9976C16.123 8.80692 15.8532 8.76801 15.6621 8.91069C15.471 9.05337 15.4316 9.32403 15.5735 9.51514C15.6699 9.64572 17.9039 12.7519 14.7321 16.3198C14.7087 16.347 14.6962 16.379 14.6802 16.4097Z" fill="#892F34"/>
</g>
<defs>
<clipPath id="clip0">
<rect width="25" height="25" fill="white"/>
</clipPath>
</defs>
</svg>
