<?xml version="1.0" standalone="no"?>
<!DOCTYPE svg PUBLIC "-//W3C//DTD SVG 20010904//EN"
 "http://www.w3.org/TR/2001/REC-SVG-20010904/DTD/svg10.dtd">
<svg version="1.0" xmlns="http://www.w3.org/2000/svg"
 width="819.000000pt" height="141.000000pt" viewBox="0 0 819.000000 141.000000"
 preserveAspectRatio="xMidYMid meet">
<metadata>
Created by potrace 1.16, written by Peter Selinger 2001-2019
</metadata>
<g transform="translate(0.000000,141.000000) scale(0.100000,-0.100000)"
fill="#000000" stroke="none">
<path d="M0 1080 l0 -330 335 0 334 0 -5 53 c-20 187 -104 347 -245 463 -101
83 -258 143 -371 144 l-48 0 0 -330z"/>
<path d="M2421 1294 c-38 -32 -49 -80 -27 -123 16 -31 61 -61 91 -61 31 0 82
31 94 56 49 108 -68 204 -158 128z"/>
<path d="M1915 1041 c-43 -11 -87 -36 -110 -61 l-20 -22 -5 33 -5 34 -82 3
-83 3 0 -341 0 -340 85 0 85 0 0 217 c0 198 2 220 21 259 27 56 90 90 152 80
57 -9 85 -30 108 -79 16 -37 19 -68 19 -259 l0 -218 86 0 86 0 -4 247 c-3 236
-4 251 -27 301 -25 56 -75 106 -126 128 -40 16 -142 25 -180 15z"/>
<path d="M3049 1035 c-25 -8 -62 -31 -82 -50 l-37 -36 0 41 0 41 -82 -3 -83
-3 0 -335 0 -335 83 -3 82 -3 0 193 c1 211 8 267 37 307 35 46 108 67 169 47
17 -5 25 4 52 60 18 37 29 71 25 75 -16 16 -117 19 -164 4z"/>
<path d="M3493 1039 c-109 -21 -195 -88 -242 -188 -23 -49 -26 -68 -26 -161 0
-93 3 -112 27 -162 66 -142 225 -218 395 -188 125 21 209 84 260 195 24 51 28
73 28 150 0 114 -21 177 -82 245 -86 96 -221 137 -360 109z m185 -152 c60 -39
87 -102 87 -203 0 -72 -3 -86 -30 -130 -70 -113 -211 -127 -292 -30 -37 45
-53 96 -53 168 0 96 39 170 108 208 51 28 127 23 180 -13z"/>
<path d="M4287 1040 c-100 -25 -173 -88 -221 -189 -28 -60 -31 -75 -31 -166 0
-87 4 -107 26 -156 35 -73 90 -134 153 -167 44 -23 63 -27 141 -27 80 0 95 3
137 27 25 16 56 40 68 55 l22 28 -3 -91 c-4 -79 -7 -96 -32 -133 -80 -121
-308 -123 -406 -4 -32 38 -35 38 -90 -9 -41 -35 -36 -53 30 -112 79 -71 140
-91 284 -91 101 0 129 4 176 23 76 30 142 90 176 160 l28 57 3 393 3 392 -86
0 -85 0 0 -46 0 -46 -41 37 c-23 20 -56 43 -74 51 -45 18 -131 25 -178 14z
m179 -159 c154 -70 148 -331 -9 -390 -167 -63 -313 122 -233 295 46 99 146
138 242 95z"/>
<path d="M5137 1040 c-251 -63 -343 -408 -161 -609 56 -63 123 -93 216 -99 69
-4 84 -2 132 22 30 15 67 41 81 57 l25 31 0 -79 c-1 -159 -76 -233 -240 -233
-80 0 -154 32 -199 87 -32 38 -35 38 -90 -9 -41 -35 -36 -53 30 -112 79 -71
140 -91 284 -91 101 0 129 4 176 23 76 30 142 90 176 160 l28 57 3 393 3 392
-86 0 -85 0 0 -46 0 -46 -41 37 c-23 20 -56 43 -74 51 -45 18 -131 25 -178 14z
m183 -162 c64 -33 103 -92 108 -167 5 -72 -10 -121 -51 -168 -75 -86 -199 -85
-274 0 -88 100 -59 273 56 334 56 29 104 29 161 1z"/>
<path d="M6700 1036 c-124 -33 -215 -142 -240 -288 -22 -122 27 -270 114 -344
119 -102 309 -97 404 10 l32 37 0 -51 0 -50 80 0 80 0 0 340 0 340 -80 0 -80
0 0 -51 0 -52 -49 46 c-74 69 -161 90 -261 63z m219 -174 c113 -89 109 -279
-8 -354 -41 -26 -53 -29 -107 -26 -48 3 -69 10 -97 31 -99 75 -107 249 -15
334 64 60 162 67 227 15z"/>
<path d="M7629 1035 c-25 -8 -62 -31 -82 -50 l-37 -36 0 41 0 40 -85 0 -85 0
2 -337 3 -338 82 -3 81 -3 4 218 c3 190 5 223 22 257 51 101 200 112 258 18
22 -35 23 -48 26 -264 l3 -228 86 0 85 0 -4 243 c-5 262 -10 294 -65 365 -53
70 -198 108 -294 77z"/>
<path d="M2402 758 c3 -256 4 -276 25 -320 29 -64 70 -88 150 -88 84 0 93 5
93 49 0 58 -10 81 -34 81 -61 1 -66 26 -66 304 l0 246 -86 0 -85 0 3 -272z"/>
<path d="M5700 1022 c0 -5 63 -141 139 -302 l139 -293 -104 -209 c-57 -114
-104 -210 -104 -213 0 -3 39 -5 88 -5 l87 0 248 503 c136 276 247 508 247 515
0 9 -25 12 -88 12 l-87 0 -94 -205 c-52 -113 -97 -205 -101 -205 -4 0 -48 91
-97 203 l-91 202 -91 3 c-50 1 -91 -1 -91 -6z"/>
<path d="M1160 734 c-181 -47 -349 -182 -429 -344 -43 -88 -71 -193 -71 -268
l0 -43 58 6 c168 20 299 82 413 196 111 110 173 243 194 417 l7 52 -59 -1
c-32 0 -83 -7 -113 -15z"/>
</g>
</svg>