<svg id="Capa_1" enable-background="new 0 0 512 512" height="80" viewBox="0 0 512 512" width="80" xmlns="http://www.w3.org/2000/svg"><g><g><path d="m414.765 493.076v-65.625c0-51.836-32.212-96.148-77.711-114.011l-162.113.002c-45.496 17.865-77.705 62.175-77.705 114.009v65.625l158.758 9z" fill="#f6e080"/><path d="m102.492 512h49.584l7.885-9 7.885 9h176.309l7.885-9 7.885 9h49.584c2.903 0 5.257-2.353 5.257-5.257v-13.667h-317.531v13.667c0 2.904 2.354 5.257 5.257 5.257z" fill="#eccd61"/><path d="m306.822 383.327c29.719-8.836 32.697-43.358 30.23-69.886-12.549-4.927-26.11-7.834-40.283-8.34l-40.773 48.549c.001 0 13.06 40.906 50.826 29.677z" fill="#fcf5f5"/><path d="m205.171 383.327c-29.719-8.836-32.697-43.358-30.23-69.886 12.549-4.927 26.11-7.834 40.283-8.34l40.773 48.549s-13.06 40.906-50.826 29.677z" fill="#fcf5f5"/><path d="m296.767 305.013s1.869 48.637-40.77 48.637-40.77-48.637-40.77-48.637z" fill="#e2ae84"/><path d="m387.605 172.923c16.707-141.184-69.589-172.923-131.605-172.923s-148.312 31.739-131.605 172.923z" fill="#c6d0da"/><path d="m153.201 156.175c-12.336 0-23.09 6.747-28.794 16.747.598 5.054 1.314 10.234 2.182 15.572h30.038v-32.143c-1.127-.116-2.269-.176-3.426-.176z" fill="#a0aab7"/><path d="m385.412 188.494c.868-5.338 1.584-10.518 2.182-15.572-5.704-10-16.458-16.747-28.794-16.747-1.157 0-2.3.06-3.427.176v32.143z" fill="#a0aab7"/><path d="m332.064 279.021s2.269 15.712 23.309 15.712c21.017 0 42.691-23.629 42.9-43.482-1.97-8.95-6.667-16.878-13.178-22.865l-33.051 12.292-16.044 18.653s-3.936 19.69-3.936 19.69z" fill="#c6d0da"/><path d="m355.373 285.733c-8.568 0-16.553-2.467-23.309-6.712l-13.733 5.237 3.712 5.068c8.057 9.381 19.995 15.331 33.33 15.331 24.262 0 43.929-19.668 43.929-43.929 0-3.254-.358-6.425-1.03-9.477-4.323 19.718-21.882 34.482-42.899 34.482z" fill="#a0aab7"/><path d="m121.444 198.772c0 13.817 16.745 32.673 31.756 32.673l3.687-9.21 12.037-15.158-12.298-31.802c-1.126-.116-2.269-.176-3.426-.176-15.011 0-27.683 9.985-31.756 23.673z" fill="#e2ae84"/><path d="m153.201 222.445c-15.011 0-27.684-9.985-31.756-23.673-.892 2.999-1.379 6.173-1.379 9.462 0 18.3 14.835 33.135 33.135 33.135 2.315 0 4.574-.239 6.755-.691l7.043-9.078-10.111-9.364c-1.211.134-2.44.209-3.687.209z" fill="#d7a379"/><path d="m390.556 198.772c0 13.817-16.745 32.673-31.756 32.673l-3.687-9.21-12.037-15.158 12.298-31.802c1.126-.116 2.269-.176 3.426-.176 15.011 0 27.683 9.985 31.756 23.673z" fill="#e2ae84"/><path d="m358.8 222.445c15.011 0 27.684-9.985 31.756-23.673.892 2.999 1.379 6.173 1.379 9.462 0 18.3-14.835 33.135-33.135 33.135-2.315 0-4.574-.239-6.755-.691l-7.043-9.078 10.111-9.364c1.211.134 2.439.209 3.687.209z" fill="#d7a379"/><path d="m255.993 305.475c54.882 0 99.373-44.49 99.373-99.373v-9.924-38.952c0-34.594-23.175-97.436-99.37-97.436s-99.37 62.843-99.37 97.436v38.952 9.924c0 54.882 44.491 99.373 99.373 99.373z" fill="#f0c69e"/><g fill="#e6ba94"><path d="m255.997 295.551h.003-.007.004c-54.88-.002-99.37-44.491-99.37-99.373v18.924c0 54.881 44.489 99.371 99.37 99.373 54.881-.002 99.37-44.491 99.37-99.373v-18.924c-.001 54.881-44.49 99.371-99.37 99.373z"/><path d="m256 314.475h-.003-.004z"/></g><ellipse cx="197.659" cy="196.098" fill="#fcf5f5" rx="40.91" ry="40.91" transform="matrix(.23 -.973 .973 .23 -38.607 343.415)"/><ellipse cx="314.341" cy="196.098" fill="#fcf5f5" rx="40.91" ry="40.91" transform="matrix(.924 -.383 .383 .924 -51.116 135.22)"/><g fill="#ecb85e"><path d="m167.846 442.591v50.71l-7.885 9-7.885-9v-50.71c0-4.363 3.522-7.885 7.885-7.885 4.352 0 7.885 3.522 7.885 7.885z"/><path d="m359.924 442.591v50.485l-7.881 9-7.889-9v-50.485c0-4.363 3.533-7.885 7.885-7.885 4.363 0 7.885 3.522 7.885 7.885z"/></g><g><g fill="#eaa949"><path d="m152.076 493.076h15.77v18.924h-15.77z"/><path d="m344.154 493.076h15.77v18.924h-15.77z"/></g></g></g><g><path d="m207.754 214.634c4.364 0 7.9-3.537 7.9-7.9v-22.321c0-4.364-3.537-7.9-7.9-7.9-4.364 0-7.9 3.537-7.9 7.9v22.321c-.001 4.363 3.536 7.9 7.9 7.9z" fill="#5e6b75"/><path d="m304.246 176.512c-4.364 0-7.9 3.537-7.9 7.9v22.321c0 4.364 3.537 7.9 7.9 7.9 4.364 0 7.9-3.537 7.9-7.9v-22.321c.001-4.363-3.536-7.9-7.9-7.9z" fill="#5e6b75"/><path d="m284.872 249.741c1.65-4.009-.262-8.596-4.27-10.247-4.01-1.65-8.597.261-10.247 4.27-.027.066-3.044 6.624-14.361 6.624s-14.334-6.558-14.361-6.624c-1.651-4.009-6.238-5.92-10.247-4.27-4.009 1.651-5.92 6.238-4.27 10.247 2.5 6.071 11.395 16.346 28.878 16.346s26.378-10.275 28.878-16.346z" fill="#dc4955"/><g fill="#d7a379"><path d="m226.183 143.115h59.634c4.364 0 7.9-3.537 7.9-7.9s-3.537-7.9-7.9-7.9h-59.634c-4.364 0-7.9 3.537-7.9 7.9s3.536 7.9 7.9 7.9z"/><path d="m239.349 113.03h33.301c4.364 0 7.9-3.537 7.9-7.9 0-4.364-3.537-7.901-7.9-7.901h-33.301c-4.364 0-7.9 3.537-7.9 7.901 0 4.363 3.537 7.9 7.9 7.9z"/></g></g><path d="m314.342 147.303c-24.221 0-44.368 17.742-48.149 40.911h-20.385c-3.782-23.168-23.928-40.911-48.148-40.911-26.906 0-48.796 21.89-48.796 48.796s21.89 48.795 48.796 48.795c24.221 0 44.367-17.742 48.148-40.91h20.385c3.782 23.168 23.929 40.91 48.149 40.91 26.906 0 48.795-21.889 48.795-48.795s-21.89-48.796-48.795-48.796zm-116.683 81.82c-18.21 0-33.026-14.815-33.026-33.025s14.815-33.026 33.026-33.026c18.21 0 33.025 14.815 33.025 33.026 0 18.21-14.815 33.025-33.025 33.025zm116.683 0c-18.21 0-33.026-14.815-33.026-33.025s14.815-33.026 33.026-33.026c18.209 0 33.025 14.815 33.025 33.026-.001 18.21-14.816 33.025-33.025 33.025z" fill="#cf8151"/></g></svg>