<svg width="78" height="78" viewBox="0 0 78 78" fill="none" xmlns="http://www.w3.org/2000/svg">
<g clip-path="url(#clip0)">
<path d="M72.3311 61.9741C69.7546 52.7294 56.816 53.7549 51.2322 51.1C45.6485 48.4452 46.5197 39.5376 45.8123 37.9878H32.1883C31.4809 39.5376 32.3533 48.4464 26.7684 51.1C21.1846 53.7549 8.24601 52.7296 5.6695 61.9741C4.24779 67.0733 4.3166 68.6314 3.92285 74.2812C3.92285 74.2812 21.6758 78.0001 38.599 78.0001C55.5221 78.0001 74.0775 74.2812 74.0775 74.2812C73.6852 68.6314 73.7528 67.0733 72.3311 61.9741Z" fill="black"/>
<path d="M44.0171 53.1356C49.6009 55.7905 62.5395 54.7652 65.116 64.0098C66.4704 68.8655 66.4731 70.5115 66.8088 75.5365C71.2544 74.8469 74.077 74.2813 74.077 74.2813C73.6847 68.6329 73.7523 67.0735 72.3303 61.9742C69.7538 52.7294 56.8152 53.7549 51.2314 51.1C45.6477 48.4452 46.519 39.5376 45.8115 37.9878H38.5987C38.5987 37.988 38.4322 50.4822 44.0171 53.1356Z" fill="black"/>
<path d="M26.7693 51.0996C26.7693 51.0996 22.6046 56.0185 18.6299 57.1924C18.6299 57.1924 26.9138 70.8027 39.0008 76.8875L26.7693 51.0996Z" fill="#515151"/>
<path d="M51.2324 51.0996C51.2324 51.0996 55.3971 56.0185 59.3718 57.1924C59.3718 57.1924 51.0879 70.8027 39.001 76.8875L51.2324 51.0996Z" fill="#515151"/>
<path d="M51.2322 51.0997C49.666 50.3551 48.6089 49.1192 47.8809 47.6919H40.9374H40.9333H37.0685H37.0644H30.1209C29.3929 49.1192 28.3358 50.3551 26.7696 51.0997C26.6733 51.145 24.591 55.3857 19.6113 57.4377C19.6113 57.4377 21.9263 61.0862 26.9084 66.6232C31.8905 72.1602 38.9993 76.8879 38.9993 76.8879C38.9993 76.8879 46.1078 72.1602 51.0902 66.6232C56.0725 61.0862 58.3875 57.4377 58.3875 57.4377C53.4108 55.3857 51.3284 51.1453 51.2322 51.0997Z" fill="#CECECE"/>
<path d="M51.2321 51.0997C49.6659 50.3551 48.6088 49.1192 47.8808 47.6919H40.9373H40.9332H40.0137C40.8134 50.073 42.063 52.2075 44.0173 53.1366C46.8911 54.5019 51.7108 54.8942 56.0655 56.2126C52.75 54.0465 51.3119 51.137 51.2321 51.0997Z" fill="#CECECE"/>
<path d="M48.8005 49.1399C45.9103 45.4788 46.3919 39.2579 45.8126 37.9863H32.1886C31.6077 39.2579 32.0894 45.4791 29.2007 49.1399C30.3567 62.1598 39.0013 76.8864 39.0013 76.8864C39.0013 76.8864 47.6224 62.2893 48.8005 49.1399Z" fill="#E8C59E"/>
<path d="M32.9424 63.9932C35.7295 71.3138 39.0009 76.8865 39.0009 76.8865C39.0009 76.8865 42.2807 71.3331 45.0705 63.9932H32.9424Z" fill="#EAE5DC"/>
<path d="M44.0176 53.1351C45.1048 53.6525 46.4716 54.0296 47.9854 54.3698C48.3611 52.6261 48.6461 50.8699 48.8016 49.1384C45.9114 45.4774 46.393 39.2565 45.8137 37.9849H38.6003C38.5991 37.9876 38.4326 50.4817 44.0176 53.1351Z" fill="#DDB58E"/>
<path d="M30.356 47.1939C32.6159 49.1428 35.2666 51.0751 38.9854 51.6339C42.7164 51.0736 45.3576 49.1014 47.6216 47.1444C45.7389 43.478 46.3211 39.1054 45.8118 37.9863H32.1878C31.6773 39.1066 32.2471 43.526 30.356 47.1939Z" fill="#CCA281"/>
<path d="M52.0856 28.4223C51.5737 31.2688 52.4134 33.802 53.9613 34.0804C55.5091 34.3588 57.1789 32.2769 57.6908 29.4304C58.2027 26.5839 57.3629 24.0507 55.8151 23.7723C54.2673 23.494 52.5975 25.5759 52.0856 28.4223Z" fill="#DDB58E"/>
<path d="M22.1434 23.7746C20.5956 24.053 19.7558 26.5861 20.2677 29.4326C20.7796 32.2791 22.4494 34.361 23.9972 34.0826C25.545 33.8043 26.3848 31.2711 25.8729 28.4246C25.361 25.5781 23.6912 23.4962 22.1434 23.7746Z" fill="#E8C59E"/>
<path d="M53.7839 11.4937L39.1138 13.7509C39.1138 13.7509 33.9155 13.9766 29.6736 16.1332C25.78 18.1137 22.8168 21.988 22.7784 23.0821C22.3986 33.8945 24.6061 48.7064 38.9816 50.8698C62.0803 47.3946 53.7839 11.4937 53.7839 11.4937Z" fill="#E8C59E"/>
<path d="M38.9814 50.87C62.0801 47.3948 53.7838 11.4937 53.7838 11.4937H50.3211C51.2694 26.4899 52.581 34.456 47.1363 43.1405C42.8227 50.022 38.9814 50.87 38.9814 50.87Z" fill="#DDB58E"/>
<path d="M53.2347 9.89453C53.2347 9.89453 45.2273 13.7441 33.2755 13.5389C22.7385 13.3587 23.1582 30.5708 23.0659 31.1805C23.0659 31.1805 25.7374 20.5375 33.0634 18.221C39.3421 16.2349 43.2742 17.9622 47.724 18.3807C52.6759 18.846 54.3276 15.0884 54.3276 15.0884L53.2347 9.89453Z" fill="#DDB58E"/>
<path d="M55.8838 34.1065C56.4744 34.1065 56.9531 33.6277 56.9531 33.0371C56.9531 32.4465 56.4744 31.9678 55.8838 31.9678C55.2932 31.9678 54.8145 32.4465 54.8145 33.0371C54.8145 33.6277 55.2932 34.1065 55.8838 34.1065Z" fill="#CC7D2E"/>
<path d="M22.1314 34.1065C22.7219 34.1065 23.2007 33.6277 23.2007 33.0371C23.2007 32.4465 22.7219 31.9678 22.1314 31.9678C21.5408 31.9678 21.062 32.4465 21.062 33.0371C21.062 33.6277 21.5408 34.1065 22.1314 34.1065Z" fill="#CC7D2E"/>
<path d="M56.0439 51.6859C54.5418 45.1709 60.3788 45.7494 57.9038 22.3027C55.3123 -2.25357 42.3611 1.35783 42.3611 1.35783C42.3611 1.35783 34.3613 -2.9859 25.6484 5.48745C17.7034 13.2137 19.2366 35.6952 19.1767 41.6186C19.106 48.4508 17.8236 47.3972 16.3568 54.8036C14.9344 61.989 17.4134 66.3745 17.4134 66.3745C16.46 54.8853 21.0248 49.6287 21.0248 49.6287C21.4544 56.4193 18.4844 64.7588 17.6028 74.3765C19.6795 74.6642 21.9443 74.944 24.3252 75.1891C25.8926 69.4719 28.5779 63.3051 30.1544 57.1368C32.6973 47.1872 26.803 44.4631 28.0737 30.2488C29.3443 16.0344 41.7785 13.8939 41.7785 13.8939C46.7026 17.5977 50.4301 22.3496 50.6104 30.7225C50.9827 48.0505 45.2202 51.8507 44.857 56.5291C44.426 62.0843 47.2419 61.1472 47.7043 72.5172C47.7473 73.5853 47.7018 74.6361 47.5816 75.6642C50.8626 75.4406 54.0587 75.1222 57.0064 74.7687C59.1026 65.3797 56.9947 55.8089 56.0439 51.6859Z" fill="#393C3D"/>
</g>
<defs>
<clipPath id="clip0">
<rect width="78" height="78" fill="white"/>
</clipPath>
</defs>
</svg>
