<svg width="80" height="80" viewBox="0 0 80 80" fill="none" xmlns="http://www.w3.org/2000/svg">
<path d="M78.0073 63.979C75.068 54.7371 60.3149 55.7623 53.9471 53.1082C47.5795 50.4542 48.5735 41.5493 47.7661 40H32.2323C31.4262 41.5493 32.4205 50.4554 26.0514 53.1082C19.6838 55.7623 4.92913 54.7373 1.99116 63.979C0.370343 69.0766 0.447312 70.6357 0 76.2823C0 76.2823 20.2437 80 39.5421 80C58.8406 80 80 76.2823 80 76.2823C79.5511 70.6342 79.6281 69.0768 78.0073 63.979Z" fill="#DBB491"/>
<path d="M78.0096 63.6306C75.0703 54.1888 60.3178 55.2355 53.9484 52.5239C53.06 52.1454 52.3349 51.6276 51.7075 51.0381L40.0412 63.1141L28.3392 51C27.703 51.6064 26.9614 52.1356 26.0524 52.5227C19.6846 55.2342 4.93071 54.1873 1.99149 63.6306C0.3707 68.8385 0.447742 70.4312 0 76.2006C0 76.2006 20.2439 80 39.5417 80C58.8395 80 80 76.2006 80 76.2006C79.5517 70.4315 79.6303 68.8385 78.0096 63.6306Z" fill="#2F2D2D"/>
<path d="M52 51.0826C47.8772 47.6963 48.5463 41.2671 47.8044 40H39.0006C39.0006 40 38.7978 51.8823 45.6129 54.4071C46.2186 54.6309 46.9149 54.8221 47.6472 55L51.9633 51.1126C51.9746 51.1035 51.9887 51.093 52 51.0826Z" fill="#CCA483"/>
<path d="M69.9007 65.4273C71.4266 70.3024 71.4295 71.955 71.8088 77C76.8196 76.3077 80 75.7398 80 75.7398C79.5579 70.0688 79.634 68.5033 78.032 63.3835C75.127 54.1018 60.5458 55.1315 54.2522 52.466C53.3677 52.0916 52.6414 51.5844 52.0193 51C52.0091 51.0111 51.9958 51.0221 51.9857 51.0332L48 55.1371C54.9332 57.0672 67.2547 56.9706 69.9007 65.4273Z" fill="#2F2D2D"/>
<path d="M30 49.4454C32.6185 51.4446 35.6869 53.4268 39.9971 54C44.3177 53.4253 47.3785 51.4022 50 49.3946C47.8195 45.6335 48.4937 41.148 47.9036 40H32.1235C31.5304 41.1492 32.1912 45.6827 30 49.4454Z" fill="#C69E7F"/>
<path d="M55.1833 29.8C54.6322 32.6822 55.5362 35.2471 57.2022 35.529C58.8683 35.8108 60.6656 33.7028 61.2166 30.8207C61.7677 27.9385 60.8637 25.3736 59.1977 25.0917C57.5316 24.8099 55.7343 26.9178 55.1833 29.8Z" fill="#CCA483"/>
<path d="M20.7608 25.0951C19.0947 25.3769 18.1908 27.9419 18.7418 30.824C19.2929 33.7062 21.0902 35.8142 22.7563 35.5323C24.4223 35.2505 25.3263 32.6855 24.7752 29.8033C24.2242 26.9212 22.4269 24.8132 20.7608 25.0951Z" fill="#DBB491"/>
<path d="M56.3938 12H39.9957H23.6064C23.6064 12 14.417 49.3815 39.9957 53C65.5847 49.3815 56.3938 12 56.3938 12Z" fill="#DBB491"/>
<path d="M39 53C66.0041 49.3815 56.3049 12 56.3049 12H52.2566C53.3651 27.6146 54.8994 35.9091 48.534 44.9518C43.4905 52.1173 39 53 39 53Z" fill="#CCA483"/>
<path d="M56 35.9998L55.2536 20.6071C55.1101 17.6386 52.4453 15.5689 49.3472 16.0767C47.3658 16.4013 45.5085 16.8837 43.9781 17.3537C41.3699 18.1536 38.5719 18.1521 35.9637 17.3537C34.4379 16.8853 32.5864 16.4041 30.6111 16.0797C27.6071 15.586 24.836 17.7432 24.7047 20.6214L24 36L25.7497 20.6638C25.8422 18.6406 27.6384 16.9954 29.751 16.9954C29.9749 16.9954 30.2034 17.0138 30.4334 17.0519C32.0952 17.3255 33.8479 17.7417 35.6425 18.2922C37.0459 18.7224 38.5031 18.9398 39.9737 18.9398C41.4443 18.9398 42.8999 18.7224 44.302 18.2922C46.1056 17.7405 47.8644 17.3215 49.5262 17.0507C49.7815 17.0082 50.0338 16.9887 50.2801 16.9887C52.454 16.9887 54.1068 18.5294 54.2112 20.6528L56 35.9998Z" fill="#CCA483"/>
<path d="M48 44H32V42.5524C32 41.696 32.7424 41 33.6559 41H46.3424C47.2576 41 48 41.696 48 42.5524V44Z" fill="#393C3D"/>
<path d="M47.5217 1.40918C47.5217 1.40918 42.5344 -0.990039 35.8291 0.472636C30.8094 1.5681 22.6406 5.05738 20.8024 12.5312C20.8024 12.5312 18.0521 24.7415 22.7352 29.9997C22.7352 29.9997 22.5048 25.2301 22.9757 21.4333C22.9757 21.4333 28.721 22.8715 35.3131 22.8859C42.3211 22.9003 51.6649 21.7239 57.188 16.272C57.188 16.272 58.0167 21.458 58.0167 30C58.0167 30 59.5086 27.6571 59.8253 24.5466C60.5436 17.4904 59.134 7.58543 53.9656 7.91073C53.9641 7.90893 51.7751 3.46896 47.5217 1.40918Z" fill="#565757"/>
</svg>
