<svg id="Capa_1" enable-background="new 0 0 512 512" height="80" viewBox="0 0 512 512" width="80" xmlns="http://www.w3.org/2000/svg"><g><g><path d="m431.767 504.5v-83.284c0-48.931-32.008-92.103-78.827-106.323l-57.545-17.477h-78.793l-57.545 17.477c-46.82 14.219-78.827 57.392-78.827 106.323v83.284z" fill="#b78e8e"/></g><g><path d="m370.061 321.688c.239 3.969.375 7.965.375 11.993 0 73.141-39.939 136.949-99.194 170.818h160.526v-83.284c-.001-42.701-24.382-81.013-61.707-99.527z" fill="#aa8080"/></g><g><path d="m255.999 367.118 26.9 21.465c12.035 9.603 29.96 2.753 32.522-12.43l11.665-69.111-31.691-9.625z" fill="#f9efda"/></g><g><path d="m255.999 367.118-26.9 21.465c-12.035 9.603-29.96 2.753-32.522-12.43l-11.665-69.111 31.691-9.625z" fill="#f9efda"/></g><g><path d="m295.395 297.417v-40.407h-78.792v40.407l39.396 69.701z" fill="#ffddce"/></g><g><path d="m216.603 281.764c12.274 4.574 25.548 7.081 39.396 7.081s27.122-2.506 39.396-7.081v-24.754h-78.793v24.754z" fill="#ffcbbe"/></g><g><path d="m255.999 7.5c-50.211 0-90.915 40.704-90.915 90.915v77.292c0 50.211 40.704 90.915 90.915 90.915s90.915-40.704 90.915-90.915v-77.292c-.001-50.211-40.704-90.915-90.915-90.915z" fill="#ffddce"/></g><g><path d="m309.713 25.064c10.789 14.948 17.151 33.304 17.151 53.147v117.699c0 19.844-6.362 38.199-17.151 53.147 22.554-16.544 37.201-43.235 37.201-73.35v-77.292c-.001-30.116-14.647-56.806-37.201-73.351z" fill="#ffcbbe"/></g><g><path d="m223.674 224.649c0-17.853 14.472-32.325 32.325-32.325s32.325 14.472 32.325 32.325z" fill="#e7ecf6"/></g><g><path d="m318.629 120.638 8.081 54.549h20.203v-34.836h19.193v-42.947c0-2.295-.071-4.573-.21-6.833-.657-10.67-9.484-18.998-20.175-18.998h-7.286c-10.939 0-19.806 8.868-19.806 19.806z" fill="#e7ecf6"/></g><g><path d="m365.897 90.571c-.657-10.67-9.484-18.998-20.175-18.998h-7.286c-2.068 0-4.062.319-5.936.907 7.838 2.425 13.675 9.494 14.204 18.091.139 2.26.21 4.538.21 6.833v42.947h19.193v-42.947c0-2.295-.071-4.573-.21-6.833z" fill="#d8e2f1"/></g><g><path d="m363.076 175.187h-16.163v-54.549h16.163c11.158 0 20.203 9.045 20.203 20.203v14.142c0 11.159-9.045 20.204-20.203 20.204z" fill="#ffddce"/></g><g><path d="m194.092 120.638-8.081 54.549h-20.203v-34.836h-19.193v-42.947c0-2.295.071-4.573.21-6.833.657-10.67 9.484-18.998 20.175-18.998h7.286c10.939 0 19.806 8.868 19.806 19.806z" fill="#e7ecf6"/></g><g><path d="m148.922 175.187h16.163v-54.549h-16.163c-11.158 0-20.203 9.045-20.203 20.203v14.142c-.001 11.159 9.045 20.204 20.203 20.204z" fill="#ffddce"/></g><g><path d="m431.77 447.5c4.143 0 7.5-3.357 7.5-7.5v-18.78c0-25.632-8.068-50.062-23.333-70.651-15.264-20.587-36.294-35.406-60.818-42.855l-52.224-15.856v-29.647c28.732-15.639 48.847-45.179 51.264-79.524h8.916c15.276 0 27.704-12.428 27.704-27.703v-14.142c0-11.549-7.106-21.465-17.173-25.618v-17.82c0-2.416-.075-4.87-.225-7.294-.846-13.743-11.661-24.679-25.112-25.917-6.542-17.583-18.207-33.267-33.296-44.576-17.121-12.834-37.515-19.617-58.973-19.617s-41.852 6.783-58.976 19.617c-15.113 11.327-26.795 27.044-33.336 44.662-13.095 1.574-23.52 12.35-24.351 25.833-.148 2.422-.224 4.876-.224 7.292v17.534c-10.448 3.969-17.896 14.081-17.896 25.904v14.142c0 15.275 12.428 27.703 27.703 27.703h8.909c2.418 34.346 22.536 63.887 51.272 79.526v29.646l-52.222 15.855c-24.523 7.449-45.554 22.269-60.817 42.855-15.265 20.589-23.333 45.02-23.333 70.651v18.78c0 4.143 3.357 7.5 7.5 7.5s7.5-3.357 7.5-7.5v-18.78c0-45.952 29.541-85.799 73.509-99.153l17.696-5.373 10.246 60.706c1.65 9.777 8.165 17.728 17.427 21.268 3.261 1.246 6.631 1.857 9.969 1.857 6.146 0 12.178-2.073 17.2-6.081l14.723-11.747v114.303h-86.521v-45.028c0-4.143-3.357-7.5-7.5-7.5s-7.5 3.357-7.5 7.5v45.028h-59.248v-21.8c0-4.143-3.357-7.5-7.5-7.5s-7.5 3.357-7.5 7.5v29.3c0 4.143 3.357 7.5 7.5 7.5h351.54c4.143 0 7.5-3.357 7.5-7.5v-29.3c0-4.143-3.357-7.5-7.5-7.5s-7.5 3.357-7.5 7.5v21.8h-59.25v-45.028c0-4.143-3.357-7.5-7.5-7.5s-7.5 3.357-7.5 7.5v45.028h-86.521v-114.303l14.723 11.747c5.022 4.008 11.056 6.081 17.2 6.081 3.338 0 6.709-.611 9.969-1.857 9.262-3.54 15.776-11.49 17.427-21.268l10.247-60.707 17.697 5.373c43.969 13.354 73.51 53.201 73.51 99.153v18.781c-.002 4.143 3.355 7.5 7.498 7.5zm-55.99-292.517c0 7.005-5.699 12.703-12.704 12.703h-8.662v-39.548h8.662c7.005 0 12.704 5.698 12.704 12.703zm-17.369-63.953c.131 2.118.196 4.263.196 6.374v15.734h-11.693c-4.143 0-7.5 3.357-7.5 7.5v47.048h-6.232l-7.052-47.601v-28.705c0-6.786 5.521-12.307 12.306-12.307h7.287c6.701 0 12.276 5.253 12.688 11.957zm-204.102.002c.413-6.706 5.987-11.959 12.689-11.959h7.287c6.785 0 12.306 5.521 12.306 12.307v28.706l-7.052 47.601h-6.955v-47.048c0-4.143-3.357-7.5-7.5-7.5h-10.971v-15.735c.001-2.111.066-4.256.196-6.372zm-18.091 63.951v-14.142c0-7.005 5.698-12.703 12.703-12.703h8.663v39.548h-8.663c-7.004.001-12.703-5.698-12.703-12.703zm36.676 27.704h13.117c3.718 0 6.874-2.724 7.419-6.401l8.081-54.548c.054-.363.081-.73.081-1.099v-29.259c0-13.203-9.419-24.246-21.891-26.765 13.214-30.035 42.765-49.615 76.299-49.615 33.593 0 63.181 19.646 76.355 49.764-12.138 2.772-21.225 13.649-21.225 26.616v29.259c0 .368.027.735.081 1.099l8.081 54.548c.545 3.678 3.701 6.401 7.419 6.401h12.385c-3.559 42.737-39.456 76.433-83.096 76.433-43.647 0-79.547-33.696-83.106-76.433zm83.106 91.433c11.159 0 21.888-1.871 31.896-5.308v26.633l-31.896 56.432-31.896-56.432v-26.632c10.006 3.437 20.736 5.307 31.896 5.307zm-31.58 108.6c-3.556 2.836-8.213 3.561-12.458 1.937-4.247-1.623-7.234-5.269-7.991-9.752l-10.566-62.605 19.626-5.959 33.292 58.902zm83.606-7.816c-.757 4.483-3.744 8.129-7.99 9.752-4.249 1.624-8.905.899-12.459-1.937l-21.903-17.477 33.293-58.902 19.626 5.959z"/><path d="m295.824 224.648c0-21.96-17.865-39.825-39.825-39.825s-39.825 17.865-39.825 39.825c0 4.143 3.357 7.5 7.5 7.5h64.65c4.142 0 7.5-3.357 7.5-7.5zm-63.493-7.5c3.187-10.035 12.592-17.325 23.668-17.325s20.481 7.29 23.668 17.325z"/><path d="m285.726 444.472c-4.143 0-7.5 3.357-7.5 7.5s3.357 7.5 7.5 7.5h39.686c4.143 0 7.5-3.357 7.5-7.5s-3.357-7.5-7.5-7.5z"/></g></g></svg>