<svg id="fi_2978716" enable-background="new 0 0 512 512" height="25" viewBox="0 0 512 512" width="25" xmlns="http://www.w3.org/2000/svg"><g><path d="m323.5 102.193c0 122.259-70.739 125.307-158 125.307s-158-3.048-158-125.307c0-64.936 70.739-94.693 158-94.693s158 29.757 158 94.693z" fill="#f75632"></path><path d="m165.5 7.5c-4.46 0-8.874.082-13.24.238 81.064 2.9 144.76 32.838 144.76 94.455 0 116.011-63.696 124.683-144.76 125.266 4.366.031 8.78.041 13.24.041 87.261 0 158-3.048 158-125.307 0-64.936-70.739-94.693-158-94.693z" fill="#e33629"></path><ellipse cx="165.5" cy="68.88" fill="#e33629" rx="75.704" ry="23.991"></ellipse><path d="m165.5 44.888c-4.519 0-8.939.133-13.24.373 35.494 1.985 62.464 11.8 62.464 23.618s-26.97 21.633-62.464 23.618c4.302.241 8.721.373 13.24.373 41.81 0 75.704-10.741 75.704-23.991 0-13.249-33.894-23.991-75.704-23.991z" fill="#c72e24"></path><path d="m491.925 290.35c43.288 130.913-31.701 159.367-125.535 190.441s-170.982 53.001-214.27-77.912c-22.992-69.532 42.54-126.586 136.375-157.66s180.438-24.401 203.43 45.131z" fill="#f75632"></path><path d="m288.495 245.219c-4.796 1.588-9.513 3.248-14.153 4.97 88.198-25.762 167.292-16.388 189.108 49.591 41.076 124.222-24.348 156.191-111.312 185.683 4.706-1.521 9.456-3.083 14.252-4.671 93.835-31.074 168.823-59.528 125.535-190.441-22.992-69.533-109.596-76.206-203.43-45.132z" fill="#e33629"></path><ellipse cx="310.227" cy="310.943" fill="#e33629" rx="85.755" ry="27.057" transform="matrix(.949 -.314 .314 .949 -82.033 113.31)"></ellipse><path d="m301.733 285.254c-4.86 1.609-9.565 3.325-14.105 5.115 38.871-10.514 71.348-9.608 75.532 3.046s-21.343 32.768-58.807 47.534c4.711-1.274 9.51-2.706 14.37-4.315 44.96-14.889 77.604-38.46 72.913-52.648-4.693-14.189-44.943-13.621-89.903 1.268z" fill="#c72e24"></path><g><path d="m280.93 217.23c34.189-19.182 50.113-55.737 50.113-115.039 0-33.349-17.359-60.419-50.199-78.284-28.751-15.64-68.629-23.907-115.323-23.907-43.56 0-81.488 7.263-109.684 21.003-3.724 1.814-5.271 6.304-3.456 10.028 1.814 3.724 6.305 5.269 10.029 3.455 26.161-12.748 61.816-19.486 103.111-19.486 44.197 0 81.595 7.636 108.153 22.083 28.113 15.293 42.367 37.198 42.367 65.108 0 53.31-13.49 85.708-42.453 101.958-26.165 14.68-62.84 15.847-108.067 15.847s-81.902-1.167-108.067-15.847c-28.963-16.25-42.453-48.647-42.453-101.958 0-20.299 7.641-37.569 22.711-51.329 3.059-2.793 3.274-7.537.481-10.595-2.794-3.059-7.538-3.273-10.597-.48-18.311 16.719-27.596 37.715-27.596 62.404 0 59.302 15.924 95.857 50.113 115.039 29.332 16.457 67.959 17.765 115.408 17.765s86.076-1.308 115.409-17.765z"></path><path d="m248.737 68.878c0-21.636-43.136-31.491-83.215-31.491s-83.215 9.854-83.215 31.491 43.136 31.491 83.215 31.491 83.215-9.855 83.215-31.491zm-151.429 0c0-.731 2.945-5.38 16.941-9.815 13.588-4.305 31.796-6.676 51.272-6.676s37.685 2.371 51.272 6.676c13.996 4.435 16.941 9.083 16.941 9.815s-2.945 5.38-16.941 9.815c-13.588 4.305-31.796 6.676-51.272 6.676s-37.685-2.371-51.272-6.676c-13.996-4.435-16.941-9.084-16.941-9.815z"></path><path d="m499.11 287.99c-11.694-35.363-39.691-57.95-80.962-65.32-36.288-6.479-81.926-1.146-131.975 15.425s-89.856 39.528-115.118 66.389c-28.728 30.546-37.732 65.382-26.038 100.742 20.882 63.144 50.719 96.416 93.898 104.71 7.37 1.416 14.919 2.065 22.696 2.065 31.403 0 66.402-10.596 107.183-24.099 43.161-14.291 78.23-26.861 104.062-47.471 3.238-2.583 3.769-7.302 1.185-10.54-2.583-3.238-7.303-3.768-10.541-1.185-23.891 19.061-57.703 31.142-99.422 44.956-48.777 16.151-88.76 27.991-122.333 21.543-37.278-7.161-63.489-37.249-82.485-94.688-10-30.239-2.355-59.093 22.724-85.758 23.558-25.049 61.217-46.635 108.905-62.425 47.688-15.789 90.781-20.94 124.621-14.898 36.022 6.433 59.356 25.026 69.356 55.263 16.566 50.093 16.169 87.462-1.215 114.242-2.256 3.474-1.267 8.119 2.208 10.374s8.12 1.268 10.375-2.208c20.024-30.845 20.964-72.425 2.876-127.117z"></path><path d="m369.455 303.958c-13.169 9.508-32.009 18.581-53.05 25.547-11.225 3.717-22.295 6.578-32.903 8.505-4.076.741-6.78 4.644-6.04 8.72s4.647 6.775 8.721 6.039c11.295-2.052 23.05-5.088 34.938-9.024 22.455-7.435 42.738-17.246 57.116-27.625 21.336-15.404 22.963-27.261 20.57-34.495-2.392-7.237-10.774-15.772-37.081-15.414-17.727.25-39.857 4.483-62.312 11.918s-42.738 17.246-57.116 27.625c-21.336 15.403-22.963 27.261-20.57 34.496 3.89 11.761 19.066 14.832 31.113 15.337.107.004.213.006.319.006 3.998 0 7.32-3.155 7.489-7.186.173-4.139-3.041-7.634-7.181-7.807-13.098-.548-17.121-3.921-17.498-5.059-.465-1.407 1.312-7.665 15.109-17.626 13.169-9.508 32.01-18.581 53.05-25.547 21.04-6.967 41.57-10.929 57.807-11.159 16.997-.232 22.161 3.719 22.626 5.124.467 1.407-1.31 7.665-15.107 17.625z"></path></g></g></svg>