<svg width="25" height="25" viewBox="0 0 25 25" fill="none" xmlns="http://www.w3.org/2000/svg">
<g clip-path="url(#clip0)">
<path d="M15.2843 7.31904H9.71602C9.2812 7.31904 8.92871 6.96655 8.92871 6.53174V4.18281C8.92871 3.748 9.2812 3.39551 9.71602 3.39551H15.2843C15.7191 3.39551 16.0716 3.748 16.0716 4.18281V6.53179C16.0716 6.9666 15.7191 7.31904 15.2843 7.31904Z" fill="#EB866C"/>
<path d="M15.2843 7.31904H9.71602C9.2812 7.31904 8.92871 6.96655 8.92871 6.53174V4.18281C8.92871 3.748 9.2812 3.39551 9.71602 3.39551H15.2843C15.7191 3.39551 16.0716 3.748 16.0716 4.18281V6.53179C16.0716 6.9666 15.7191 7.31904 15.2843 7.31904Z" fill="#FDD9B1"/>
<path d="M15.3201 3.39551H13.811C14.2259 3.39551 14.5622 3.76494 14.5622 4.2207V6.49385C14.5622 6.94961 14.2259 7.31904 13.811 7.31904H15.3201C15.7349 7.31904 16.0712 6.94961 16.0712 6.49385V4.2207C16.0712 3.76499 15.7349 3.39551 15.3201 3.39551Z" fill="#F2CA9C"/>
<path d="M15.2843 14.4617H9.71602C9.2812 14.4617 8.92871 14.1092 8.92871 13.6744V11.3254C8.92871 10.8906 9.2812 10.5381 9.71602 10.5381H15.2843C15.7191 10.5381 16.0716 10.8906 16.0716 11.3254V13.6744C16.0716 14.1092 15.7191 14.4617 15.2843 14.4617Z" fill="#EB866C"/>
<path d="M15.2843 14.4617H9.71602C9.2812 14.4617 8.92871 14.1092 8.92871 13.6744V11.3254C8.92871 10.8906 9.2812 10.5381 9.71602 10.5381H15.2843C15.7191 10.5381 16.0716 10.8906 16.0716 11.3254V13.6744C16.0716 14.1092 15.7191 14.4617 15.2843 14.4617Z" fill="#FDD9B1"/>
<path d="M15.3201 10.5386H13.811C14.2259 10.5386 14.5622 10.908 14.5622 11.3638V13.6369C14.5622 14.0927 14.2259 14.4621 13.811 14.4621H15.3201C15.7349 14.4621 16.0712 14.0927 16.0712 13.6369V11.3638C16.0712 10.908 15.7349 10.5386 15.3201 10.5386Z" fill="#F2CA9C"/>
<path d="M15.2843 21.6047H9.71602C9.2812 21.6047 8.92871 21.2522 8.92871 20.8174V18.4685C8.92871 18.0336 9.2812 17.6812 9.71602 17.6812H15.2843C15.7191 17.6812 16.0716 18.0336 16.0716 18.4685V20.8174C16.0716 21.2522 15.7191 21.6047 15.2843 21.6047Z" fill="#EB866C"/>
<path d="M15.2843 21.6047H9.71602C9.2812 21.6047 8.92871 21.2522 8.92871 20.8174V18.4685C8.92871 18.0336 9.2812 17.6812 9.71602 17.6812H15.2843C15.7191 17.6812 16.0716 18.0336 16.0716 18.4685V20.8174C16.0716 21.2522 15.7191 21.6047 15.2843 21.6047Z" fill="#FDD9B1"/>
<path d="M15.3201 17.6812H13.811C14.2259 17.6812 14.5622 18.0506 14.5622 18.5063V20.7795C14.5622 21.2353 14.2259 21.6047 13.811 21.6047H15.3201C15.7349 21.6047 16.0712 21.2353 16.0712 20.7795V18.5063C16.0712 18.0506 15.7349 17.6812 15.3201 17.6812Z" fill="#F2CA9C"/>
<path d="M15.3205 3.57144H9.67984C9.26499 3.57144 8.92871 3.23516 8.92871 2.82031V0.751123C8.92871 0.336279 9.26499 0 9.67984 0H15.3205C15.7353 0 16.0716 0.336279 16.0716 0.751123V2.82031C16.0716 3.23516 15.7353 3.57144 15.3205 3.57144Z" fill="#EB866C"/>
<path d="M15.3205 3.57144H9.67984C9.26499 3.57144 8.92871 3.23516 8.92871 2.82031V0.751123C8.92871 0.336279 9.26499 0 9.67984 0H15.3205C15.7353 0 16.0716 0.336279 16.0716 0.751123V2.82031C16.0716 3.23516 15.7353 3.57144 15.3205 3.57144Z" fill="#FFE4C4"/>
<path d="M15.3201 0H13.811C14.2259 0 14.5622 0.336279 14.5622 0.751123V2.82031C14.5622 3.23516 14.2259 3.57144 13.811 3.57144H15.3201C15.7349 3.57144 16.0712 3.23516 16.0712 2.82031V0.751123C16.0712 0.336279 15.7349 0 15.3201 0V0Z" fill="#FDD9B1"/>
<path d="M15.3205 10.7145H9.67984C9.26499 10.7145 8.92871 10.3782 8.92871 9.96338V7.89419C8.92871 7.47935 9.26499 7.14307 9.67984 7.14307H15.3205C15.7353 7.14307 16.0716 7.47935 16.0716 7.89419V9.96338C16.0716 10.3782 15.7353 10.7145 15.3205 10.7145Z" fill="#EB866C"/>
<path d="M15.3205 10.7145H9.67984C9.26499 10.7145 8.92871 10.3782 8.92871 9.96338V7.89419C8.92871 7.47935 9.26499 7.14307 9.67984 7.14307H15.3205C15.7353 7.14307 16.0716 7.47935 16.0716 7.89419V9.96338C16.0716 10.3782 15.7353 10.7145 15.3205 10.7145Z" fill="#FFE4C4"/>
<path d="M15.3201 7.14307H13.811C14.2259 7.14307 14.5622 7.47935 14.5622 7.89419V9.96333C14.5622 10.3782 14.2259 10.7144 13.811 10.7144H15.3201C15.7349 10.7144 16.0712 10.3782 16.0712 9.96333V7.89419C16.0712 7.47935 15.7349 7.14307 15.3201 7.14307Z" fill="#FDD9B1"/>
<path d="M15.3205 17.8571H9.67984C9.26499 17.8571 8.92871 17.5208 8.92871 17.106V15.0368C8.92871 14.6219 9.26499 14.2856 9.67984 14.2856H15.3205C15.7353 14.2856 16.0716 14.6219 16.0716 15.0368V17.106C16.0716 17.5208 15.7353 17.8571 15.3205 17.8571Z" fill="#EB866C"/>
<path d="M15.3205 17.8571H9.67984C9.26499 17.8571 8.92871 17.5208 8.92871 17.106V15.0368C8.92871 14.6219 9.26499 14.2856 9.67984 14.2856H15.3205C15.7353 14.2856 16.0716 14.6219 16.0716 15.0368V17.106C16.0716 17.5208 15.7353 17.8571 15.3205 17.8571Z" fill="#FFE4C4"/>
<path d="M15.3201 14.2856H13.811C14.2259 14.2856 14.5622 14.6219 14.5622 15.0368V17.1059C14.5622 17.5207 14.2259 17.857 13.811 17.857H15.3201C15.7349 17.857 16.0712 17.5207 16.0712 17.1059V15.0368C16.0712 14.622 15.7349 14.2856 15.3201 14.2856Z" fill="#FDD9B1"/>
<path d="M15.3205 25.0001H9.67984C9.26499 25.0001 8.92871 24.6639 8.92871 24.249V22.1798C8.92871 21.765 9.26499 21.4287 9.67984 21.4287H15.3205C15.7353 21.4287 16.0716 21.765 16.0716 22.1798V24.249C16.0716 24.6639 15.7353 25.0001 15.3205 25.0001Z" fill="#EB866C"/>
<path d="M15.3205 25.0001H9.67984C9.26499 25.0001 8.92871 24.6639 8.92871 24.249V22.1798C8.92871 21.765 9.26499 21.4287 9.67984 21.4287H15.3205C15.7353 21.4287 16.0716 21.765 16.0716 22.1798V24.249C16.0716 24.6639 15.7353 25.0001 15.3205 25.0001Z" fill="#FFE4C4"/>
<path d="M15.3201 21.4287H13.811C14.2259 21.4287 14.5622 21.765 14.5622 22.1798V24.249C14.5622 24.6638 14.2259 25.0001 13.811 25.0001H15.3201C15.7349 25.0001 16.0712 24.6638 16.0712 24.249V22.1798C16.0712 21.765 15.7349 21.4287 15.3201 21.4287Z" fill="#FDD9B1"/>
<path d="M22.8889 6.41587C22.2222 7.89385 20.5895 11.954 19.5818 14.6057C18.5741 17.2574 15.1461 17.0328 14.012 15.6334C13.1678 14.5912 11.8325 14.5912 10.9878 15.6334C9.85416 17.0328 6.42619 17.2574 5.41798 14.6057C4.41027 11.954 2.77804 7.8938 2.1109 6.41587C1.44425 4.93789 2.01261 2.66992 4.64752 2.66992C7.28195 2.66992 8.4587 4.52515 8.84796 5.11753C9.23668 5.7104 15.7636 5.7104 16.1524 5.11753C16.5411 4.52515 17.7179 2.66992 20.3528 2.66992C22.9872 2.66992 23.556 4.93789 22.8889 6.41587Z" fill="#FA6F5F"/>
<path d="M20.3529 2.66992C20.0701 2.66992 19.805 2.69238 19.555 2.7313C21.5795 3.10239 21.9853 5.08115 21.3828 6.41587C20.7161 7.89385 19.0834 11.954 18.0757 14.6057C17.6328 15.7711 16.7224 16.3808 15.7446 16.5795C17.1695 16.8607 18.9114 16.3701 19.582 14.6057C20.5897 11.954 22.2224 7.89385 22.8891 6.41587C23.5562 4.93789 22.9874 2.66992 20.3529 2.66992Z" fill="#EB5E4E"/>
<path d="M8.76686 8.60606C8.68786 8.41992 8.47292 8.33306 8.28669 8.41206C7.76574 8.63306 7.16184 8.38931 6.94069 7.86821C6.86164 7.68203 6.6467 7.59522 6.46052 7.67422C6.27434 7.75322 6.18747 7.96821 6.26653 8.1544C6.64426 9.04424 7.67756 9.46636 8.57292 9.08618C8.759 9.00723 8.84592 8.79219 8.76686 8.60606Z" fill="#EB5E4E"/>
<path d="M10.2859 11.7245C9.84929 12.0868 9.2028 12.0266 8.84045 11.5899C8.7113 11.4342 8.48039 11.4128 8.32477 11.5419C8.16911 11.6711 8.14762 11.9019 8.27677 12.0576C8.89689 12.8051 10.0053 12.9089 10.7536 12.2882C10.9092 12.159 10.9307 11.9282 10.8016 11.7725C10.6725 11.6169 10.4416 11.5955 10.2859 11.7245Z" fill="#EB5E4E"/>
<path d="M18.5397 7.67469C18.3537 7.59573 18.1385 7.6825 18.0595 7.86868C17.8384 8.38973 17.2344 8.63362 16.7135 8.41253C16.5273 8.33348 16.3123 8.42034 16.2333 8.60652C16.1543 8.7927 16.2411 9.00769 16.4273 9.0867C17.3235 9.46712 18.3562 9.04432 18.7337 8.15491C18.8128 7.96868 18.7259 7.75369 18.5397 7.67469Z" fill="#EB5E4E"/>
<path d="M16.6756 11.5419C16.5199 11.4128 16.289 11.4343 16.1599 11.5899C15.7978 12.0264 15.1511 12.0868 14.7144 11.7244C14.5587 11.5953 14.3278 11.6168 14.1986 11.7724C14.0695 11.9281 14.091 12.159 14.2466 12.2882C14.998 12.9114 16.1081 12.7993 16.7235 12.0575C16.8527 11.9019 16.8312 11.671 16.6756 11.5419Z" fill="#EB5E4E"/>
<path d="M13.2291 8.62365C12.8235 9.01862 12.1724 9.01008 11.7774 8.60475C11.6363 8.45988 11.4044 8.457 11.2596 8.59797C11.1147 8.73913 11.1117 8.97097 11.2528 9.11579C11.9312 9.81198 13.0471 9.82355 13.7401 9.14821C13.885 9.00705 13.888 8.77521 13.7469 8.63039C13.6058 8.48561 13.3739 8.48268 13.2291 8.62365Z" fill="#EB5E4E"/>
</g>
<defs>
<clipPath id="clip0">
<rect width="25" height="25" fill="white"/>
</clipPath>
</defs>
</svg>
