<svg width="25" height="25" viewBox="0 0 25 25" fill="none" xmlns="http://www.w3.org/2000/svg">
<path d="M25 12.5C25 19.4036 19.4036 25 12.5 25C5.59635 25 0 19.4036 0 12.5C0 5.59635 5.59635 0 12.5 0C19.4036 0 25 5.59635 25 12.5Z" fill="#4BBC56"/>
<path d="M25.0001 12.4999C25.0001 12.1161 24.9818 11.7366 24.948 11.3616L17.5208 3.93457L7.47935 6.42995L14.5383 13.4891L6.78564 20.5733L11.138 24.9257C11.5855 24.9743 12.0398 24.9999 12.5001 24.9999C19.4037 24.9999 25.0001 19.4035 25.0001 12.4999Z" fill="#3F9E46"/>
<path d="M16.7936 21.2415H8.20631C7.1874 21.2415 6.36133 20.4156 6.36133 19.3967V8.27515C6.36133 7.25625 7.1874 6.43018 8.20631 6.43018H16.7936C17.8127 6.43018 18.6385 7.25625 18.6385 8.27515V19.3967C18.6385 20.4156 17.8125 21.2415 16.7936 21.2415Z" fill="white"/>
<path d="M16.7934 6.43018H12.48V21.2415H16.7934C17.8124 21.2415 18.6384 20.4156 18.6384 19.3967V8.27515C18.6384 7.25625 17.8124 6.43018 16.7934 6.43018Z" fill="#E9EDF5"/>
<path d="M7.47949 3.93457H17.5209V6.42995H7.47949V3.93457Z" fill="#FFD400"/>
<path d="M12.48 3.93457H17.5205V6.42995H12.48V3.93457Z" fill="#FFA300"/>
<path d="M6.36133 10.0469H18.6385V16.7047H6.36133V10.0469Z" fill="#FF583E"/>
<path d="M12.48 10.0469H18.6384V16.7047H12.48V10.0469Z" fill="#F92814"/>
<path d="M7.68945 11.5322H9.6874C10.0204 11.5322 10.276 11.6146 10.4543 11.7796C10.6325 11.9446 10.7218 12.1487 10.7218 12.3923C10.7218 12.5963 10.6581 12.7714 10.5308 12.9175C10.4461 13.015 10.322 13.0919 10.1587 13.1485C10.4069 13.2082 10.5894 13.3106 10.7063 13.456C10.8234 13.6013 10.882 13.7839 10.882 14.0038C10.882 14.1827 10.8402 14.3438 10.757 14.4867C10.6737 14.6296 10.56 14.7427 10.4154 14.8258C10.326 14.8777 10.1908 14.9155 10.0101 14.9389C9.76999 14.9704 9.61034 14.9861 9.53195 14.9861H7.68964V11.5322H7.68945ZM8.76615 12.887H9.23021C9.39672 12.887 9.51269 12.8582 9.57773 12.801C9.64296 12.7436 9.67558 12.6608 9.67558 12.5523C9.67558 12.452 9.64296 12.3734 9.57773 12.3167C9.51269 12.2603 9.39901 12.232 9.23727 12.232H8.76615V12.887ZM8.76615 14.2439H9.31032C9.49419 14.2439 9.6237 14.2115 9.69904 14.1462C9.77457 14.081 9.81214 13.9935 9.81214 13.8836C9.81214 13.7814 9.77476 13.6994 9.70018 13.6374C9.6256 13.5754 9.49495 13.5443 9.30803 13.5443H8.76615V14.2439Z" fill="white"/>
<path d="M13.459 11.4736V14.9866H12.4884V12.6846C12.3312 12.804 12.1792 12.9007 12.0325 12.9745C11.8855 13.0483 11.7014 13.1191 11.48 13.1866V12.3997C11.8067 12.2944 12.0604 12.1679 12.241 12.0203C12.4216 11.8727 12.563 11.6905 12.665 11.4736H13.459Z" fill="white"/>
<path d="M12.665 11.4736C12.6133 11.5833 12.5517 11.6838 12.48 11.7758V12.6907C12.4828 12.6886 12.4855 12.6867 12.4882 12.6846V14.9866H13.459V11.4736H12.665Z" fill="#E9EDF5"/>
<path d="M17.3111 14.9864H14.4321C14.4651 14.7022 14.5653 14.4348 14.7325 14.1842C14.8998 13.9337 15.2136 13.6381 15.6736 13.2972C15.9548 13.0884 16.1346 12.9297 16.2132 12.8214C16.2918 12.7128 16.3311 12.61 16.3311 12.5128C16.3311 12.4075 16.2922 12.3174 16.2144 12.2429C16.1365 12.1683 16.0389 12.1309 15.921 12.1309C15.7986 12.1309 15.6984 12.1694 15.6206 12.2465C15.543 12.3234 15.4907 12.4592 15.464 12.6539L14.5027 12.5763C14.5405 12.3062 14.6095 12.0952 14.71 11.9436C14.8105 11.7922 14.9523 11.6758 15.1354 11.5949C15.3183 11.5141 15.5716 11.4736 15.8951 11.4736C16.2329 11.4736 16.4955 11.5122 16.6832 11.589C16.8709 11.6661 17.0185 11.7843 17.1261 11.9436C17.2336 12.1031 17.2876 12.2818 17.2876 12.4796C17.2876 12.6901 17.2258 12.8912 17.1026 13.0829C16.9794 13.2744 16.7551 13.4849 16.4301 13.7142C16.2369 13.8477 16.1075 13.9412 16.0425 13.9946C15.9773 14.048 15.9006 14.118 15.8127 14.2042H17.3111V14.9864Z" fill="#E9EDF5"/>
</svg>
