
<svg id="Capa_1" enable-background="new 0 0 512 512" height="80" viewBox="0 0 512 512" width="80" xmlns="http://www.w3.org/2000/svg"><g><g><path d="m360.896 512h-89.911l-14.985-19.575-14.985 19.575h-89.911c-51.613 0-94.879-39.003-100.213-90.339l-32.265-310.494c-6.177-59.444 40.45-111.167 100.213-111.167h274.321c59.763 0 106.39 51.723 100.213 111.167l-32.265 310.494c-5.333 51.336-48.6 90.339-100.212 90.339z" fill="#e2dff4"/><path d="m393.161 0h-137.161v492.425l14.985 19.575h89.911c51.612 0 94.879-39.003 100.213-90.339l32.265-310.494c6.177-59.444-40.45-111.167-100.213-111.167z" fill="#bebcdd"/></g><g><g><path d="m256 376.492c-8.276 0-14.985 6.709-14.985 14.985v120.523h29.97v-120.524c0-8.275-6.709-14.984-14.985-14.984z" fill="#00da80"/><path d="m256 376.492v135.508h14.985v-120.524c0-8.275-6.709-14.984-14.985-14.984z" fill="#00a78e"/></g><g><g><g><path d="m425.988 144.513c-45.275-52.042-105.644-80.702-169.988-80.702s-124.713 28.66-169.988 80.702c-4.906 5.639-4.906 14.031 0 19.67l81.65 93.855c2.847 3.271 6.969 5.15 11.306 5.15h154.065c4.336 0 8.459-1.878 11.306-5.15l81.65-93.855c4.905-5.638 4.905-14.03-.001-19.67z" fill="#00da80"/><path d="m425.988 144.513c-45.275-52.042-105.644-80.702-169.988-80.702v199.378h77.032c4.336 0 8.459-1.878 11.306-5.15l81.65-93.855c4.906-5.639 4.906-14.031 0-19.671z" fill="#00a78e"/></g><path d="m256 103.824-14.986-9.434c-24.699 2.02-48.572 9.02-70.741 20.58l-8.254 12.866-17.496 3.183c-6.59 4.829-12.971 10.105-19.115 15.813-2.58 2.655-5.116 5.4-7.6 8.24l67.984 78.147h140.414l67.984-78.147c-2.484-2.84-5.019-5.584-7.6-8.24-6.144-5.708-19.115-15.813-19.115-15.813l-17.217-3.183-8.456-12.825c-22.191-11.584-46.091-18.599-70.818-20.621z" fill="#fbf4f4"/><path d="m386.592 146.833c-6.144-5.708-19.115-15.813-19.115-15.813l-17.217-3.182-8.456-12.825c-22.191-11.584-46.091-18.599-70.818-20.621l-14.986 9.432v129.395h70.207l67.984-78.147c-2.484-2.84-5.019-5.584-7.599-8.239z" fill="#e2dff4"/></g><g><g><path d="m333.471 148.409c2.803 2.336 6.205 3.475 9.588 3.475 4.292 0 8.554-1.836 11.518-5.39l12.893-15.466c-8.248-6.044-16.819-11.397-25.667-16.015l-10.246 12.291c-5.299 6.357-4.442 15.806 1.914 21.105z" fill="#0a617d"/><path d="m157.423 146.494c2.964 3.555 7.225 5.39 11.518 5.39 3.383 0 6.786-1.14 9.588-3.475 6.356-5.299 7.213-14.748 1.914-21.105l-10.246-12.291c-8.847 4.618-17.419 9.971-25.667 16.015z" fill="#0d8ebc"/><g><path d="m256 93.78c-5.024 0-10.02.217-14.985.623v18.449c0 8.276 6.709 14.985 14.985 14.985s14.985-6.709 14.985-14.985v-18.449c-4.965-.406-9.961-.623-14.985-.623z" fill="#0d8ebc"/><path d="m256 93.78v34.057c8.276 0 14.985-6.709 14.985-14.985v-18.449c-4.965-.406-9.961-.623-14.985-.623z" fill="#0a617d"/></g></g><g><path d="m286.302 233.219-23.534-50.974c-2.666-5.774-10.872-5.774-13.537 0l-23.534 50.974z" fill="#0d8ebc"/><path d="m256 233.219h30.302l-23.534-50.974c-1.333-2.887-4.051-4.33-6.769-4.33v55.304z" fill="#0a617d"/></g></g></g></g></g></svg>