<svg width="80" height="80" viewBox="0 0 80 80" fill="none" xmlns="http://www.w3.org/2000/svg">
<g clip-path="url(#clip0)">
<path d="M35.8313 57.7639C20.3535 57.7639 15.5374 55.205 15.5374 55.205C21.6635 47.0018 16.1904 39.9797 15.1803 33.0616C13.6074 22.2942 16.5837 6.52979 35.5368 6.52979C47.7985 6.52979 52.3316 12.1768 54.0228 14.6373C57.8949 20.2692 57.8578 31.6244 54.7528 40.2655C51.9891 47.9557 55.735 54.6217 55.735 54.6217C55.735 54.6217 51.3094 57.7639 35.8313 57.7639Z" fill="black"/>
<path d="M69.9113 64.5335C67.2688 55.0517 53.9984 56.1035 48.2715 53.3806C42.5445 50.6576 43.4381 41.5216 42.7126 39.9321H28.7392C28.0137 41.5216 28.9085 50.6589 23.1803 53.3806C17.4534 56.1035 4.18303 55.052 1.54046 64.5335C0.0822959 69.7634 0.152869 71.3615 -0.250977 77.1562C-0.250977 77.1562 17.9572 80.9704 35.3143 80.9704C52.6713 80.9704 71.7025 77.1562 71.7025 77.1562C71.3002 71.3615 71.3695 69.7634 69.9113 64.5335Z" fill="black"/>
<path d="M41.1229 54.4977C46.8498 57.2206 60.1202 56.169 62.7627 65.6506C64.1518 70.6309 64.1546 72.3191 64.4989 77.4729C69.0585 76.7656 71.9535 76.1855 71.9535 76.1855C71.5512 70.3923 71.6205 68.793 70.1621 63.5628C67.5195 54.081 54.2491 55.1328 48.5222 52.4099C42.7953 49.6869 43.6888 40.5509 42.9633 38.9614H35.5655C35.5655 38.9617 35.3947 51.7762 41.1229 54.4977Z" fill="black"/>
<path d="M23.4326 52.4097C23.4326 52.4097 19.1611 57.4547 15.0845 58.6587C15.0845 58.6587 23.5808 72.618 35.9777 78.8588L23.4326 52.4097Z" fill="#515151"/>
<path d="M48.5226 52.4097C48.5226 52.4097 52.7941 57.4547 56.8707 58.6587C56.8707 58.6587 48.3744 72.618 35.9775 78.8588L48.5226 52.4097Z" fill="#515151"/>
<path d="M48.5225 52.4098C46.9162 51.646 45.832 50.3785 45.0853 48.9146H37.9638H37.9595H33.9956H33.9914H26.8698C26.1232 50.3785 25.039 51.646 23.4326 52.4098C23.3339 52.4562 21.1982 56.8056 16.0908 58.9102C16.0908 58.9102 18.4652 62.6523 23.575 68.3313C28.6849 74.0102 35.9759 78.8591 35.9759 78.8591C35.9759 78.8591 43.2667 74.0102 48.3768 68.3313C53.4869 62.6523 55.8613 58.9102 55.8613 58.9102C50.757 56.8056 48.6212 52.4565 48.5225 52.4098Z" fill="#6D6D6D"/>
<path d="M48.5227 52.4098C46.9163 51.646 45.8321 50.3785 45.0855 48.9146H37.9639H37.9597H37.0166C37.8368 51.3567 39.1185 53.546 41.1229 54.4988C44.0703 55.8992 49.0137 56.3016 53.4801 57.6538C50.0795 55.4321 48.6045 52.448 48.5227 52.4098Z" fill="#606060"/>
<path d="M46.0281 50.3995C43.0638 46.6446 43.5578 40.2642 42.9636 38.96H28.9903C28.3946 40.2642 28.8886 46.6448 25.9258 50.3995C27.1114 63.7532 35.9777 78.8575 35.9777 78.8575C35.9777 78.8575 44.8199 63.8861 46.0281 50.3995Z" fill="#E8C59E"/>
<path d="M29.7637 65.6333C32.6222 73.1416 35.9776 78.8572 35.9776 78.8572C35.9776 78.8572 39.3414 73.1614 42.2028 65.6333H29.7637Z" fill="#EAE5DC"/>
<path d="M41.1228 54.4977C42.2379 55.0284 43.6398 55.4152 45.1924 55.764C45.5776 53.9756 45.87 52.1744 46.0295 50.3985C43.0652 46.6436 43.5592 40.2632 42.965 38.959H35.5667C35.5654 38.9617 35.3946 51.7763 41.1228 54.4977Z" fill="#DDB58E"/>
<path d="M27.1113 48.4036C29.4292 50.4025 32.1478 52.3843 35.962 52.9574C39.7888 52.3828 42.4976 50.36 44.8197 48.3529C42.8887 44.5924 43.4859 40.1077 42.9635 38.96H28.9902C28.4665 40.109 29.0509 44.6417 27.1113 48.4036Z" fill="#CCA281"/>
<path d="M49.3981 29.1507C48.8731 32.0702 49.7344 34.6683 51.3219 34.9538C52.9094 35.2393 54.6219 33.1041 55.147 30.1846C55.672 27.2651 54.8107 24.667 53.2232 24.3815C51.6357 24.096 49.9231 26.2312 49.3981 29.1507Z" fill="#DDB58E"/>
<path d="M18.6881 24.384C17.1006 24.6695 16.2393 27.2677 16.7643 30.1872C17.2893 33.1066 19.0019 35.2419 20.5894 34.9564C22.1769 34.6709 23.0382 32.0728 22.5132 29.1533C21.9882 26.2338 20.2756 24.0985 18.6881 24.384Z" fill="#E8C59E"/>
<path d="M51.1395 11.7886L36.0932 14.1037C36.0932 14.1037 30.7616 14.3352 26.411 16.5471C22.4175 18.5783 19.3784 22.552 19.3389 23.6741C18.9494 34.7638 21.2135 49.9554 35.9576 52.1743C59.6486 48.6101 51.1395 11.7886 51.1395 11.7886Z" fill="#E8C59E"/>
<path d="M35.958 52.1746C59.649 48.6103 51.1399 11.7886 51.1399 11.7886H47.5884C48.5611 27.1693 49.9062 35.3397 44.322 44.2469C39.8978 51.3049 35.958 52.1746 35.958 52.1746Z" fill="#DDB58E"/>
<path d="M50.5762 10.1479C50.5762 10.1479 42.3634 14.0962 30.1051 13.8858C19.298 13.7009 19.7285 31.3543 19.6338 31.9797C19.6338 31.9797 22.3738 21.0638 29.8876 18.688C36.3273 16.6509 40.3602 18.4225 44.9241 18.8517C50.003 19.3289 51.697 15.475 51.697 15.475L50.5762 10.1479Z" fill="#DDB58E"/>
<path d="M53.2935 34.9806C53.8993 34.9806 54.3903 34.4896 54.3903 33.8839C54.3903 33.2781 53.8993 32.7871 53.2935 32.7871C52.6878 32.7871 52.1968 33.2781 52.1968 33.8839C52.1968 34.4896 52.6878 34.9806 53.2935 34.9806Z" fill="#CC7D2E"/>
<path d="M18.6754 34.9806C19.2811 34.9806 19.7721 34.4896 19.7721 33.8839C19.7721 33.2781 19.2811 32.7871 18.6754 32.7871C18.0696 32.7871 17.5786 33.2781 17.5786 33.8839C17.5786 34.4896 18.0696 34.9806 18.6754 34.9806Z" fill="#CC7D2E"/>
<path d="M55.6057 16.0708C53.2157 8.19442 36.3277 6.52979 36.3243 6.52979C36.3212 6.52979 19.4329 8.19442 17.0429 16.0708C14.653 23.9489 17.4332 29.4365 17.4332 29.4365C23.0971 30.1487 42.1929 29.4365 47.3894 18.9631C49.2601 26.4196 54.8815 29.4733 54.8815 29.4733C54.8815 29.4733 57.9957 23.9489 55.6057 16.0708Z" fill="black"/>
</g>
<defs>
<clipPath id="clip0">
<rect width="80" height="80" fill="white"/>
</clipPath>
</defs>
</svg>
