<svg width="80" height="80" viewBox="0 0 80 80" fill="none" xmlns="http://www.w3.org/2000/svg">
<g clip-path="url(#clip0)">
<path d="M77.816 63.578C74.8912 54.1099 60.2105 55.1602 53.874 52.4412C47.5377 49.7222 48.5269 40.5994 47.7234 39.0122H32.2659C31.4638 40.5994 32.4532 49.7234 26.1153 52.4412C19.7791 55.1602 5.09682 54.1101 2.17327 63.578C0.56042 68.8003 0.63701 70.3975 0.191895 76.1824C0.191895 76.1824 20.3362 79.991 39.5398 79.991C58.7435 79.991 79.799 76.1824 79.799 76.1824C79.3523 70.396 79.4289 68.8003 77.816 63.578Z" fill="#DBB491"/>
<path d="M77.8157 63.578C74.8908 54.1099 60.2102 55.1602 53.8737 52.4412C47.5374 49.7222 48.5265 40.5994 47.7231 39.0122H39.5382C39.5382 39.0122 39.3496 51.8082 45.6859 54.5272C52.0221 57.2462 66.7044 56.1962 69.6279 65.664C71.1642 70.6371 71.167 72.3228 71.5489 77.4692C76.5939 76.7629 79.796 76.1836 79.796 76.1836C79.352 70.396 79.4286 68.8003 77.8157 63.578Z" fill="#C8143F"/>
<path d="M14.0645 78.2615C21.3119 79.1523 30.5289 79.9912 39.5396 79.9912C48.7493 79.9912 58.3865 79.1145 65.9215 78.2024V72.4712C65.9215 72.4712 51.0092 74.6094 39.5028 74.6094C27.9965 74.6094 14.066 72.4712 14.066 72.4712V78.2615H14.0645Z" fill="#44919B"/>
<path d="M48.0239 56.7727C50.579 55.8185 52.6813 54.4131 54.1008 52.7075L54.2099 52.5779C54.0963 52.5327 53.9843 52.4876 53.8752 52.4412C47.539 49.7222 48.5281 40.5994 47.7247 39.0122H32.2655C31.4634 40.5994 32.4528 49.7234 26.115 52.4412C26.0058 52.4876 25.8938 52.5342 25.7803 52.5779L25.8894 52.7075C27.3092 54.4116 29.4115 55.817 31.9662 56.7727C34.3869 57.6763 37.1631 58.154 39.9951 58.154C42.8271 58.154 45.6032 57.676 48.0239 56.7727Z" fill="#DBB491"/>
<path d="M53.8741 52.4409C52.7344 51.9518 51.8337 51.2554 51.1158 50.4336C49.7875 52.0278 47.489 53.2935 44.6704 53.9687C44.9888 54.1843 45.328 54.3717 45.6876 54.5254C46.923 55.0553 48.4768 55.443 50.1988 55.7926C51.7807 54.9455 53.1074 53.8997 54.0997 52.707L54.2088 52.5773C54.0952 52.5339 53.9832 52.4875 53.8741 52.4409Z" fill="#E0DBD3"/>
<path d="M51.1155 50.4342C47.8368 46.6847 48.3821 40.3136 47.7248 39.0112H32.2657C31.6068 40.3136 32.1537 46.685 28.875 50.4342C30.8829 52.8445 35.1082 54.5049 39.9953 54.5049C44.8823 54.5049 49.1077 52.8445 51.1155 50.4342Z" fill="#DBB491"/>
<path d="M44.6702 53.9692C47.489 53.2941 49.7873 52.0282 51.1155 50.4342C47.8368 46.6847 48.3822 40.3135 47.7248 39.0112H39.5397C39.5397 39.0125 39.3718 50.3945 44.6702 53.9692Z" fill="#DBB491"/>
<path d="M30.1855 48.4407C32.7508 50.4367 35.7567 52.4156 39.9791 52.9879C44.2118 52.4141 47.2103 50.3943 49.7785 48.39C47.6423 44.6351 48.3028 40.1568 47.7247 39.0107H32.2655C31.6848 40.1581 32.3319 44.6842 30.1855 48.4407Z" fill="#C69E7F"/>
<path d="M55.1023 29.2155C54.5538 32.1309 55.4532 34.7252 57.1114 35.0104C58.7694 35.2955 60.558 33.1634 61.1062 30.248C61.6546 27.3326 60.755 24.7384 59.097 24.4533C57.439 24.1682 55.6505 26.3004 55.1023 29.2155Z" fill="#CCA483"/>
<path d="M20.8467 24.4557C19.1887 24.7408 18.2892 27.3353 18.8375 30.2504C19.3859 33.1658 21.1745 35.2979 22.8324 35.0128C24.4904 34.7276 25.39 32.1333 24.8416 29.2182C24.2933 26.3028 22.5047 24.1706 20.8467 24.4557Z" fill="#DBB491"/>
<path d="M56.8237 11.8784H39.9789H23.1428C23.1428 11.8784 13.7031 48.6469 39.9789 52.206C66.265 48.6469 56.8237 11.8784 56.8237 11.8784Z" fill="#DBB491"/>
<path d="M39.979 52.206C66.2652 48.6469 56.8238 11.8784 56.8238 11.8784H52.8831C53.9622 27.237 55.4557 35.3955 49.2595 44.2898C44.3502 51.3375 39.979 52.206 39.979 52.206Z" fill="#CCA483"/>
<path d="M48.6994 13.8516L21.8516 20.9064C24.1233 21.7761 28.5596 23.3801 38.0479 23.3407C43.3287 23.3181 54.9428 21.7761 57.5109 15.8686L48.6994 13.8516Z" fill="#CCA483"/>
<path d="M58.9211 13.6609C58.3726 8.3087 52.9709 1.25391 39.9298 1.25391C26.8888 1.25391 21.4868 8.3087 20.9384 13.6609C20.9384 13.6609 20.0552 16.5126 20.6863 25.6281C21.8244 25.5097 22.9449 25.8084 23.7455 26.1552L24.4059 15.2256H55.4538L56.1142 26.1552C56.9148 25.8084 58.0353 25.5097 59.1734 25.6281C59.8042 16.5138 58.9211 13.6609 58.9211 13.6609Z" fill="#333333"/>
<path d="M45.0383 17.3349C51.7638 16.812 62.3787 15.1458 60.7422 0.833103C60.7422 0.833103 59.144 3.36602 56.0054 2.95875C51.6991 2.39925 48.1712 0 41.0299 0C34.1216 0 21.3604 1.9847 21.7806 10.3095C22.1374 17.3349 37.2101 17.9453 45.0383 17.3349Z" fill="black"/>
<path d="M77.8139 63.5615C74.892 54.1034 60.226 55.1519 53.894 52.4357C53.0108 52.0565 52.29 51.5379 51.6663 50.9473L40.0684 63.0441L28.4351 50.9092C27.8027 51.5166 27.0654 52.0467 26.1618 52.4344C19.8313 55.1507 5.16398 54.1019 2.24201 63.5615C0.630732 68.7783 0.707322 70.3738 0.262207 76.1531C0.262207 76.1531 20.3873 79.959 39.5718 79.959C58.7564 79.959 79.7927 76.1531 79.7927 76.1531C79.3471 70.374 79.4252 68.7783 77.8139 63.5615Z" fill="#636358"/>
<path d="M69.7879 65.6262C71.3241 70.5992 71.327 72.285 71.7089 77.4313C76.7539 76.7251 79.956 76.1458 79.956 76.1458C79.5109 70.361 79.5875 68.764 77.9746 63.5414C75.0498 54.0733 60.3691 55.1236 54.0326 52.4046C53.1421 52.0227 52.4108 51.5053 51.7845 50.9092C51.7742 50.9205 51.7609 50.9317 51.7506 50.943L47.7378 55.1294C54.7182 57.0983 67.1237 56.9997 69.7879 65.6262Z" fill="#515147"/>
<path d="M77.8863 63.4374C74.9615 53.9693 60.2808 55.0195 53.9443 52.3005C47.608 49.5816 48.5972 40.4588 47.7937 38.8716H32.3362C31.5341 40.4588 32.5235 49.5828 26.1856 52.3005C19.8494 55.0195 5.16712 53.9695 2.24358 63.4374C0.630732 68.6597 0.707322 70.2569 0.262207 76.0417C0.262207 76.0417 20.4065 79.8504 39.6101 79.8504C58.8138 79.8504 79.8693 76.0417 79.8693 76.0417C79.4226 70.2554 79.4992 68.6599 77.8863 63.4374Z" fill="#DBB491"/>
<path d="M77.2895 63.5615C74.3676 54.1034 59.7016 55.1519 53.3695 52.4357C52.4864 52.0565 51.7656 51.5379 51.1419 50.9473L39.544 63.0441L27.9106 50.9092C27.2783 51.5166 26.5409 52.0467 25.6373 52.4344C19.3068 55.1507 4.63956 54.1019 1.7176 63.5615C0.106318 68.7783 0.182908 70.3738 -0.262207 76.1531C-0.262207 76.1531 19.8629 79.959 39.0474 79.959C58.232 79.959 79.2683 76.1531 79.2683 76.1531C78.8226 70.374 78.9008 68.7783 77.2895 63.5615Z" fill="#2F2D2D"/>
<path d="M69.7879 65.1247C71.3241 70.0978 71.327 71.7835 71.7089 76.9299C76.7539 76.2237 79.956 75.6443 79.956 75.6443C79.5109 69.8595 79.5875 68.2625 77.9746 63.0399C75.0498 53.5719 60.3691 54.6221 54.0326 51.9031C53.1421 51.5212 52.4108 51.0038 51.7845 50.4077C51.7742 50.419 51.7609 50.4303 51.7506 50.4416L47.7378 54.6279C54.7182 56.5968 67.1237 56.4983 69.7879 65.1247Z" fill="#2F2D2D"/>
</g>
<defs>
<clipPath id="clip0">
<rect width="80" height="80" fill="white"/>
</clipPath>
</defs>
</svg>
