<svg width="260" height="260" viewBox="0 0 261 260" fill="none" xmlns="http://www.w3.org/2000/svg">
<path d="M188.972 259.999H12.2167C5.46971 259.999 0 254.822 0 248.435V24.6738C0 18.287 5.46971 13.1094 12.2167 13.1094H188.972C195.719 13.1094 201.189 18.287 201.189 24.6738V248.435C201.189 254.822 195.72 259.999 188.972 259.999Z" fill="#FFD064"/>
<path d="M188.971 13.1094H178.057C184.804 13.1094 190.273 18.287 190.273 24.6738V248.436C190.273 254.822 184.804 260 178.057 260H188.971C195.718 260 201.188 254.822 201.188 248.436V24.6738C201.188 18.287 195.718 13.1094 188.971 13.1094Z" fill="#E7A561"/>
<path d="M22.1045 233.684V48.5945C22.1045 45.6177 24.6537 43.2041 27.799 43.2041H173.387C176.532 43.2041 179.082 45.6172 179.082 48.5945V233.684C179.082 236.66 176.533 239.074 173.387 239.074H27.7984C24.6537 239.074 22.1045 236.66 22.1045 233.684Z" fill="#F6F6F6"/>
<path d="M173.388 43.2051H163.579C166.724 43.2051 169.273 45.6182 169.273 48.5955V233.685C169.273 236.661 166.724 239.075 163.579 239.075H173.388C176.532 239.075 179.082 236.662 179.082 233.685V48.595C179.082 45.6182 176.532 43.2051 173.388 43.2051Z" fill="#DDDAEC"/>
<path d="M137.627 28.3577H63.5605C60.669 28.3577 58.3252 26.1391 58.3252 23.402V4.95573C58.3252 2.21863 60.669 0 63.5605 0H137.627C140.518 0 142.862 2.21863 142.862 4.95573V23.402C142.862 26.1391 140.518 28.3577 137.627 28.3577Z" fill="#407093"/>
<path d="M137.628 0H127.148C130.04 0 132.384 2.21863 132.384 4.95573V23.402C132.384 26.1391 130.04 28.3577 127.148 28.3577H137.628C140.52 28.3577 142.863 26.1391 142.863 23.402V4.95573C142.863 2.21863 140.52 0 137.628 0Z" fill="#365E7D"/>
<path d="M80.6671 136.954C103.183 136.954 121.437 119.675 121.437 98.3612C121.437 77.0471 103.183 59.7686 80.6671 59.7686C58.1506 59.7686 39.8975 77.0471 39.8975 98.3612C39.8975 119.675 58.1506 136.954 80.6671 136.954Z" fill="#B3E59F"/>
<path d="M80.6628 59.7686C78.3067 59.7686 76.0016 59.9681 73.7549 60.3312C92.9793 63.439 107.617 79.2771 107.617 98.3612C107.617 117.445 92.9793 133.283 73.7549 136.391C76.0016 136.754 78.3067 136.954 80.6628 136.954C103.18 136.954 121.432 119.676 121.432 98.3612C121.432 77.0468 103.18 59.7686 80.6628 59.7686Z" fill="#95D6A4"/>
<path d="M102.259 89.7104H92.1825C90.8693 89.7104 89.8044 88.7024 89.8044 87.4593V77.9211C89.8044 76.6779 88.7395 75.6699 87.4263 75.6699H73.9049C72.5917 75.6699 71.5268 76.6779 71.5268 77.9211V87.4593C71.5268 88.7024 70.4619 89.7104 69.1487 89.7104H59.0724C57.7592 89.7104 56.6943 90.7184 56.6943 91.9615V104.761C56.6943 106.004 57.7592 107.012 59.0724 107.012H69.1487C70.4619 107.012 71.5268 108.02 71.5268 109.263V118.801C71.5268 120.044 72.5917 121.052 73.9049 121.052H87.4263C88.7395 121.052 89.8044 120.044 89.8044 118.801V109.263C89.8044 108.02 90.8693 107.012 92.1825 107.012H102.259C103.572 107.012 104.637 106.004 104.637 104.761V91.9615C104.637 90.7184 103.573 89.7104 102.259 89.7104Z" fill="#F6F6F6"/>
<path d="M160.033 76.5049H139.55C137.26 76.5049 135.405 74.7484 135.405 72.5816C135.405 70.4142 137.261 68.6582 139.55 68.6582H160.033C162.322 68.6582 164.178 70.4147 164.178 72.5816C164.178 74.7489 162.322 76.5049 160.033 76.5049Z" fill="#365E7D"/>
<path d="M160.033 94.6094H139.55C137.26 94.6094 135.405 92.8529 135.405 90.686C135.405 88.5192 137.261 86.7627 139.55 86.7627H160.033C162.322 86.7627 164.178 88.5192 164.178 90.686C164.178 92.8529 162.322 94.6094 160.033 94.6094Z" fill="#365E7D"/>
<path d="M160.033 112.712H139.55C137.26 112.712 135.405 110.955 135.405 108.789C135.405 106.621 137.261 104.865 139.55 104.865H160.033C162.322 104.865 164.178 106.622 164.178 108.789C164.178 110.955 162.322 112.712 160.033 112.712Z" fill="#365E7D"/>
<path d="M160.033 130.815H139.55C137.26 130.815 135.405 129.059 135.405 126.892C135.405 124.725 137.261 122.969 139.55 122.969H160.033C162.322 122.969 164.178 124.725 164.178 126.892C164.178 129.059 162.322 130.815 160.033 130.815Z" fill="#365E7D"/>
<path d="M160.029 148.919H117.441C115.151 148.919 113.296 147.162 113.296 144.996C113.296 142.829 115.151 141.072 117.441 141.072H160.029C162.319 141.072 164.174 142.829 164.174 144.996C164.174 147.162 162.319 148.919 160.029 148.919Z" fill="#365E7D"/>
<path d="M160.033 167.022H139.55C137.26 167.022 135.405 165.266 135.405 163.099C135.405 160.932 137.261 159.176 139.55 159.176H160.033C162.322 159.176 164.178 160.932 164.178 163.099C164.178 165.266 162.322 167.022 160.033 167.022Z" fill="#365E7D"/>
<path d="M121.076 167.022H84.0128C81.7232 167.022 79.8682 165.266 79.8682 163.099C79.8682 160.932 81.7238 159.176 84.0128 159.176H121.076C123.366 159.176 125.221 160.932 125.221 163.099C125.221 165.266 123.365 167.022 121.076 167.022Z" fill="#365E7D"/>
<path d="M65.5473 167.022H39.8966C37.607 167.022 35.752 165.266 35.752 163.099C35.752 160.932 37.6076 159.176 39.8966 159.176H65.5473C67.8369 159.176 69.6919 160.932 69.6919 163.099C69.6919 165.266 67.8363 167.022 65.5473 167.022Z" fill="#365E7D"/>
<path d="M160.029 185.126H111.913C109.624 185.126 107.769 183.369 107.769 181.203C107.769 179.035 109.624 177.279 111.913 177.279H160.029C162.318 177.279 164.173 179.036 164.173 181.203C164.174 183.369 162.318 185.126 160.029 185.126Z" fill="#365E7D"/>
<path d="M93.1796 185.126H39.8966C37.607 185.126 35.752 183.369 35.752 181.203C35.752 179.035 37.6076 177.279 39.8966 177.279H93.1796C95.4692 177.279 97.3242 179.036 97.3242 181.203C97.3242 183.369 95.4686 185.126 93.1796 185.126Z" fill="#365E7D"/>
<path d="M160.029 203.229H111.913C109.624 203.229 107.769 201.472 107.769 199.305C107.769 197.138 109.624 195.382 111.913 195.382H160.029C162.318 195.382 164.173 197.138 164.173 199.305C164.173 201.472 162.318 203.229 160.029 203.229Z" fill="#365E7D"/>
<path d="M93.1796 203.229H39.8966C37.607 203.229 35.752 201.472 35.752 199.305C35.752 197.138 37.6076 195.382 39.8966 195.382H93.1796C95.4692 195.382 97.3242 197.138 97.3242 199.305C97.3242 201.472 95.4686 203.229 93.1796 203.229Z" fill="#365E7D"/>
<path d="M160.032 221.332H39.8966C37.607 221.332 35.752 219.576 35.752 217.409C35.752 215.242 37.6076 213.485 39.8966 213.485H160.032C162.322 213.485 164.177 215.242 164.177 217.409C164.177 219.576 162.321 221.332 160.032 221.332Z" fill="#365E7D"/>
<path d="M117.754 18.1026H83.4367C81.1471 18.1026 79.292 16.346 79.292 14.1792C79.292 12.0124 81.1476 10.2559 83.4367 10.2559H117.754C120.043 10.2559 121.898 12.0124 121.898 14.1792C121.898 16.346 120.043 18.1026 117.754 18.1026Z" fill="#365E7D"/>
<path d="M208.056 250.137C190.035 250.137 175.425 236.307 175.425 219.248V96.7207H240.688V219.248C240.688 236.307 226.078 250.137 208.056 250.137Z" fill="#DD636E"/>
<path d="M175.425 96.7207V107.969H214.397C222.188 107.969 228.503 113.948 228.503 121.323V219.248C228.503 234.335 217.073 246.889 201.964 249.591C203.939 249.944 205.973 250.137 208.056 250.137C226.079 250.137 240.688 236.307 240.688 219.248V96.7207H175.425Z" fill="#DA4A54"/>
<path d="M252.263 65.5967H163.856C159.583 65.5967 156.118 68.8761 156.118 72.9214V89.3968C156.118 93.442 159.583 96.7214 163.856 96.7214H252.263C256.537 96.7214 260.001 93.442 260.001 89.3968V72.9214C260.001 68.8756 256.537 65.5967 252.263 65.5967Z" fill="#407093"/>
<path d="M252.261 65.5967H240.991C245.265 65.5967 248.729 68.8761 248.729 72.9214V89.3968C248.729 93.442 245.265 96.7214 240.991 96.7214H252.261C256.534 96.7214 259.998 93.442 259.998 89.3968V72.9214C259.999 68.8761 256.535 65.5967 252.261 65.5967Z" fill="#365E7D"/>
<path d="M178.442 87.6575C176.152 87.6575 174.297 85.901 174.297 83.7342V78.5855C174.297 76.4181 176.152 74.6621 178.442 74.6621C180.731 74.6621 182.586 76.4186 182.586 78.5855V83.7342C182.587 85.901 180.731 87.6575 178.442 87.6575Z" fill="#365E7D"/>
<path d="M198.188 87.6575C195.898 87.6575 194.043 85.901 194.043 83.7342V78.5855C194.043 76.4181 195.899 74.6621 198.188 74.6621C200.477 74.6621 202.332 76.4186 202.332 78.5855V83.7342C202.333 85.901 200.477 87.6575 198.188 87.6575Z" fill="#365E7D"/>
<path d="M217.929 87.6575C215.639 87.6575 213.784 85.901 213.784 83.7342V78.5855C213.784 76.4181 215.64 74.6621 217.929 74.6621C220.218 74.6621 222.073 76.4186 222.073 78.5855V83.7342C222.073 85.901 220.218 87.6575 217.929 87.6575Z" fill="#365E7D"/>
<path d="M237.675 87.6575C235.385 87.6575 233.53 85.901 233.53 83.7342V78.5855C233.53 76.4181 235.386 74.6621 237.675 74.6621C239.964 74.6621 241.82 76.4186 241.82 78.5855V83.7342C241.82 85.901 239.964 87.6575 237.675 87.6575Z" fill="#365E7D"/>
<path d="M175.425 132.184H240.688V179.305H175.425V132.184Z" fill="#BED8FB"/>
<path d="M228.506 132.184H240.69V179.305H228.506V132.184Z" fill="#9DC6FB"/>
<path d="M208.061 169.09C205.771 169.09 203.916 167.334 203.916 165.167V146.321C203.916 144.153 205.772 142.397 208.061 142.397C210.35 142.397 212.205 144.154 212.205 146.321V165.167C212.205 167.334 210.35 169.09 208.061 169.09Z" fill="#F6F6F6"/>
<path d="M218.014 159.668H198.105C195.815 159.668 193.96 157.911 193.96 155.745C193.96 153.578 195.816 151.821 198.105 151.821H218.014C220.303 151.821 222.158 153.578 222.158 155.745C222.158 157.911 220.303 159.668 218.014 159.668Z" fill="#F6F6F6"/>
</svg>
