<svg width="260" height="260" viewBox="0 0 260 260" fill="none" xmlns="http://www.w3.org/2000/svg">
<path d="M170.654 0H89.3462C65.2058 0 45.6367 19.5696 45.6367 43.7095V149.977C45.6367 163.493 49.7221 176.693 57.357 187.846C73.1282 210.885 99.2505 224.66 127.171 224.66H132.83C160.75 224.66 186.872 210.885 202.643 187.846C210.278 176.693 214.363 163.493 214.363 149.977V43.7095C214.364 19.5696 194.794 0 170.654 0Z" fill="#FFB123"/>
<path d="M188.897 3.99072V163.504C188.897 168.208 187.475 172.802 184.819 176.683L164.158 206.865C156.534 218.001 143.908 224.659 130.412 224.659H132.829C160.749 224.659 186.872 210.884 202.643 187.845C210.277 176.692 214.363 163.492 214.363 149.976V43.7093C214.363 26.0836 203.925 10.9051 188.897 3.99072Z" fill="#FF901D"/>
<path d="M86.5908 214.282C98.8591 220.989 112.774 224.66 127.17 224.66H132.829C147.226 224.66 161.14 220.989 173.408 214.282V176.774C173.408 174.761 171.776 173.128 169.763 173.128H90.2369C88.2234 173.128 86.5913 174.761 86.5913 176.774V214.282H86.5908Z" fill="#2C5871"/>
<path d="M169.763 173.128H90.2369C88.2234 173.128 86.5913 174.76 86.5913 176.774V199.03H173.409V176.774C173.409 174.76 171.777 173.128 169.763 173.128Z" fill="#1D4859"/>
<path d="M144.835 260H115.165C114.104 260 113.245 259.141 113.245 258.08V173.128H146.755V258.08C146.755 259.141 145.895 260 144.835 260Z" fill="#E1EFFB"/>
<path d="M120.94 173.128V260H144.835C145.895 260 146.755 259.141 146.755 258.08V173.128H120.94Z" fill="#BACED8"/>
<path d="M146.757 189.892H113.248V213.597H146.757V189.892Z" fill="#F9644B"/>
<path d="M146.755 189.892H120.94V213.597H146.755V189.892Z" fill="#DB3F2E"/>
<path d="M187.606 116.891H72.3939C70.3271 116.891 68.6519 115.215 68.6519 113.149V48.7645C68.6519 46.6977 70.3271 45.0225 72.3939 45.0225H187.606C189.673 45.0225 191.348 46.6977 191.348 48.7645V113.149C191.348 115.215 189.673 116.891 187.606 116.891Z" fill="#E1EFFB"/>
<path d="M187.606 45.0225H165.534V116.891H187.606C189.673 116.891 191.348 115.215 191.348 113.149V48.7645C191.348 46.6977 189.673 45.0225 187.606 45.0225Z" fill="#BACED8"/>
<path d="M108.945 75.4299C116.571 75.4299 122.521 78.7226 122.521 87.7921V88.8895C122.521 98.3638 116.513 101.887 109.06 101.887C100.222 101.887 95.4272 96.8038 95.4272 91.4316C95.4272 88.7742 96.8136 88.0232 99.182 88.0232C102.359 88.0232 102.937 89.2942 102.937 90.9116C102.937 93.7422 105.536 95.3022 108.887 95.3022C112.699 95.3022 115.01 93.2806 115.01 88.89V87.7926C115.01 83.4021 112.699 81.3226 108.944 81.3226H100.395C98.0262 81.3226 97.3904 80.1673 97.3904 78.3763C97.3904 77.9142 97.4483 77.3942 97.4483 76.8747L98.9505 61.6814C99.0657 60.2372 99.5278 59.313 100.395 59.313H118.187C119.689 59.313 120.44 60.9883 120.44 62.6062C120.44 64.2814 119.69 65.8988 118.187 65.8988H105.189L104.496 75.4304L108.945 75.4299Z" fill="#11B9C1"/>
<path d="M133.206 97.9587C133.206 100.039 131.415 101.887 129.335 101.887C127.083 101.887 125.407 100.039 125.407 97.9587C125.407 95.8213 127.083 94.0308 129.335 94.0308C131.415 94.0308 133.206 95.8213 133.206 97.9587Z" fill="#11B9C1"/>
<path d="M162.436 69.5368C162.436 74.3895 160.184 77.2779 156.891 78.4327C161.05 79.9348 163.765 83.3427 163.765 89.2933V89.9864C163.765 98.5938 157.873 101.887 150.248 101.887C142.622 101.887 136.672 98.5933 136.672 89.9864V89.2933C136.672 83.3432 139.446 79.9348 143.547 78.4327C140.254 77.2774 138.002 74.389 138.002 69.5368C138.002 62.2005 143.143 59.312 150.249 59.312C157.295 59.312 162.436 62.2005 162.436 69.5368ZM156.255 87.9648C156.255 83.5743 154.002 81.6106 150.247 81.6106C146.434 81.6106 144.181 83.5748 144.181 87.9648V89.1201C144.181 93.6838 146.491 95.7633 150.247 95.7633C154.06 95.7633 156.255 93.6259 156.255 89.1201V87.9648ZM145.279 70.4615C145.279 74.0431 147.07 75.4874 150.247 75.4874C153.366 75.4874 155.215 74.0431 155.215 70.4615C155.215 66.8799 153.366 65.4357 150.247 65.4357C147.07 65.4352 145.279 66.8799 145.279 70.4615Z" fill="#11B9C1"/>
<path d="M191.349 139.357H68.6519C66.4841 139.357 64.7275 137.6 64.7275 135.432C64.7275 133.265 66.4846 131.508 68.6519 131.508H191.349C193.516 131.508 195.273 133.265 195.273 135.432C195.273 137.6 193.516 139.357 191.349 139.357Z" fill="#E1EFFB"/>
</svg>
