<svg width="260" height="260" viewBox="0 0 260 260" fill="none" xmlns="http://www.w3.org/2000/svg">
<path d="M248.696 16.7739H11.3043C5.06113 16.7739 0 20.529 0 25.161V251.613C0 256.245 5.06113 260 11.3043 260H248.696C254.939 260 260 256.245 260 251.613V25.161C260 20.529 254.939 16.7739 248.696 16.7739Z" fill="#7A838B"/>
<path d="M79.1305 25.161H180.87C183.868 25.161 186.743 24.2774 188.863 22.7045C190.983 21.1316 192.174 18.9983 192.174 16.7739H67.8262C67.8262 18.9983 69.0172 21.1316 71.1371 22.7045C73.2571 24.2774 76.1324 25.161 79.1305 25.161Z" fill="#5D6972"/>
<path d="M214.782 41.9355H22.6085C16.3653 41.9355 11.3042 45.6906 11.3042 50.3226V243.226C11.3042 247.858 16.3653 251.613 22.6085 251.613H214.782C221.026 251.613 226.087 247.858 226.087 243.226V50.3226C226.087 45.6906 221.026 41.9355 214.782 41.9355Z" fill="#5D6972"/>
<path d="M226.087 33.5483H33.9132C27.67 33.5483 22.6089 37.3034 22.6089 41.9354V234.839C22.6089 239.471 27.67 243.226 33.9132 243.226H226.087C232.33 243.226 237.391 239.471 237.391 234.839V41.9354C237.391 37.3034 232.33 33.5483 226.087 33.5483Z" fill="#E6E6E6"/>
<path d="M220.113 230.645C172.143 230.645 126.138 216.507 92.2187 191.341C58.2991 166.175 39.2432 132.042 39.2432 96.4516V33.5483H33.9132C30.9151 33.5483 28.0398 34.432 25.9199 36.0049C23.7999 37.5778 22.6089 39.711 22.6089 41.9354V234.839C22.6089 237.063 23.7999 239.196 25.9199 240.769C28.0398 242.342 30.9151 243.226 33.9132 243.226H226.087C229.085 243.226 231.961 242.342 234.081 240.769C236.201 239.196 237.391 237.063 237.391 234.839V230.645H220.113Z" fill="#CECECE"/>
<path d="M260 75.4839H192.174V109.032H260V75.4839Z" fill="#FFD3B6"/>
<path d="M209.13 79.6774V75.4839H192.174V109.032H260V96.4516H231.739C225.743 96.4516 219.992 94.6844 215.752 91.5386C211.512 88.3928 209.13 84.1262 209.13 79.6774Z" fill="#F9B995"/>
<path d="M203.479 109.032H248.696V243.226C248.696 247.675 246.314 251.941 242.074 255.087C237.834 258.233 232.083 260 226.087 260C220.091 260 214.34 258.233 210.1 255.087C205.861 251.941 203.479 247.675 203.479 243.226V109.032Z" fill="#FF938D"/>
<path d="M243.044 247.419C237.048 247.419 231.297 245.652 227.057 242.506C222.817 239.361 220.435 235.094 220.435 230.645V109.032H203.479V243.226C203.521 247.326 205.586 251.273 209.284 254.32C212.982 257.368 218.056 259.305 223.547 259.765C229.039 260.226 234.568 259.178 239.089 256.82C243.61 254.461 246.811 250.956 248.085 246.966C246.433 247.258 244.742 247.41 243.044 247.419Z" fill="#F27875"/>
<path d="M248.696 125.807H203.479V234.839H248.696V125.807Z" fill="#FFD3B6"/>
<path d="M220.435 230.645V125.807H203.479V234.839H221.232C220.727 233.472 220.459 232.063 220.435 230.645Z" fill="#F9B995"/>
<path d="M231.739 201.291H203.479V222.258H231.739V201.291Z" fill="#FF938D"/>
<path d="M220.435 201.291H203.479V222.258H220.435V201.291Z" fill="#F27875"/>
<path d="M158.26 71.2906H141.304V58.71H118.695V71.2906H101.739V88.0648H118.695V100.645H141.304V88.0648H158.26V71.2906Z" fill="#FF938D"/>
<path d="M180.87 201.291H90.4351V226.452H180.87V201.291Z" fill="#FF938D"/>
<path d="M90.4351 226.452H175.093C150.336 221.728 127.215 213.151 107.267 201.291H90.4351V226.452Z" fill="#F27875"/>
<path d="M180.87 0H79.1305C72.8873 0 67.8262 3.75503 67.8262 8.3871C67.8262 13.0192 72.8873 16.7742 79.1305 16.7742H180.87C187.113 16.7742 192.174 13.0192 192.174 8.3871C192.174 3.75503 187.113 0 180.87 0Z" fill="#E6E6E6"/>
<path d="M84.7827 8.3871C84.7827 6.1627 85.9737 4.02941 88.0937 2.45652C90.2136 0.883639 93.0889 0 96.087 0H79.1305C76.1324 0 73.2571 0.883639 71.1371 2.45652C69.0172 4.02941 67.8262 6.1627 67.8262 8.3871C67.8262 10.6115 69.0172 12.7448 71.1371 14.3177C73.2571 15.8906 76.1324 16.7742 79.1305 16.7742H96.087C93.0889 16.7742 90.2136 15.8906 88.0937 14.3177C85.9737 12.7448 84.7827 10.6115 84.7827 8.3871Z" fill="#CECECE"/>
<path d="M73.4785 117.42C73.4785 118.532 74.074 119.598 75.134 120.385C76.194 121.171 77.6316 121.613 79.1307 121.613H180.87C182.369 121.613 183.807 121.171 184.867 120.385C185.926 119.598 186.522 118.532 186.522 117.42C186.522 116.307 185.926 115.241 184.867 114.454C183.807 113.668 182.369 113.226 180.87 113.226H79.1307C77.6316 113.226 76.194 113.668 75.134 114.454C74.074 115.241 73.4785 116.307 73.4785 117.42Z" fill="black"/>
<path d="M50.8696 134.194C50.8696 135.306 51.4651 136.372 52.5251 137.159C53.5851 137.945 55.0228 138.387 56.5218 138.387H180.87C182.369 138.387 183.806 137.945 184.866 137.159C185.926 136.372 186.522 135.306 186.522 134.194C186.522 133.081 185.926 132.015 184.866 131.228C183.806 130.442 182.369 130 180.87 130H56.5218C55.0228 130 53.5851 130.442 52.5251 131.228C51.4651 132.015 50.8696 133.081 50.8696 134.194Z" fill="black"/>
<path d="M56.5218 155.161H180.87C182.369 155.161 183.806 154.719 184.866 153.933C185.926 153.146 186.522 152.08 186.522 150.967C186.522 149.855 185.926 148.789 184.866 148.002C183.806 147.216 182.369 146.774 180.87 146.774H56.5218C55.0228 146.774 53.5851 147.216 52.5251 148.002C51.4651 148.789 50.8696 149.855 50.8696 150.967C50.8696 152.08 51.4651 153.146 52.5251 153.933C53.5851 154.719 55.0228 155.161 56.5218 155.161Z" fill="black"/>
<path d="M56.5218 171.935H180.87C182.369 171.935 183.806 171.494 184.866 170.707C185.926 169.921 186.522 168.854 186.522 167.742C186.522 166.63 185.926 165.563 184.866 164.777C183.806 163.99 182.369 163.548 180.87 163.548H56.5218C55.0228 163.548 53.5851 163.99 52.5251 164.777C51.4651 165.563 50.8696 166.63 50.8696 167.742C50.8696 168.854 51.4651 169.921 52.5251 170.707C53.5851 171.494 55.0228 171.935 56.5218 171.935Z" fill="black"/>
<path d="M56.5218 188.71H158.261C159.76 188.71 161.198 188.268 162.258 187.482C163.318 186.695 163.913 185.629 163.913 184.516C163.913 183.404 163.318 182.337 162.258 181.551C161.198 180.765 159.76 180.323 158.261 180.323H56.5218C55.0228 180.323 53.5851 180.765 52.5251 181.551C51.4651 182.337 50.8696 183.404 50.8696 184.516C50.8696 185.629 51.4651 186.695 52.5251 187.482C53.5851 188.268 55.0228 188.71 56.5218 188.71Z" fill="black"/>
<path d="M254.348 83.8713V92.2584C254.348 93.3706 253.753 94.4372 252.693 95.2237C251.633 96.0101 250.195 96.4519 248.696 96.4519C247.197 96.4519 245.759 96.0101 244.699 95.2237C243.639 94.4372 243.044 93.3706 243.044 92.2584V83.8713C243.044 82.7591 243.639 81.6924 244.699 80.906C245.759 80.1196 247.197 79.6777 248.696 79.6777C250.195 79.6777 251.633 80.1196 252.693 80.906C253.753 81.6924 254.348 82.7591 254.348 83.8713Z" fill="white"/>
</svg>
