<svg width="260" height="260" viewBox="0 0 260 260" fill="none" xmlns="http://www.w3.org/2000/svg">
<path d="M56.875 12.1875H203.125V186.875H56.875V12.1875Z" fill="#6EC5E7"/>
<path d="M69.0625 12.1875H203.125V186.875H69.0625V12.1875Z" fill="#B5DEEB"/>
<path d="M255.938 178.75H117.812C113.949 174.886 109.361 171.821 104.312 169.729C99.2637 167.638 93.8525 166.562 88.3878 166.563H36.5625C34.4076 166.563 32.341 167.419 30.8173 168.942C29.2935 170.466 28.4375 172.533 28.4375 174.688C28.4375 176.842 29.2935 178.909 30.8173 180.433C32.341 181.956 34.4076 182.812 36.5625 182.812H24.375C22.2201 182.812 20.1535 183.669 18.6298 185.192C17.106 186.716 16.25 188.783 16.25 190.938C16.25 193.092 17.106 195.159 18.6298 196.683C20.1535 198.206 22.2201 199.062 24.375 199.062H16.25C14.0951 199.062 12.0285 199.919 10.5048 201.442C8.98102 202.966 8.125 205.033 8.125 207.188C8.125 209.342 8.98102 211.409 10.5048 212.933C12.0285 214.456 14.0951 215.312 16.25 215.312H24.375C22.2201 215.312 20.1535 216.169 18.6298 217.692C17.106 219.216 16.25 221.283 16.25 223.438C16.25 225.592 17.106 227.659 18.6298 229.183C20.1535 230.706 22.2201 231.562 24.375 231.562H52.8125C50.6576 231.562 48.591 232.419 47.0673 233.942C45.5435 235.466 44.6875 237.533 44.6875 239.688C44.6875 241.842 45.5435 243.909 47.0673 245.433C48.591 246.956 50.6576 247.812 52.8125 247.812H92.4503C97.915 247.813 103.326 246.737 108.375 244.646C113.424 242.554 118.011 239.489 121.875 235.625H255.938V178.75Z" fill="#E1B2AB"/>
<path d="M117.812 178.75C109.973 171 99.4115 166.626 88.3878 166.562H36.5625C34.4076 166.562 32.341 167.419 30.8173 168.942C29.2935 170.466 28.4375 172.533 28.4375 174.688C28.4375 176.842 29.2935 178.909 30.8173 180.433C32.341 181.956 34.4076 182.812 36.5625 182.812H24.375C22.2201 182.812 20.1535 183.669 18.6298 185.192C17.106 186.716 16.25 188.783 16.25 190.938C16.25 193.092 17.106 195.159 18.6298 196.683C20.1535 198.206 22.2201 199.062 24.375 199.062H16.25C14.0951 199.062 12.0285 199.919 10.5048 201.442C8.98102 202.966 8.125 205.033 8.125 207.188C8.125 209.342 8.98102 211.409 10.5048 212.933C12.0285 214.456 14.0951 215.312 16.25 215.312H24.375C22.2201 215.312 20.1535 216.169 18.6298 217.692C17.106 219.216 16.25 221.283 16.25 223.438C16.25 225.592 17.106 227.659 18.6298 229.183C20.1535 230.706 22.2201 231.562 24.375 231.562H52.8125C51.3836 231.554 49.9779 231.925 48.7391 232.637C47.5002 233.349 46.4725 234.377 45.7609 235.616C45.0492 236.855 44.679 238.261 44.6881 239.69C44.6973 241.119 45.0854 242.52 45.8128 243.75H84.3253C89.79 243.75 95.2012 242.674 100.25 240.583C105.299 238.492 109.886 235.427 113.75 231.562H190.938C205.311 231.556 219.148 226.104 229.663 216.305C240.178 206.506 246.59 193.087 247.609 178.75H117.812Z" fill="#FEE2D6"/>
<path d="M205.156 164.531L215.312 174.688L203.125 186.875L192.969 176.719" fill="#6EC5E7"/>
<path d="M206.307 183.66L212.051 177.916L238.452 204.317L232.708 210.061L206.307 183.66Z" fill="#B4B5B9"/>
<path d="M138.1 117.818L146.224 109.694L162.474 125.944L154.351 134.068L138.1 117.818Z" fill="#3177A6"/>
<path d="M125.913 113.753L142.163 97.5025L150.287 105.626L134.036 121.877L125.913 113.753Z" fill="#6EC5E7"/>
<path d="M113.75 69.0625C113.75 57.8459 93.4375 28.4375 93.4375 28.4375C93.4375 28.4375 73.125 57.8459 73.125 69.0625C73.125 74.4497 75.2651 79.6163 79.0744 83.4256C82.8837 87.2349 88.0503 89.375 93.4375 89.375C98.8247 89.375 103.991 87.2349 107.801 83.4256C111.61 79.6163 113.75 74.4497 113.75 69.0625Z" fill="#DD4334"/>
<path d="M125.938 24.375H174.688V32.5H125.938V24.375Z" fill="white"/>
<path d="M125.938 40.625H174.688V48.75H125.938V40.625Z" fill="white"/>
<path d="M125.938 56.875H190.938V65H125.938V56.875Z" fill="white"/>
<path d="M125.938 73.125H190.938V81.25H125.938V73.125Z" fill="white"/>
<path d="M69.0625 101.562H109.688V109.688H69.0625V101.562Z" fill="white"/>
<path d="M69.0625 117.812H113.75V125.938H69.0625V117.812Z" fill="white"/>
<path d="M69.0625 134.062H97.5V142.188H69.0625V134.062Z" fill="white"/>
<path d="M69.0625 150.312H134.062V158.438H69.0625V150.312Z" fill="white"/>
<path d="M166.562 89.375H190.938V97.5H166.562V89.375Z" fill="white"/>
<path d="M178.75 105.625H190.938V113.75H178.75V105.625Z" fill="white"/>
<path d="M76.6067 233.655L78.3455 230.758C81.1839 226.058 85.1847 222.168 89.9626 219.463C94.7406 216.758 100.135 215.328 105.625 215.312V207.188C98.7321 207.206 91.9602 209 85.9618 212.397C79.9635 215.793 74.941 220.677 71.3783 226.578L70.8258 227.5H17.3755C18.0836 228.731 19.1031 229.755 20.3316 230.468C21.5602 231.181 22.9547 231.559 24.3752 231.562H52.8127C51.3922 231.566 49.9977 231.944 48.7691 232.657C47.5406 233.37 46.5211 234.394 45.813 235.625H73.1252C73.8262 235.625 74.5152 235.443 75.1253 235.098C75.7354 234.753 76.2457 234.256 76.6067 233.655Z" fill="#E1B2AB"/>
<path d="M65.0002 178.75H29.563C30.2711 179.981 31.2906 181.005 32.5191 181.718C33.7477 182.431 35.1422 182.809 36.5627 182.812H24.3752C22.9547 182.816 21.5602 183.194 20.3316 183.907C19.1031 184.62 18.0836 185.644 17.3755 186.875H65.0002V178.75Z" fill="#E1B2AB"/>
<path d="M65.0002 195H17.3755C18.0836 196.231 19.1031 197.255 20.3316 197.968C21.5602 198.681 22.9547 199.059 24.3752 199.062H16.2502C14.8297 199.066 13.4352 199.444 12.2066 200.157C10.9781 200.87 9.95859 201.894 9.25049 203.125H65.0002V195Z" fill="#E1B2AB"/>
<path d="M65.0002 211.25H9.25049C9.96664 212.474 10.9879 213.492 12.2147 214.204C13.4415 214.916 14.8318 215.298 16.2502 215.312H24.3752C22.9547 215.316 21.5602 215.694 20.3316 216.407C19.1031 217.12 18.0836 218.144 17.3755 219.375H65.0002V211.25Z" fill="#E1B2AB"/>
<path d="M77.1877 65C77.1717 68.773 78.2113 72.4754 80.1891 75.6885C82.1669 78.9017 85.0039 81.4977 88.3797 83.183C91.7554 84.8683 95.5353 85.5759 99.2921 85.2257C103.049 84.8755 106.633 83.4815 109.639 81.2013C112.294 77.7104 113.738 73.4484 113.75 69.0625C113.75 59.0484 97.6017 34.6003 94.1283 29.4531C88.3555 38.3622 77.1877 56.6759 77.1877 65Z" fill="#DF573D"/>
<path d="M150.282 138.13L166.53 121.882L207.148 162.5L190.9 178.748L150.282 138.13Z" fill="#4197CD"/>
<path d="M154.343 134.067L166.529 121.881L203.087 158.438L190.9 170.625L154.343 134.067Z" fill="#6EC5E7"/>
</svg>
