<svg width="260" height="260" viewBox="0 0 260 260" fill="none" xmlns="http://www.w3.org/2000/svg">
<g clip-path="url(#clip0)">
<path d="M252.499 11.5513H153.167H143.877H61.5689C32.5846 11.5513 -40.4849 57.0019 29.282 209.109L29.1938 211.576C29.1148 213.987 31.0982 215.938 33.5042 215.798C47.7224 214.981 91.7331 209.23 103.364 169.479C103.364 169.479 193.262 175.485 205.134 97.1481C229.167 81.6293 252.424 57.485 259.847 20.4835C260.776 15.8711 257.199 11.5513 252.499 11.5513Z" fill="#B95150"/>
<path d="M140.529 123.03C52.7625 138.614 33.3885 178.51 29.5611 200.61L29.1942 211.577C29.1152 213.988 31.0986 215.938 33.5047 215.799C47.7228 214.982 91.7335 209.231 103.364 169.48C103.364 169.48 193.262 175.486 205.135 97.1489C173.508 117.573 140.529 123.03 140.529 123.03Z" fill="#7F2E2B"/>
<path d="M252.499 11.5513H153.167C153.167 49.9695 121.911 81.2252 83.493 81.2252C80.9243 81.2252 78.8481 79.149 78.8481 76.5803C78.8481 74.0117 80.9243 71.9354 83.493 71.9354C116.788 71.9354 143.877 44.8461 143.877 11.5513H61.5689C32.5846 11.5513 -40.4849 57.0019 29.282 209.114L29.5653 200.609C33.049 180.478 49.4596 145.595 118.683 127.754C118.901 127.698 119.129 127.647 119.352 127.586C122.143 126.876 125.033 126.197 127.996 125.543C128.79 125.366 129.589 125.19 130.398 125.018C133.681 124.321 137.035 123.647 140.537 123.025C140.537 123.025 140.677 123.002 140.876 122.965C140.914 122.96 140.988 122.941 141.03 122.937C141.253 122.895 141.55 122.839 141.926 122.77C142.005 122.756 142.112 122.732 142.2 122.714C142.604 122.635 143.083 122.537 143.626 122.421C143.738 122.398 143.868 122.37 143.984 122.342C144.578 122.212 145.247 122.063 145.981 121.896C146.097 121.868 146.214 121.841 146.334 121.813C147.175 121.618 148.09 121.399 149.084 121.148C149.117 121.139 149.149 121.13 149.182 121.125C154.574 119.769 162.127 117.59 170.804 114.306H170.808C172.513 113.661 174.264 112.969 176.048 112.235C176.108 112.212 176.173 112.184 176.234 112.16C178.003 111.431 179.806 110.66 181.636 109.838C181.673 109.819 181.715 109.806 181.752 109.787C189.281 106.405 197.257 102.244 205.148 97.1481C229.181 81.6294 252.438 57.485 259.861 20.4835C260.776 15.8711 257.199 11.5513 252.499 11.5513Z" fill="#B95150"/>
<path d="M83.4931 71.9354C80.9244 71.9354 78.8481 74.0117 78.8481 76.5803C78.8481 79.1489 80.9244 81.2252 83.4931 81.2252C121.911 81.2252 153.167 49.9695 153.167 11.5513H143.877C143.877 44.8461 116.783 71.9354 83.4931 71.9354Z" fill="#F7B563"/>
<path d="M125.297 141.609C113.559 141.609 103.512 148.916 99.411 159.209C95.3095 156.928 89.7913 155.544 83.4928 155.544C80.9242 155.544 78.8479 157.62 78.8479 160.189C78.8479 162.758 80.9242 164.834 83.4928 164.834C86.5352 164.834 89.0714 165.247 91.1523 165.823C75.8055 168.675 64.9131 177.422 64.9131 188.059C64.9131 190.627 66.9894 192.704 69.558 192.704C72.1267 192.704 74.2029 190.627 74.2029 188.059C74.2029 182.109 83.5393 175.568 97.4276 174.347V243.798C97.4276 246.367 99.5039 248.443 102.073 248.443C104.641 248.443 106.717 246.367 106.717 243.798V169.479C106.717 159.232 115.05 150.899 125.297 150.899C127.866 150.899 129.942 148.823 129.942 146.254C129.942 143.69 127.861 141.609 125.297 141.609Z" fill="#F7B563"/>
<path d="M116.007 164.834C113.439 164.834 111.362 166.91 111.362 169.479V243.798C111.362 246.366 113.439 248.443 116.007 248.443C118.576 248.443 120.652 246.366 120.652 243.798V169.479C120.652 166.915 118.571 164.834 116.007 164.834Z" fill="#F7B563"/>
</g>
<defs>
<clipPath id="clip0">
<rect width="260" height="260" fill="white"/>
</clipPath>
</defs>
</svg>
