<svg width="260" height="260" viewBox="0 0 260 260" fill="none" xmlns="http://www.w3.org/2000/svg">
<path d="M182.597 20.7456C166.347 56.8206 162.501 62.0748 162.501 76.754C162.501 83.7956 163.314 80.979 158.33 88.9956C154.43 85.854 155.839 86.6665 108.334 86.6665C98.9635 86.6665 104.651 93.7623 97.501 82.3331C97.501 61.5331 97.0135 64.0248 77.4052 20.7456C76.6523 19.0952 76.326 17.2821 76.4561 15.4728C76.5862 13.6634 77.1686 11.9157 78.1498 10.3899C79.1311 8.8642 80.4797 7.60928 82.0721 6.7403C83.6644 5.87133 85.4495 5.41612 87.2635 5.41645H104.597C107.186 5.381 109.701 6.27382 111.689 7.93319C113.676 9.59256 115.003 11.9088 115.43 14.4623L117.38 27.0831C117.863 30.0827 119.398 32.8122 121.711 34.7824C124.024 36.7526 126.963 37.8347 130.001 37.8347C133.039 37.8347 135.978 36.7526 138.291 34.7824C140.604 32.8122 142.139 30.0827 142.622 27.0831L144.734 14.2998C145.161 11.7463 146.489 9.43006 148.476 7.77069C150.463 6.11132 152.979 5.2185 155.568 5.25395H172.901C174.723 5.26818 176.512 5.74166 178.102 6.63059C179.692 7.51951 181.033 8.79516 181.999 10.3395C182.966 11.8839 183.527 13.6471 183.632 15.466C183.736 17.2849 183.38 19.1008 182.597 20.7456Z" fill="#DAD7E5"/>
<path d="M182.596 20.7456C169.325 49.9956 162.5 60.4498 162.5 75.8331H113.75C112.314 75.8331 110.936 75.2624 109.92 74.2466C108.904 73.2308 108.334 71.853 108.334 70.4164C108.263 62.9303 106.601 55.5448 103.459 48.7498C87.2086 13.3789 85.0419 11.6998 88.6711 5.41645H104.596C122.742 5.41645 109.688 33.0414 126.642 37.4831C128.379 37.945 130.193 38.0371 131.968 37.7534C133.742 37.4697 135.438 36.8165 136.944 35.8362C138.45 34.8559 139.734 33.5702 140.712 32.0624C141.69 30.5546 142.34 28.8582 142.621 27.0831L144.734 14.2998C145.161 11.7463 146.488 9.43006 148.475 7.77069C150.462 6.11132 152.978 5.2185 155.567 5.25395H172.9C174.722 5.26818 176.511 5.74166 178.101 6.63059C179.692 7.51951 181.032 8.79516 181.999 10.3395C182.965 11.8839 183.527 13.6471 183.631 15.466C183.736 17.2849 183.38 19.1008 182.596 20.7456Z" fill="#EDEBF2"/>
<path d="M162.5 211.249C162.5 214.122 161.359 216.878 159.327 218.909C157.295 220.941 154.54 222.082 151.667 222.082H108.333C105.46 222.082 102.705 220.941 100.673 218.909C98.6414 216.878 97.5 214.122 97.5 211.249C124.583 197.436 129.404 194.674 162.5 211.249Z" fill="#DAD7E5"/>
<path d="M151.667 222.083H108.333C102.35 222.083 97.5 226.933 97.5 232.916V243.75C97.5 249.733 102.35 254.583 108.333 254.583H151.667C157.65 254.583 162.5 249.733 162.5 243.75V232.916C162.5 226.933 157.65 222.083 151.667 222.083Z" fill="#DAD7E5"/>
<path d="M162.5 232.916C162.5 235.789 161.359 238.545 159.327 240.577C157.295 242.608 154.54 243.75 151.667 243.75H108.333C105.46 243.75 102.705 242.608 100.673 240.577C98.6414 238.545 97.5 235.789 97.5 232.916C97.5 230.043 98.6414 227.288 100.673 225.256C102.705 223.224 105.46 222.083 108.333 222.083H151.667C154.54 222.083 157.295 223.224 159.327 225.256C161.359 227.288 162.5 230.043 162.5 232.916ZM162.5 200.416C162.5 203.29 161.359 206.045 159.327 208.077C157.295 210.108 154.54 211.25 151.667 211.25H108.333C105.46 211.25 102.705 210.108 100.673 208.077C98.6414 206.045 97.5 203.29 97.5 200.416C97.5 197.543 98.6414 194.788 100.673 192.756C102.705 190.724 105.46 189.583 108.333 189.583H151.667C154.54 189.583 157.295 190.724 159.327 192.756C161.359 194.788 162.5 197.543 162.5 200.416Z" fill="#EDEBF2"/>
<path d="M158.329 88.9969C152.046 99.0719 148.471 108.334 137.258 108.334C111.421 108.334 114.238 109.093 101.671 88.9969C103.569 87.4985 105.915 86.6786 108.333 86.6677C153.346 86.6677 154.483 85.8011 158.329 88.9969Z" fill="#DAD7E5"/>
<path d="M157.354 88.3472C155.973 91.0653 153.876 93.3546 151.289 94.9679C148.702 96.5811 145.724 97.4572 142.675 97.5014C125.775 97.5014 120.521 99.6681 112.396 86.6681C155.459 86.6681 153.996 86.0722 157.354 88.3472Z" fill="#EDEBF2"/>
<path d="M220.674 168.622C230.207 201.717 194.457 227.501 164.774 212.388C136.174 198.088 131.841 193.809 97.4989 211.251C64.9989 228.638 30.0072 200.851 39.3239 168.622C35.5012 165.073 32.4518 160.773 30.3666 155.992C28.2814 151.21 27.2051 146.05 27.2051 140.834C27.2051 135.618 28.2814 130.458 30.3666 125.676C32.4518 120.895 35.5012 116.596 39.3239 113.047C37.9108 107.846 37.6226 102.403 38.4785 97.0824C39.3345 91.7614 41.315 86.684 44.2879 82.1888C47.2608 77.6935 51.1579 73.8837 55.7193 71.0132C60.2807 68.1428 65.4016 66.2777 70.7406 65.5424C86.9906 62.5633 90.0239 70.4174 97.4989 82.3341C115.157 110.501 110.824 108.334 137.257 108.334C141.23 108.385 145.084 106.978 148.091 104.38C152.316 100.588 166.507 75.2383 170.082 70.8508C184.436 52.9216 231.616 76.2674 220.891 113.047C224.699 116.61 227.732 120.922 229.799 125.711C231.865 130.501 232.922 135.665 232.901 140.881C232.881 146.098 231.784 151.253 229.681 156.027C227.577 160.8 224.51 165.088 220.674 168.622Z" fill="#DB5669"/>
<path d="M220.674 168.622C222.674 175.614 222.674 183.027 220.674 190.018C218.235 193.263 215.312 196.112 212.007 198.468C205.991 202.674 198.952 205.18 191.631 205.724C184.311 206.267 176.979 204.827 170.407 201.556C141.591 187.256 137.257 182.977 102.916 200.418C95.7966 204.488 87.6219 206.333 79.445 205.715C71.268 205.097 63.4633 202.045 57.0366 196.952C53.2639 192.293 50.6691 186.794 49.4717 180.92C48.2743 175.046 48.5095 168.97 50.1574 163.206C46.3347 159.657 43.2853 155.357 41.2001 150.576C39.1148 145.795 38.0386 140.635 38.0386 135.418C38.0386 130.202 39.1148 125.042 41.2001 120.261C43.2853 115.479 46.3347 111.18 50.1574 107.631C44.4157 87.7517 57.7949 68.035 67.1116 66.3017C76.1032 63.5392 86.2866 64.3517 91.4324 72.6392C108.332 100.048 111.041 108.335 122.741 108.335C140.345 108.335 138.991 108.66 143.487 107.089C155.403 102.756 164.557 69.1725 177.178 65.8683C199.928 59.3683 229.016 84.2308 220.512 113.048C224.345 116.585 227.407 120.876 229.506 125.651C231.605 130.426 232.696 135.583 232.712 140.8C232.727 146.016 231.666 151.179 229.595 155.966C227.523 160.754 224.486 165.062 220.674 168.622Z" fill="#F26674"/>
<path d="M111.855 149.878C110.906 148.793 110.428 147.376 110.524 145.939C110.621 144.501 111.284 143.161 112.369 142.213C113.454 141.265 114.871 140.786 116.308 140.883C117.745 140.979 119.086 141.643 120.034 142.728C122.852 145.015 126.371 146.263 130 146.263C133.63 146.263 137.149 145.015 139.967 142.728C140.922 141.693 142.242 141.071 143.647 140.993C145.053 140.915 146.433 141.388 147.497 142.31C148.56 143.233 149.223 144.533 149.344 145.935C149.465 147.338 149.035 148.732 148.146 149.823C143.253 154.475 136.762 157.073 130.011 157.083C123.26 157.093 116.762 154.514 111.855 149.878ZM160.604 128.157C159.715 127.066 159.286 125.671 159.407 124.269C159.528 122.866 160.191 121.566 161.254 120.643C162.317 119.721 163.698 119.249 165.103 119.327C166.509 119.405 167.829 120.027 168.784 121.061C171.602 123.348 175.121 124.596 178.75 124.596C182.38 124.596 185.899 123.348 188.717 121.061C189.672 120.027 190.992 119.405 192.397 119.327C193.803 119.249 195.183 119.721 196.247 120.643C197.31 121.566 197.972 122.866 198.094 124.269C198.215 125.671 197.785 127.066 196.896 128.157C192.002 132.813 185.506 135.41 178.75 135.41C171.995 135.41 165.498 132.813 160.604 128.157ZM160.604 176.907C159.715 175.816 159.286 174.421 159.407 173.019C159.528 171.616 160.191 170.316 161.254 169.393C162.317 168.471 163.698 167.999 165.103 168.077C166.509 168.155 167.829 168.777 168.784 169.811C171.602 172.098 175.121 173.346 178.75 173.346C182.38 173.346 185.899 172.098 188.717 169.811C189.672 168.777 190.992 168.155 192.397 168.077C193.803 167.999 195.183 168.471 196.247 169.393C197.31 170.316 197.972 171.616 198.094 173.019C198.215 174.421 197.785 175.816 196.896 176.907C192.002 181.563 185.506 184.16 178.75 184.16C171.995 184.16 165.498 181.563 160.604 176.907ZM63.1045 128.211C62.635 127.674 62.2759 127.05 62.0477 126.374C61.8195 125.698 61.7266 124.984 61.7744 124.272C61.8222 123.56 62.0097 122.865 62.3262 122.226C62.6427 121.587 63.082 121.016 63.6191 120.546C64.1561 120.077 64.7804 119.718 65.4562 119.49C66.1321 119.261 66.8462 119.169 67.558 119.216C68.2697 119.264 68.965 119.452 69.6043 119.768C70.2435 120.085 70.8142 120.524 71.2837 121.061C74.1019 123.348 77.6209 124.596 81.2503 124.596C84.8798 124.596 88.3988 123.348 91.217 121.061C92.1839 120.054 93.5019 119.46 94.8964 119.401C96.2909 119.343 97.6542 119.825 98.7019 120.747C99.7497 121.669 100.401 122.96 100.52 124.35C100.64 125.741 100.218 127.124 99.342 128.211C94.4446 132.839 87.9617 135.418 81.2233 135.418C74.4849 135.418 68.0019 132.839 63.1045 128.211ZM63.1045 176.961C62.1564 175.876 61.6779 174.46 61.7744 173.022C61.8222 172.31 62.0097 171.615 62.3262 170.976C62.6427 170.337 63.082 169.766 63.6191 169.296C64.1561 168.827 64.7804 168.468 65.4562 168.24C66.1321 168.011 66.8462 167.919 67.558 167.966C68.9954 168.063 70.3355 168.726 71.2837 169.811C74.1019 172.098 77.6209 173.346 81.2503 173.346C84.8798 173.346 88.3988 172.098 91.217 169.811C92.1839 168.804 93.5019 168.21 94.8964 168.151C96.2909 168.093 97.6542 168.575 98.7019 169.497C99.7497 170.419 100.401 171.71 100.52 173.1C100.64 174.491 100.218 175.874 99.342 176.961C94.4446 181.589 87.9617 184.168 81.2233 184.168C74.4849 184.168 68.0019 181.589 63.1045 176.961Z" fill="#C4455E"/>
</svg>
