<svg width="260" height="260" viewBox="0 0 260 260" fill="none" xmlns="http://www.w3.org/2000/svg">
<path d="M181.298 64.1938V44.8467H78.7028V64.1938C78.7028 66.9147 77.6217 69.5243 75.6981 71.4484L59.0642 88.0823C55.216 91.9305 53.0542 97.1493 53.0542 102.592V235.673C53.0542 247.005 62.241 256.192 73.5734 256.192H186.428C197.76 256.192 206.946 247.005 206.946 235.673V102.592C206.946 97.1498 204.785 91.9305 200.936 88.0823L184.302 71.4484C182.378 69.5243 181.298 66.9147 181.298 64.1938Z" fill="#E7A561"/>
<path d="M200.936 88.0823L184.302 71.4484C182.378 69.5243 181.298 66.9147 181.298 64.1938V44.8467H167.96V69.4695C167.96 72.1903 169.042 74.8 170.965 76.7241L187.599 93.358C191.447 97.2062 193.609 102.425 193.609 107.867V235.673C193.609 247.005 184.422 256.192 173.09 256.192H186.428C197.76 256.192 206.946 247.005 206.946 235.673V102.592C206.946 97.1493 204.784 91.93 200.936 88.0823Z" fill="#E49542"/>
<path d="M53.0542 119.997H206.946V222.592H53.0542V119.997Z" fill="#E4F6FF"/>
<path d="M193.609 119.997H206.946V222.592H193.609V119.997Z" fill="#B1E4F9"/>
<path d="M186.427 44.8465H73.5728C70.7397 44.8465 68.4429 42.5496 68.4429 39.7165V8.93803C68.4429 6.10494 70.7397 3.80811 73.5728 3.80811H186.427C189.26 3.80811 191.557 6.10494 191.557 8.93803V39.7165C191.557 42.5496 189.26 44.8465 186.427 44.8465Z" fill="#E4F6FF"/>
<path d="M186.427 3.80859H175.655C178.488 3.80859 180.785 6.10543 180.785 8.93852V39.717C180.785 42.5501 178.488 44.847 175.655 44.847H186.427C189.26 44.847 191.557 42.5501 191.557 39.717V8.93852C191.557 6.10543 189.26 3.80859 186.427 3.80859Z" fill="#B1E4F9"/>
<path d="M76.6509 185.914H178.219V202.329H76.6509V185.914Z" fill="#FFE07D"/>
<path d="M175.142 32.24C177.246 32.24 178.951 30.5348 178.951 28.4314V20.2236C178.951 18.1203 177.246 16.415 175.142 16.415C173.038 16.415 171.333 18.1203 171.333 20.2236V28.4314C171.333 30.5348 173.038 32.24 175.142 32.24Z" fill="white"/>
<path d="M152.571 32.24C154.675 32.24 156.38 30.5348 156.38 28.4314V20.2236C156.38 18.1203 154.675 16.415 152.571 16.415C150.467 16.415 148.763 18.1203 148.763 20.2236V28.4314C148.763 30.5348 150.467 32.24 152.571 32.24Z" fill="white"/>
<path d="M84.8584 16.415C82.755 16.415 81.0498 18.1203 81.0498 20.2236V28.4314C81.0498 30.5348 82.755 32.24 84.8584 32.24C86.9618 32.24 88.667 30.5348 88.667 28.4314V20.2236C88.667 18.1203 86.9618 16.415 84.8584 16.415Z" fill="white"/>
<path d="M107.429 16.415C105.326 16.415 103.621 18.1203 103.621 20.2236V28.4314C103.621 30.5348 105.326 32.24 107.429 32.24C109.533 32.24 111.238 30.5348 111.238 28.4314V20.2236C111.238 18.1203 109.533 16.415 107.429 16.415Z" fill="white"/>
<path d="M130 32.24C132.104 32.24 133.809 30.5348 133.809 28.4314V20.2236C133.809 18.1203 132.104 16.415 130 16.415C127.897 16.415 126.191 18.1203 126.191 20.2236V28.4314C126.191 30.5348 127.897 32.24 130 32.24Z" fill="white"/>
<path d="M133.809 169.499V136.669C133.809 134.566 132.104 132.86 130 132.86C127.897 132.86 126.191 134.566 126.191 136.669V169.499C126.191 171.602 127.897 173.308 130 173.308C132.104 173.308 133.809 171.602 133.809 169.499Z" fill="black"/>
<path d="M102.424 173.308H102.456C104.391 173.295 106.109 172.055 106.741 170.197L117.46 137.93C118.123 135.934 117.043 133.778 115.046 133.115C113.05 132.451 110.895 133.532 110.231 135.529L102.361 159.22L94.0997 135.42C93.4101 133.432 91.2397 132.382 89.2526 133.071C87.2655 133.76 86.2138 135.931 86.9035 137.918L98.1378 170.282C98.7822 172.095 100.502 173.308 102.424 173.308Z" fill="black"/>
<path d="M164.546 132.86H146.416C144.312 132.86 142.607 134.565 142.607 136.668C142.607 138.772 144.312 140.477 146.416 140.477H151.635V169.499C151.635 171.602 153.34 173.307 155.444 173.307C157.548 173.307 159.253 171.602 159.253 169.499V140.477H164.546C166.65 140.477 168.355 138.772 168.355 136.668C168.355 134.565 166.65 132.86 164.546 132.86Z" fill="black"/>
<path d="M172.577 173.09C175.693 173.09 178.22 170.563 178.22 167.447C178.22 164.331 175.693 161.804 172.577 161.804C169.46 161.804 166.934 164.331 166.934 167.447C166.934 170.563 169.46 173.09 172.577 173.09Z" fill="black"/>
</svg>
