<svg width="250" height="250" viewBox="0 0 250 250" fill="none" xmlns="http://www.w3.org/2000/svg">
<g style="mix-blend-mode:luminosity" opacity="0.72" clip-path="url(#clip0)">
<path d="M125 250C91.6113 250 60.2212 236.998 36.6113 213.389C13.0024 189.779 0 158.389 0 125C0 91.6113 13.0024 60.2212 36.6113 36.6113C60.2212 13.0024 91.6113 0 125 0C158.389 0 189.779 13.0024 213.389 36.6113C236.998 60.2212 250 91.6113 250 125C250 158.389 236.998 189.779 213.389 213.389C189.779 236.998 158.389 250 125 250Z" fill="#FFEB99"/>
<path d="M125 0V250C158.389 250 189.779 236.998 213.389 213.389C236.998 189.779 250 158.389 250 125C250 91.6113 236.998 60.2212 213.389 36.6113C189.779 13.0024 158.389 0 125 0V0Z" fill="#FAD180"/>
<path d="M117.576 167.742C119.255 177.816 116.64 187.172 110.402 193.411C104.164 199.649 94.8081 202.264 84.7334 200.585C75.4151 199.031 66.1382 194.031 58.6123 186.505C51.0865 178.98 46.0865 169.703 44.5332 160.384C42.854 150.31 45.4693 140.954 51.7071 134.715C57.9453 128.477 67.3013 125.862 77.376 127.542C86.6944 129.095 95.9712 134.095 103.497 141.621C111.023 149.147 116.023 158.423 117.576 167.742Z" fill="#F69AC7"/>
<path d="M51.707 134.715C57.9448 128.477 67.3013 125.862 77.376 127.542C86.6943 129.095 95.9712 134.095 103.497 141.621C111.023 149.147 116.023 158.423 117.576 167.742C119.255 177.816 116.64 187.172 110.402 193.411L51.707 134.715Z" fill="#F05CA5"/>
<path d="M188.527 129.933C179.081 139.379 167.247 145.411 155.206 146.916C142.479 148.506 131.016 144.928 122.927 136.838C114.837 128.749 111.259 117.286 112.85 104.56C114.355 92.5176 120.386 80.6836 129.832 71.2378C139.278 61.7915 151.112 55.7602 163.154 54.2553C175.88 52.6645 187.343 56.2431 195.433 64.3325C203.522 72.4218 207.101 83.8852 205.51 96.6113C204.005 108.653 197.974 120.487 188.527 129.933Z" fill="#F69AC7"/>
<path d="M195.433 64.333L122.927 136.839C131.016 144.928 142.479 148.507 155.206 146.916C167.248 145.411 179.082 139.38 188.527 129.934C197.974 120.487 204.005 108.653 205.51 96.6118C207.101 83.8853 203.522 72.4219 195.433 64.333Z" fill="#F05CA5"/>
<path d="M178.169 81.5951C175.31 78.7352 170.672 78.7352 167.812 81.5951C165.33 84.077 165.001 87.8969 166.827 90.7333C166.889 92.5472 165.753 97.4637 160.906 102.311C156.059 107.159 151.134 108.311 149.328 108.231C146.493 106.407 142.672 106.735 140.19 109.217C137.33 112.077 137.33 116.714 140.19 119.575C142.449 121.833 145.699 122.901 149.407 122.901C156.271 122.901 164.696 119.237 171.264 112.669C181.38 102.553 184.607 88.0326 178.169 81.5951Z" fill="#FFB6F8"/>
<path d="M160.906 102.312C157.61 105.607 154.281 107.193 151.919 107.847L140.19 119.575C142.449 121.834 145.699 122.902 149.407 122.902C156.271 122.902 164.696 119.237 171.264 112.67C181.38 102.554 184.607 88.0332 178.169 81.5957L166.432 93.3335C165.776 95.6963 164.199 99.0186 160.906 102.312Z" fill="#F69AC7"/>
<path d="M159.18 205.566C147.064 205.566 137.207 195.709 137.207 183.594C137.207 171.478 147.064 161.621 159.18 161.621C171.295 161.621 181.152 171.478 181.152 183.594C181.152 195.709 171.295 205.566 159.18 205.566Z" fill="#F69AC7"/>
<path d="M159.18 161.621V205.566C171.295 205.566 181.152 195.709 181.152 183.594C181.152 171.478 171.295 161.621 159.18 161.621Z" fill="#F05CA5"/>
<path d="M96.9238 85.435C90.1435 89.3495 82.7275 91.4438 76.0429 91.331C68.1093 91.1977 61.6972 87.8969 58.4516 82.2753C55.206 76.6537 55.5531 69.4501 59.4047 62.5126C62.6498 56.6669 68.1708 51.2919 74.9516 47.3769C81.7324 43.4618 89.1479 41.3681 95.8324 41.4809C103.766 41.6142 110.178 44.915 113.424 50.5366C116.669 56.1581 116.322 63.3618 112.471 70.2993C109.226 76.145 103.704 81.5204 96.9238 85.435Z" fill="#F69AC7"/>
<path d="M113.424 50.5371L58.4517 82.2754C61.6973 87.897 68.1094 91.1982 76.043 91.3311C82.728 91.4434 90.1436 89.3496 96.9243 85.4351C103.705 81.5205 109.226 76.145 112.471 70.2993C116.322 63.3623 116.669 56.1587 113.424 50.5371Z" fill="#F05CA5"/>
<path d="M41.9922 117.676C46.0372 117.676 49.3164 114.397 49.3164 110.352C49.3164 106.307 46.0372 103.027 41.9922 103.027C37.9471 103.027 34.668 106.307 34.668 110.352C34.668 114.397 37.9471 117.676 41.9922 117.676Z" fill="#F69AC7"/>
<path d="M90.8203 117.676C94.8654 117.676 98.1445 114.397 98.1445 110.352C98.1445 106.307 94.8654 103.027 90.8203 103.027C86.7753 103.027 83.4961 106.307 83.4961 110.352C83.4961 114.397 86.7753 117.676 90.8203 117.676Z" fill="#F69AC7"/>
<path d="M203.125 156.738C207.17 156.738 210.449 153.459 210.449 149.414C210.449 145.369 207.17 142.09 203.125 142.09C199.08 142.09 195.801 145.369 195.801 149.414C195.801 153.459 199.08 156.738 203.125 156.738Z" fill="#F05CA5"/>
</g>
<defs>
<clipPath id="clip0">
<rect width="250" height="250" fill="white"/>
</clipPath>
</defs>
</svg>
