
<svg width="375" height="450" viewBox="0 0 375 450" fill="none" xmlns="http://www.w3.org/2000/svg">
<g filter="url(#filter0_d)">
<g opacity="0.5">
<g opacity="0.5">
<path opacity="0.5" d="M245.594 114.938C215.975 114.938 196.963 137.016 187 156.899C177.037 137.015 158.025 114.938 128.406 114.938C90.8267 114.938 62 147.754 62 191.277C62 202.634 64.1128 213.118 68.0029 223.192H123.879L136.503 196.019C138.992 190.677 147.117 190.677 149.606 196.019L172.352 244.978L180.448 227.55C182.938 222.208 191.062 222.208 193.552 227.55L201.648 244.978L224.394 196.02C226.883 190.677 235.008 190.677 237.497 196.02L250.121 223.192H305.997C309.887 213.118 312 202.634 312 191.277C312 147.754 283.173 114.938 245.594 114.938Z" fill="black"/>
</g>
</g>
<g opacity="0.5">
<g opacity="0.5">
<path opacity="0.5" d="M245.594 238.958C242.818 238.958 240.287 237.272 239.042 234.601L230.945 217.173L208.2 266.131C206.956 268.802 204.424 270.488 201.649 270.488C198.873 270.488 196.341 268.802 195.097 266.131L187 248.703L178.903 266.131C176.414 271.473 168.289 271.473 165.8 266.131L143.055 217.173L134.958 234.601C133.714 237.272 131.182 238.958 128.406 238.958H75.6901C90.7648 264.484 117.914 288.73 151.874 319.577C161.408 328.237 171.55 337.451 182.2 347.389C183.581 348.675 185.29 349.314 187 349.314C188.709 349.314 190.419 348.675 191.799 347.389C202.449 337.451 212.591 328.237 222.126 319.577C256.086 288.73 283.235 264.484 298.309 238.958H245.594Z" fill="black"/>
</g>
</g>
</g>
<defs>
<filter id="filter0_d" x="58" y="108" width="258" height="258" filterUnits="userSpaceOnUse" color-interpolation-filters="sRGB">
<feFlood flood-opacity="0" result="BackgroundImageFix"/>
<feColorMatrix in="SourceAlpha" type="matrix" values="0 0 0 0 0 0 0 0 0 0 0 0 0 0 0 0 0 0 127 0"/>
<feOffset dy="4"/>
<feGaussianBlur stdDeviation="2"/>
<feColorMatrix type="matrix" values="0 0 0 0 0 0 0 0 0 0 0 0 0 0 0 0 0 0 0.25 0"/>
<feBlend mode="normal" in2="BackgroundImageFix" result="effect1_dropShadow"/>
<feBlend mode="normal" in="SourceGraphic" in2="effect1_dropShadow" result="shape"/>
</filter>
</defs>
</svg>
