<svg width="250" height="258" viewBox="0 0 250 258" fill="none" xmlns="http://www.w3.org/2000/svg">
<g clip-path="url(#clip0)" filter="url(#filter0_d)">
<g opacity="0.5">
<g opacity="0.5">
<g opacity="0.5">
<path opacity="0.5" d="M53.4372 55.6597L53.936 56.1152C54.8435 56.9429 55.7935 57.8149 56.7615 58.7104L56.7651 58.7134L56.7671 58.7153C60.8727 62.4526 64.739 66.4209 68.3463 70.5991L68.3852 70.6436C68.8748 71.2183 69.3624 71.8174 69.8525 72.418C70.2786 72.9385 70.7041 73.4614 71.1266 73.9985C71.3891 74.3335 71.6495 74.6753 71.911 75.0181C72.619 75.9414 73.3209 76.8906 74.0166 77.8657L74.1484 78.0508C76.5826 81.4839 78.7903 85.0581 80.7585 88.7524C80.8626 88.6763 80.9974 88.5933 81.1041 88.5166C81.95 87.9067 82.8431 87.2866 83.8393 86.6523C83.9444 86.5854 84.0628 86.519 84.17 86.4521C85.1036 85.8657 86.1172 85.2778 87.182 84.6904C87.4784 84.5273 87.768 84.3672 88.0746 84.2046C89.2723 83.5693 90.535 82.9429 91.8911 82.335C92.1249 82.23 92.3761 82.1313 92.615 82.0278C93.8547 81.4897 95.158 80.9727 96.5243 80.4766C96.8442 80.3604 97.1508 80.2412 97.4779 80.1279C99.0437 79.5845 100.691 79.0815 102.42 78.6182C102.787 78.52 103.168 78.4316 103.543 78.3374C105.165 77.9297 106.849 77.5615 108.612 77.2427C108.881 77.1943 109.132 77.1357 109.404 77.0894C111.356 76.7578 113.412 76.5029 115.536 76.3037C116.028 76.2578 116.526 76.2202 117.026 76.1821C119.245 76.0122 121.523 75.8926 123.927 75.8926C126.331 75.8926 128.609 76.0122 130.827 76.1821C131.328 76.2202 131.827 76.2578 132.317 76.3037C134.442 76.5029 136.498 76.7578 138.45 77.0894C138.721 77.1357 138.973 77.1938 139.242 77.2427C141.004 77.5605 142.688 77.9287 144.309 78.3364C144.685 78.4312 145.067 78.5195 145.436 78.6177C147.165 79.082 148.812 79.585 150.377 80.1274C150.704 80.2412 151.011 80.3599 151.331 80.4761C152.699 80.9722 154.002 81.4893 155.24 82.0273C155.478 82.1313 155.729 82.23 155.964 82.3345C157.32 82.9429 158.583 83.5688 159.78 84.2041C160.087 84.3672 160.377 84.5273 160.673 84.6909C161.736 85.2764 162.746 85.8628 163.678 86.4478C163.788 86.5166 163.91 86.585 164.018 86.6538C165.014 87.2871 165.906 87.9077 166.75 88.5166C166.856 88.5928 166.989 88.6738 167.092 88.7495C169.738 83.7739 172.819 79.019 176.301 74.5342L176.404 74.4004C177.125 73.4766 177.849 72.5771 178.579 71.7021C178.773 71.4688 178.966 71.228 179.16 70.9985C179.616 70.4614 180.074 69.9443 180.531 69.4248L180.615 69.3296L180.856 69.0518C181.736 68.0586 182.611 67.1025 183.481 66.1836L183.495 66.168C186.123 63.395 188.685 60.9365 191.088 58.7139L191.089 58.7124L191.093 58.7095C192.061 57.814 193.011 56.9419 193.918 56.1143L193.923 56.1108L194.417 55.6587C202.776 48.0356 208.301 42.9985 208.301 35.7134C208.302 12.5166 184.15 0 161.427 0C149.864 0 147.571 5.81787 144.518 16.1001C142.055 24.377 138.686 35.7144 123.928 35.7144C109.169 35.7144 105.8 24.377 103.337 16.1001C100.284 5.81787 97.9911 0 86.4279 0C63.7048 0 39.553 12.5166 39.553 35.7144C39.5535 42.9995 45.0783 48.0366 53.4372 55.6597Z" fill="black"/>
<path opacity="0.5" d="M159.69 94.6711C158.853 94.1101 157.967 93.5427 156.982 92.9705C156.526 92.7058 156.004 92.4456 155.515 92.1814C154.624 91.7004 153.697 91.2234 152.696 90.7571C152.087 90.4729 151.431 90.2014 150.782 89.9265C149.763 89.4968 148.693 89.0833 147.572 88.6863C146.838 88.4255 146.081 88.1736 145.301 87.9309C144.104 87.5593 142.83 87.2268 141.528 86.9075C140.703 86.7053 139.889 86.4978 139.021 86.3206C137.535 86.0178 135.94 85.7874 134.326 85.5701C133.515 85.4607 132.749 85.3201 131.905 85.2351C126.603 84.6833 121.254 84.6833 115.952 85.2351C115.108 85.3201 114.342 85.4607 113.531 85.5701C111.917 85.7874 110.322 86.0178 108.836 86.3206C107.968 86.4978 107.154 86.7053 106.329 86.9075C105.027 87.2263 103.752 87.5593 102.556 87.9309C101.777 88.1736 101.02 88.4255 100.285 88.6863C99.163 89.0833 98.093 89.4968 97.0753 89.9265C96.4257 90.2014 95.7695 90.4729 95.1609 90.7571C94.1601 91.2239 93.2332 91.7004 92.3416 92.1814C91.8535 92.4451 91.3311 92.7058 90.8748 92.9705C89.8894 93.5432 89.003 94.1106 88.1668 94.6711C87.9171 94.8386 87.6197 95.012 87.3834 95.1765C86.3939 95.8674 85.5305 96.5295 84.7666 97.1516C87.6079 103.913 89.8392 110.893 91.4362 118.015C95.7838 116.158 100.31 114.706 104.952 113.68C105.189 113.627 105.421 113.571 105.661 113.519C106.697 113.297 107.76 113.097 108.847 112.908C109.418 112.808 109.998 112.717 110.583 112.627C111.508 112.487 112.438 112.353 113.397 112.24C113.923 112.178 114.454 112.123 114.99 112.069C115.109 112.056 115.223 112.029 115.342 112.017C115.552 111.997 115.77 112.006 115.98 111.987L116.183 111.969C116.933 111.906 117.667 111.829 118.437 111.783C120.217 111.675 122.04 111.607 123.929 111.607C125.817 111.607 127.64 111.675 129.42 111.783C130.19 111.829 130.924 111.905 131.673 111.969L131.877 111.987C132.206 112.016 132.538 112.035 132.868 112.069C133.404 112.123 133.934 112.178 134.46 112.24C135.419 112.354 136.349 112.487 137.274 112.627C137.859 112.717 138.439 112.808 139.01 112.908C140.097 113.097 141.16 113.297 142.196 113.519C142.436 113.571 142.668 113.626 142.905 113.68C147.547 114.706 152.073 116.158 156.421 118.015C158.018 110.892 160.249 103.912 163.089 97.1506C162.325 96.5291 161.463 95.8669 160.474 95.177C160.237 95.0115 159.939 94.8381 159.69 94.6711Z" fill="black"/>
<path opacity="0.5" d="M224.241 103.322C220.574 97.7246 218.326 91.3906 217.677 84.8218C217.677 77.8462 211.241 71.2612 198.025 64.7412C197.897 64.8599 197.763 64.9868 197.633 65.1064L197.636 65.1094L195.479 67.1323C194.68 67.8955 193.854 68.7036 193.017 69.5386C192.704 69.8516 192.391 70.1792 192.077 70.4985C191.532 71.0527 190.985 71.6172 190.43 72.2041C190.082 72.5728 189.735 72.9512 189.387 73.3296C188.803 73.9658 188.216 74.6216 187.626 75.2964C187.34 75.6235 187.053 75.9492 186.768 76.2837C184.939 78.4316 183.099 80.7705 181.291 83.3501C181.21 83.4653 181.131 83.5859 181.049 83.7026C180.188 84.9409 179.339 86.2344 178.501 87.583C178.419 87.7134 178.338 87.8418 178.257 87.9727C176.33 91.1128 174.593 94.356 173.057 97.686L172.921 97.9868C172.059 99.8804 171.248 101.812 170.487 103.781C170.256 104.383 170.039 105.019 169.815 105.637C169.366 106.866 168.937 108.112 168.526 109.375C168.178 110.451 167.837 111.544 167.51 112.668C167.346 113.23 167.196 113.807 167.038 114.376C171.129 112.484 175.63 111.535 180.177 111.607C182.765 111.607 184.864 113.606 184.864 116.072C184.864 118.538 182.766 120.536 180.177 120.536C175.773 120.345 171.452 121.714 168.047 124.38C170.28 125.88 172.365 127.572 174.272 129.437C176.016 131.259 175.879 134.084 173.965 135.745C172.051 137.407 169.086 137.276 167.341 135.453C164.512 132.793 161.314 130.515 157.836 128.682C157.736 128.637 157.629 128.613 157.531 128.561L157.529 128.56L157.504 128.55C151.908 125.556 145.869 123.385 139.592 122.109C139.304 122.049 138.983 122.01 138.69 121.953C137.47 121.715 136.232 121.486 134.929 121.302L134.722 121.27C134.214 121.2 133.658 121.166 133.137 121.105C132.171 120.991 131.206 120.878 130.198 120.799C129.938 120.779 129.695 120.745 129.433 120.728C127.659 120.606 125.826 120.537 123.927 120.537C122.032 120.537 120.203 120.606 118.433 120.727C118.067 120.752 117.73 120.799 117.369 120.829C116.463 120.903 115.588 121.002 114.716 121.105C114.23 121.162 113.713 121.194 113.238 121.259C112.961 121.296 112.702 121.348 112.429 121.388C111.307 121.554 110.224 121.746 109.164 121.953C108.909 122.002 108.631 122.037 108.381 122.088C108.223 122.12 108.075 122.158 107.919 122.191C106.525 122.488 105.175 122.81 103.895 123.162L103.755 123.203C99.0835 124.483 94.5851 126.277 90.3503 128.55L90.3226 128.561L90.278 128.579C86.7107 130.43 83.4279 132.741 80.522 135.445C78.7783 137.263 75.8191 137.394 73.9057 135.738C71.9928 134.082 71.8477 131.263 73.5822 129.438C75.4899 127.573 77.5745 125.88 79.8088 124.38C76.4025 121.715 72.0805 120.347 67.677 120.538C65.0884 120.538 62.9895 118.539 62.9895 116.073C62.9895 113.607 65.0879 111.609 67.677 111.609C72.2241 111.537 76.725 112.485 80.8157 114.378C80.6583 113.809 80.5081 113.232 80.3441 112.67C80.017 111.546 79.6755 110.453 79.3279 109.376C78.9178 108.113 78.4881 106.867 78.039 105.639C77.8144 105.021 77.5981 104.385 77.3669 103.783C76.584 101.759 75.7586 99.771 74.8654 97.8281L74.8552 97.8052L74.8367 97.7681C71.2781 90.0151 66.6311 82.7578 61.0217 76.1963C60.85 75.9961 60.6782 75.8013 60.5075 75.604C59.8108 74.7998 59.1186 74.0288 58.4327 73.2827C58.1527 72.9795 57.8738 72.6733 57.5934 72.3765C56.9843 71.729 56.3845 71.1104 55.7897 70.5059C55.5267 70.2378 55.2627 69.9614 54.9992 69.6978C54.1665 68.8657 53.3473 68.0645 52.5582 67.311L50.2193 65.1113L50.2214 65.1079L49.8302 64.7427C36.6146 71.2622 30.1787 77.8477 30.1787 84.8232C29.5297 91.3921 27.282 97.7261 23.6142 103.323C15.585 116.724 11.3835 131.895 11.4286 147.323C11.4142 158.241 14.2889 168.986 19.7875 178.567C23.1164 184.02 25.0687 190.136 25.4912 196.431C25.4907 209.345 37.4887 250.001 58.3029 250.001C67.94 249.632 77.4453 247.737 86.4277 244.392V209.354C81.2756 213.708 74.5619 216.007 67.678 215.775C65.0894 215.775 62.9905 213.776 62.9905 211.311C62.9905 208.845 65.0889 206.846 67.678 206.846C72.5358 207.109 77.2848 205.408 80.7578 202.163C78.1677 200.5 75.7637 198.588 73.5837 196.457C71.8493 194.631 71.9939 191.813 73.9072 190.157C75.8201 188.501 78.7798 188.631 80.5235 190.45C84.1554 193.826 88.3436 196.612 92.9219 198.698C93.0147 198.735 93.1132 198.749 93.2034 198.792C97.7679 200.943 102.585 202.569 107.553 203.637C107.715 203.672 107.872 203.709 108.036 203.744C110.397 204.234 112.783 204.608 115.184 204.864C115.596 204.909 116.02 204.943 116.44 204.982C118.894 205.21 121.382 205.358 123.928 205.358C126.436 205.358 128.885 205.209 131.303 204.988C131.806 204.941 132.314 204.899 132.807 204.844C135.11 204.588 137.373 204.239 139.586 203.781C139.955 203.705 140.308 203.62 140.67 203.539C142.959 203.038 145.217 202.42 147.436 201.688C147.536 201.655 147.629 201.619 147.729 201.585C150.092 200.786 152.403 199.854 154.649 198.792L154.691 198.778C159.354 196.677 163.625 193.864 167.333 190.45C169.077 188.632 172.036 188.501 173.949 190.157C175.862 191.813 176.007 194.631 174.273 196.457C172.093 198.587 169.689 200.5 167.099 202.163C170.571 205.409 175.32 207.11 180.178 206.846C182.767 206.846 184.865 208.845 184.865 211.311C184.865 213.776 182.767 215.775 180.178 215.775C173.294 216.007 166.58 213.708 161.428 209.354V244.392C170.411 247.736 179.916 249.632 189.553 250.001C210.367 250.001 222.365 209.345 222.365 196.429C222.788 190.134 224.74 184.019 228.069 178.565C233.567 168.985 236.442 158.24 236.428 147.322C236.472 131.893 232.27 116.723 224.241 103.322Z" fill="black"/>
<path opacity="0.5" d="M139.276 212.941C138.675 213.047 138.069 213.141 137.463 213.235C135.901 213.475 134.288 213.67 132.628 213.83C131.993 213.891 131.365 213.967 130.725 214.015C128.535 214.177 126.285 214.286 123.927 214.286C121.57 214.286 119.319 214.178 117.128 214.015C116.492 213.968 115.869 213.892 115.238 213.832C113.57 213.671 111.949 213.475 110.382 213.233C109.783 213.141 109.187 213.049 108.593 212.944C104.295 212.194 100.072 211.091 95.9735 209.647C95.9181 209.627 95.8591 209.615 95.8027 209.595V224.243C96.6533 224.446 97.5023 224.657 98.3534 224.842C99.3695 225.063 100.385 225.286 101.402 225.48C102.965 225.779 104.531 226.029 106.096 226.265C107.022 226.405 107.947 226.562 108.873 226.679C110.673 226.908 112.475 227.073 114.277 227.22C114.971 227.276 115.663 227.361 116.357 227.406C121.398 227.729 126.456 227.729 131.496 227.406C132.19 227.362 132.883 227.277 133.576 227.22C135.378 227.073 137.18 226.908 138.98 226.679C139.906 226.561 140.832 226.405 141.757 226.265C143.323 226.029 144.888 225.778 146.452 225.48C147.468 225.286 148.484 225.063 149.5 224.842C150.352 224.658 151.201 224.447 152.051 224.243V209.597C151.981 209.622 151.907 209.638 151.837 209.663C147.758 211.097 143.555 212.194 139.276 212.941Z" fill="black"/>
<path opacity="0.5" d="M147.762 234.323C146.073 234.642 144.381 234.925 142.689 235.174C141.667 235.325 140.646 235.47 139.624 235.596C137.985 235.797 136.346 235.954 134.708 236.092C133.673 236.18 132.641 236.285 131.608 236.348C129.741 236.459 127.875 236.507 126.009 236.537C125.315 236.548 124.62 236.607 123.927 236.607C123.235 236.607 122.539 236.548 121.846 236.537C119.98 236.507 118.114 236.46 116.247 236.348C115.214 236.285 114.182 236.18 113.147 236.092C111.509 235.954 109.869 235.797 108.231 235.596C107.209 235.47 106.188 235.325 105.166 235.174C103.475 234.923 101.783 234.64 100.092 234.323C99.1445 234.146 98.197 233.973 97.2506 233.774C96.7686 233.673 96.2847 233.601 95.8027 233.494V247.45C95.8032 248.856 96.9994 249.997 98.4759 250H149.379C150.854 249.999 152.05 248.861 152.052 247.456V233.494C151.57 233.601 151.086 233.673 150.604 233.774C149.657 233.973 148.71 234.146 147.762 234.323Z" fill="black"/>
</g>
</g>
</g>
</g>
<defs>
<filter id="filter0_d" x="-4" y="0" width="258" height="258" filterUnits="userSpaceOnUse" color-interpolation-filters="sRGB">
<feFlood flood-opacity="0" result="BackgroundImageFix"/>
<feColorMatrix in="SourceAlpha" type="matrix" values="0 0 0 0 0 0 0 0 0 0 0 0 0 0 0 0 0 0 127 0"/>
<feOffset dy="4"/>
<feGaussianBlur stdDeviation="2"/>
<feColorMatrix type="matrix" values="0 0 0 0 0 0 0 0 0 0 0 0 0 0 0 0 0 0 0.25 0"/>
<feBlend mode="normal" in2="BackgroundImageFix" result="effect1_dropShadow"/>
<feBlend mode="normal" in="SourceGraphic" in2="effect1_dropShadow" result="shape"/>
</filter>
<clipPath id="clip0">
<rect width="250" height="250" fill="white"/>
</clipPath>
</defs>
</svg>
