<svg width="80" height="80" viewBox="0 0 450 450" fill="none" xmlns="http://www.w3.org/2000/svg">
<g clip-path="url(#clip0)">
<path d="M397.364 417.001C415.374 417.001 427.767 398.717 420.881 382.076C414.65 367.018 405.294 356.041 416.715 330.446C436.896 285.218 426.033 261.232 408.177 232.193C377.907 182.964 400.038 157.82 388.267 115.174C345.884 -38.3863 104.121 -38.396 61.7335 115.174C49.9623 157.82 72.0941 182.963 41.8236 232.193C23.9678 261.232 13.1054 285.218 33.2859 330.446C44.7065 356.041 35.3514 367.019 29.1199 382.076C22.2337 398.717 34.6272 417.001 52.6368 417.001H397.364Z" fill="#735351"/>
<path d="M416.715 330.446C436.896 285.218 426.033 261.232 408.177 232.193C377.907 182.964 400.038 157.82 388.267 115.174C365.723 33.4942 286.77 -4.74179 211.417 0.469248C277.733 5.0545 341.264 43.2904 361.105 115.174C372.876 157.82 350.744 182.964 381.015 232.193C398.871 261.232 409.733 285.218 389.552 330.446C378.132 356.041 387.487 367.019 393.718 382.076C400.605 398.717 388.211 417.001 370.201 417.001H397.364C415.374 417.001 427.767 398.717 420.881 382.076C414.65 367.018 405.294 356.04 416.715 330.446Z" fill="#664442"/>
<path d="M348.344 265.862C363.536 265.862 375.852 253.489 375.852 238.226C375.852 222.963 363.536 210.589 348.344 210.589C333.152 210.589 320.836 222.963 320.836 238.226C320.836 253.489 333.152 265.862 348.344 265.862Z" fill="#FAC8A2"/>
<path d="M101.656 265.862C116.848 265.862 129.164 253.489 129.164 238.226C129.164 222.963 116.848 210.589 101.656 210.589C86.4638 210.589 74.148 222.963 74.148 238.226C74.148 253.489 86.4638 265.862 101.656 265.862Z" fill="#FAC8A2"/>
<path d="M98.0271 450V429.574C98.0271 359.555 154.789 302.793 224.808 302.793H225.193C295.212 302.793 351.974 359.555 351.974 429.574V450H98.0271Z" fill="#FF80B3"/>
<path d="M225.192 302.793H224.807C220.285 302.793 215.818 303.031 211.418 303.493C275.143 310.182 324.81 364.078 324.81 429.574V450H351.973V429.574C351.973 359.555 295.211 302.793 225.192 302.793Z" fill="#FF6BA7"/>
<path d="M225.049 399.487H224.952C207.189 399.487 192.789 385.087 192.789 367.325V315.271H257.211V367.325C257.211 385.087 242.812 399.487 225.049 399.487Z" fill="#FFD8BA"/>
<path d="M159.384 88.2763C155.312 129.701 134.278 134.316 121.29 138.821C115.062 140.982 110.903 146.89 110.903 153.509V231.833C110.903 295.141 161.986 346.461 225.001 346.461C288.015 346.461 339.099 295.14 339.099 231.833V158.967C339.099 150.145 331.807 143.163 323.03 143.421C309.292 143.825 286.481 143.929 268.808 126.43C246.279 104.125 233.249 112.066 209.737 111.529C180.342 110.858 168.178 97.1629 163.247 87.538C162.306 85.7037 159.587 86.2231 159.384 88.2763Z" fill="#FDD2B5"/>
<path d="M182.663 256.53C174.143 256.53 166.133 253.212 160.109 247.187C149.629 236.708 149.629 219.658 160.108 209.179C165.051 204.236 172.234 201.951 178.857 203.213C184.816 204.348 189.619 208.198 192.035 213.774C194.007 218.328 194.009 222.55 193.085 226.112C191.7 231.453 184.856 233.01 181.25 228.834C179.801 227.157 179.151 224.881 179.692 222.732C180.33 220.203 179.819 217.222 176.314 216.553C174.085 216.129 171.49 217.003 169.712 218.781C164.529 223.964 164.529 232.398 169.712 237.582C173.441 241.311 178.494 243.234 183.811 242.912C189.287 242.581 194.237 239.638 197.619 235.319C201.602 230.235 203.43 223.8 202.635 217.147C201.982 211.682 199.488 206.668 195.592 202.781C189.975 197.176 182.267 194.306 173.927 194.714C165.274 195.129 157.021 199.124 151.849 205.399C143.248 215.834 141.629 227.536 146.754 242.229C148.08 246.029 145.829 250.21 141.776 251.105C138.398 251.85 134.996 249.782 133.865 246.514C127.292 227.514 129.815 210.776 141.368 196.76C149.046 187.443 160.676 181.753 173.274 181.147C185.175 180.572 196.231 184.606 204.519 192.516C211.364 199.049 215.577 207.785 216.287 217.221C217.136 228.514 213.124 239.278 205.217 247.185C199.193 253.212 191.183 256.53 182.663 256.53Z" fill="#B36DE8"/>
<path d="M260.842 255.889C255.618 254.861 248.407 250.834 244.661 247.051C236.976 239.291 233.017 228.813 233.688 217.792C234.269 208.235 238.526 199.193 245.441 192.57C253.734 184.625 264.802 180.571 276.739 181.148C289.337 181.754 300.966 187.445 308.646 196.762C320.198 210.778 322.721 227.516 316.148 246.515C315.017 249.784 311.614 251.852 308.237 251.106C304.184 250.211 301.934 246.03 303.26 242.23C308.384 227.538 306.766 215.834 298.165 205.4C292.994 199.125 284.739 195.13 276.086 194.714C267.751 194.313 260.083 197.161 254.47 202.734C250.559 206.616 248.048 211.631 247.384 217.101C246.575 223.768 248.401 230.22 252.388 235.315C255.773 239.64 260.729 242.585 266.212 242.914C271.527 243.233 276.575 241.31 280.301 237.583C285.485 232.399 285.485 223.965 280.301 218.781C278.523 217.003 275.927 216.128 273.699 216.553C270.194 217.222 269.684 220.204 270.322 222.733C270.862 224.88 270.213 227.156 268.766 228.832C265.16 233.008 258.313 231.452 256.929 226.11C256.005 222.548 256.007 218.326 257.979 213.773C260.394 208.198 265.197 204.348 271.158 203.212C277.773 201.951 284.962 204.235 289.905 209.178C295.073 214.346 297.877 221.248 297.774 228.572C297.653 237.201 293.21 245.186 286.272 250.318C279.129 255.603 270.064 257.704 260.842 255.889Z" fill="#B36DE8"/>
<path d="M159.236 171.666C156.504 171.666 153.931 170.008 152.895 167.306C151.551 163.804 153.301 159.876 156.802 158.533C157.454 158.282 172.995 152.444 189.335 157.146C192.94 158.183 195.021 161.944 193.985 165.549C192.949 169.154 189.185 171.234 185.583 170.198C173.754 166.797 161.786 171.169 161.668 171.214C160.866 171.52 160.044 171.666 159.236 171.666Z" fill="#735351"/>
<path d="M290.777 171.666C289.976 171.666 289.16 171.524 288.367 171.221C288.124 171.131 276.239 166.804 264.432 170.198C260.836 171.232 257.066 169.153 256.03 165.549C254.994 161.945 257.075 158.182 260.68 157.146C277.016 152.447 292.56 158.283 293.213 158.534C296.714 159.877 298.464 163.804 297.12 167.306C296.082 170.008 293.508 171.666 290.777 171.666Z" fill="#735351"/>
<path d="M225 308.898C235.178 308.898 243.43 300.646 243.43 290.468C243.43 280.289 235.178 272.038 225 272.038C214.822 272.038 206.57 280.289 206.57 290.468C206.57 300.646 214.822 308.898 225 308.898Z" fill="white"/>
</g>
<defs>
<clipPath id="clip0">
<rect width="450" height="450" fill="white"/>
</clipPath>
</defs>
</svg>
