<svg width="80" height="80" viewBox="0 0 450 450" fill="none" xmlns="http://www.w3.org/2000/svg">
<g clip-path="url(#clip0)">
<path d="M296.587 363.487L248.212 334.826L141.934 334.573L123.51 340.152L108.271 401.671L150.011 450H240.102L296.587 363.487Z" fill="#FAF8F8"/>
<path d="M25.2316 405.829L35.3529 440.464L136.632 450H151.733L148.477 443.783C130.343 409.2 125.241 361.729 123.885 342.926C123.814 341.989 123.698 341.062 123.51 340.152L68.6266 356.778C46.0594 363.62 29.2723 382.592 25.2316 405.829Z" fill="#F0E9E6"/>
<path d="M14.4279 450C8.87529 450 4.67226 444.982 5.64631 439.516L12.0383 403.635C16.9799 375.18 37.2368 352.337 64.8884 344.014L96.7857 334.424C103.344 332.452 110.051 337.056 110.542 343.887C112.181 366.681 117.767 414.031 136.63 450H14.4279Z" fill="#BAE6EF"/>
<path d="M317.003 214.226L322.761 215.811C336.535 219.603 344.616 233.882 340.81 247.703C335.562 266.767 315.906 277.981 296.908 272.75L98.2512 218.056C79.2529 212.826 68.1066 193.132 73.3551 174.067C77.1603 160.246 91.4106 152.115 105.185 155.908L110.942 157.493L317.003 214.226Z" fill="#FDD2B5"/>
<path d="M252.355 343.218L244.422 334.827L242.447 282.869H242.445V282.867L241.653 282.884L147.7 284.689C147.7 284.689 149.604 310.65 149.606 310.652L142.779 327.263L141.754 336.121C140.664 345.472 143.217 354.948 149.123 362.28C156.617 371.58 170.358 381.318 195.056 381.318C219.75 381.318 233.492 371.583 240.986 362.283C244.044 358.488 246.203 354.116 247.423 349.485C247.424 349.48 247.424 349.474 247.426 349.47L252.355 343.218Z" fill="#FDD2B5"/>
<path d="M248.213 334.827L242.45 282.869H242.441L241.657 282.887L147.704 284.688L144.6 311.501L142.78 327.263C151.691 334.024 161.182 338.841 171.101 341.57C177.764 343.399 184.855 344.335 192.196 344.335C203.197 344.335 214.922 342.197 227.012 338.089C229.684 337.181 232.515 338.942 232.826 341.747L232.834 341.82C233.019 343.494 234.147 344.914 235.736 345.475L247.4 349.59L247.427 349.483C247.427 349.483 247.427 349.474 247.427 349.465L252.351 343.221L248.213 334.827Z" fill="#F2BB88"/>
<path d="M317.003 214.226C304.949 258.008 300.145 272.157 275.521 292.001C241.557 319.372 204.572 334.131 175.365 326.09C146.159 318.049 121.94 286.439 106.771 245.542C97.5849 220.773 98.2459 206.497 105.738 176.948C107.215 171.123 113.733 163.294 115.718 156.084L128.197 54.1675L346.031 146.739L317.003 214.226Z" fill="#FDD2B5"/>
<path d="M133.945 56.6143L127.09 60.778C129.323 59.2189 131.609 57.8407 133.945 56.6143Z" fill="#F2BB88"/>
<path d="M346.032 146.739L317.261 213.636C316.022 201.907 310.985 189.889 302.918 180.748C276.337 150.643 234.317 170.059 194.889 109.327C194.88 109.324 194.874 109.314 194.876 109.305C194.298 108.414 193.725 107.507 193.145 106.589C191.444 103.863 187.523 103.755 185.686 106.395C184.046 108.756 182.382 111.036 180.671 113.22C171.763 124.572 161.707 133.238 147.932 136.967C131.405 141.446 110.665 169.902 105.738 176.946C107.222 171.119 108.962 164.697 110.946 157.491L127.091 60.7771L133.946 56.6133L346.032 146.739Z" fill="#F2BB88"/>
<path d="M133.945 56.6143L127.09 60.778C129.323 59.2189 131.609 57.8407 133.945 56.6143Z" fill="#F2BB88"/>
<path d="M190.531 78.2585C187.632 82.7193 184.325 93.738 181.255 97.6538C172.353 109.004 162.288 117.674 148.517 121.403C129.629 126.517 110.944 157.495 110.944 157.495C89.7059 151.648 88.9816 117.315 94.9767 95.5407C108.958 44.76 147.081 27.262 179.144 36.3522C183.063 37.4636 186.954 39.0754 190.712 41.4097C192.765 42.6844 194.616 46.2131 196.572 47.9542C199.016 46.47 201.669 43.0706 204.198 41.8307C227.296 30.5115 253.754 29.2859 279.502 36.5279C290.153 39.5232 298.486 45.148 308.606 50.9263C381.318 92.4428 364.991 206.409 317.722 210.076C317.722 210.076 318.252 205.004 318.101 201.459C317.557 188.687 312.356 175.21 303.503 165.182C276.923 135.073 234.907 154.495 195.476 93.7621C193.694 91.0228 192.297 81.335 190.531 78.2585Z" fill="#7A6D79"/>
<path d="M317.007 214.224C317.007 214.224 317.22 213.181 317.451 211.838C318.039 208.493 318.251 205 318.089 201.457C350.686 173.453 355.967 80.6132 293.598 45.0034C286.003 40.6648 278.172 37.0834 270.233 34.2969C284.026 37.0585 297.749 42.2891 310.797 49.7389C383.511 91.259 364.276 210.557 317.007 214.224Z" fill="#685E68"/>
<path d="M195.475 93.7603C194.177 91.765 192.884 89.6831 191.596 87.5102C190.929 86.3863 189.31 86.3444 188.586 87.4308C186.196 91.0157 183.771 94.4409 181.256 97.6548L190.707 41.416C192.278 42.3856 193.825 43.4836 195.338 44.7244C196.199 45.4299 197.41 45.4995 198.372 44.9411C200.288 43.8297 202.233 42.7915 204.2 41.837L195.475 93.7603Z" fill="#685E68"/>
<path d="M206.399 250.306C198.236 250.306 190.129 247.791 183.408 243.146C180.368 241.046 179.607 236.879 181.708 233.839C183.808 230.8 187.975 230.038 191.015 232.139C195.799 235.445 201.633 237.133 207.444 236.906C211.129 236.766 214.247 239.632 214.395 243.324C214.542 247.016 211.668 250.128 207.977 250.275C207.451 250.295 206.924 250.306 206.399 250.306Z" fill="#F2BB88"/>
<path d="M256.088 233.627C254.53 233.627 252.968 233.087 251.701 231.986L232.523 215.309C229.736 212.885 229.441 208.658 231.865 205.871C234.29 203.083 238.516 202.788 241.303 205.213L260.481 221.889C263.268 224.314 263.564 228.54 261.139 231.327C259.816 232.848 257.957 233.627 256.088 233.627Z" fill="#F2BB88"/>
<path d="M154.396 204.122C151.146 204.122 148.294 201.749 147.791 198.437C147.235 194.785 149.745 191.373 153.399 190.818L178.524 186.996C182.179 186.441 185.588 188.951 186.143 192.604C186.699 196.256 184.189 199.668 180.535 200.223L155.41 204.045C155.07 204.097 154.731 204.122 154.396 204.122Z" fill="#F2BB88"/>
<path d="M201.387 291.833C198.858 291.833 196.438 290.392 195.309 287.945C194.306 285.772 191.192 282.671 185.719 281.082C180.248 279.495 175.956 280.448 173.944 281.746C170.841 283.751 166.699 282.859 164.695 279.756C162.691 276.652 163.582 272.51 166.685 270.507C172.625 266.671 181.134 265.822 189.448 268.233C197.761 270.646 204.494 275.919 207.457 282.338C209.005 285.693 207.542 289.668 204.187 291.216C203.279 291.634 202.325 291.833 201.387 291.833Z" fill="#F2BB88"/>
<path d="M444.494 122.651C444.476 127.191 442.46 131.49 438.5 135.406C427.35 146.44 397.781 155.574 357.204 161.586C341.38 163.923 323.88 165.796 305.139 167.116C284.061 168.606 261.414 169.399 237.83 169.399C235.653 169.399 233.468 169.391 231.274 169.373C175.694 169.034 123.451 164.458 84.1498 156.51C39.8985 147.564 18.4106 135.914 18.4641 120.902C18.5265 105.168 44.2514 92.6709 94.9161 83.7779C95.0231 83.76 95.9597 83.6084 99.1441 83.091C97.5831 86.9979 96.1916 91.1456 94.9785 95.5431C94.8091 96.1675 94.6396 96.8008 94.479 97.4431C42.6101 106.88 31.8617 118.351 31.8439 120.956C31.8439 124.113 41.7003 134.273 86.799 143.398C90.0459 144.058 93.3908 144.691 96.816 145.298C103.274 146.449 110.035 147.51 117.064 148.491C150.487 153.121 189.948 155.734 231.354 155.993C233.593 156.011 235.832 156.02 238.044 156.02C256.686 156.02 274.294 155.529 290.716 154.637C316.494 153.246 339.365 150.873 358.801 147.858C396.3 142.051 421.008 133.89 429.089 125.897C430.374 124.622 431.105 123.418 431.114 122.597C431.132 118.307 416.601 105.257 350.541 95.8375C348.516 90.8602 346.09 86.0167 343.262 81.3784C348.382 82.0385 349.515 82.1812 349.578 82.1901C377.818 86.0881 400.225 91.0743 416.155 96.9971C435.262 104.097 444.538 112.491 444.494 122.651Z" fill="#F0E9E6"/>
<path d="M411.874 235.058C408.315 240.723 401.536 243.559 391.43 243.559C378.719 243.559 360.745 239.081 337.259 230.108C299.751 215.783 253.199 191.619 206.164 162.085C185.176 148.902 165.187 135.343 146.892 121.91C129.097 108.851 112.907 95.9177 98.9479 83.5905C95.1034 80.192 91.4374 76.8471 87.9497 73.5556C55.1158 42.5592 43.0561 21.2853 51.084 8.49429C56.4983 -0.122283 69.1467 -2.15601 89.7426 2.26824C106.708 5.91645 129.275 14.0514 155 25.7988C155.134 25.8523 160.709 28.332 166.873 31.0615C172.233 33.4342 175.846 35.0397 178.29 36.1191C167.8 33.3093 156.695 33.3271 146.018 36.4134C84.5869 8.82432 64.5797 12.1693 62.4211 15.6123C60.7264 18.3061 63.661 32.23 97.1372 63.8241C99.6258 66.1789 102.213 68.5516 104.897 70.96C120.855 85.3031 140.059 100.556 161.431 115.943C177.621 127.592 195.059 139.313 213.282 150.757C249.925 173.761 286.193 193.429 317.93 207.576C321.025 208.968 324.067 210.288 327.064 211.564C332.202 213.74 337.197 215.756 342.04 217.611C385.034 234.042 398.851 230.643 400.546 227.94C402.428 224.943 398.066 207.924 355.34 170.167C356.624 165.234 357.588 160.042 358.203 154.691C360.719 157.01 362.36 158.517 362.654 158.785C381.092 174.948 394.846 189.264 403.552 201.35C414.157 216.068 416.878 227.093 411.874 235.058Z" fill="#F0E9E6"/>
<path d="M241.636 443.783C255.281 417.763 261.543 384.459 264.387 361.549C264.869 357.669 262.475 354.014 258.731 352.887L247.416 349.482C248.558 345.165 248.879 340.625 248.353 336.112L248.21 334.827L266.567 340.349L321.37 356.832C344 363.638 333.846 432.265 333.846 432.265L253.482 450H238.38L241.636 443.783Z" fill="#F0E9E6"/>
<path d="M371.978 446.62C377.531 446.62 381.734 441.602 380.76 436.136L370.512 403.797C365.57 375.343 349.199 357.805 321.547 349.482L294.673 342.535C288.115 340.562 286.511 337.526 286.019 344.357C285.894 346.096 279.296 347.509 279.121 349.519C277 373.841 270.904 416.775 253.481 450.001H366.843L371.978 446.62Z" fill="#BAE6EF"/>
<path d="M279.117 349.518L308.276 358.286C335.928 366.608 356.185 389.452 361.126 417.906L366.844 450H375.683C381.241 450 385.442 444.978 384.47 439.519L378.074 403.635C373.132 375.18 352.875 352.337 325.224 344.014L293.326 334.425C286.77 332.454 280.063 337.057 279.572 343.889C279.447 345.629 279.296 347.511 279.117 349.518Z" fill="#94D8E6"/>
</g>
<defs>
<clipPath id="clip0">
<rect width="450" height="450" fill="white"/>
</clipPath>
</defs>
</svg>
