<svg width="80" height="80" viewBox="0 0 450 512" fill="none" xmlns="http://www.w3.org/2000/svg">
<path d="M447.206 474.25C446.663 478.118 442.985 481.015 438.636 481H408.253C404.986 481.013 401.997 479.357 400.548 476.733L397.346 470.991C384.302 447.911 377.343 422.456 377.004 396.586V395.655C377.293 383.743 376.801 371.826 375.532 359.965C372.565 340.373 367.254 321.125 359.691 302.552C359.691 302.552 325.066 341.345 342.379 411.172C346.604 433.687 342.114 456.82 329.654 476.733C328.173 479.367 325.154 481.02 321.863 481H128.137C124.846 481.02 121.827 479.367 120.346 476.733C107.886 456.82 103.396 433.687 107.621 411.172C124.934 341.345 90.3089 302.552 90.3089 302.552C83.5024 319.562 78.4321 337.091 75.1605 354.922C73.3079 368.433 72.5845 382.048 72.9964 395.655V396.586C72.6573 422.456 65.6979 447.911 52.6543 470.991L49.4515 476.733C48.0034 479.357 45.0139 481.013 41.7474 481H11.364C7.01463 481.015 3.33691 478.118 2.79435 474.25C-1.22658 440.372 -0.907109 406.192 3.74654 372.379C8.31402 344.088 11.2035 315.6 12.4028 287.034C12.4028 256 38.3715 240.483 29.7153 224.965C21.059 209.448 12.4028 155.138 90.3089 131.862C168.215 108.586 176.871 108.586 176.871 77.5517C177.058 65.3851 174.064 53.3482 168.129 42.4052C166.702 40.0037 166.783 37.1079 168.342 34.7735C169.901 32.4391 172.711 31.0072 175.746 31H274.254C277.289 31.0072 280.099 32.4391 281.658 34.7735C283.217 37.1079 283.298 40.0037 281.871 42.4052C275.936 53.3482 272.942 65.3851 273.129 77.5517C273.129 108.586 281.785 108.586 359.691 131.862C437.597 155.138 428.941 209.448 420.285 224.965C411.629 240.483 437.597 256 437.597 287.034C438.797 315.6 441.686 344.088 446.253 372.379C450.907 406.192 451.227 440.372 447.206 474.25Z" fill="#802D40"/>
<path d="M424.093 425.138C424.117 427.196 423.227 429.177 421.619 430.647C420.012 432.116 417.82 432.954 415.524 432.974H415.437C413.152 432.986 410.956 432.184 409.332 430.743C407.708 429.302 406.79 427.341 406.781 425.293C406.634 409.605 405.536 393.935 403.492 378.353C403.391 377.815 403.333 377.27 403.318 376.724L402.972 375.405V375.25L402.799 374.164C402.453 371.836 401.934 368.5 401.414 364.388V364.31C401.154 362.448 400.808 360.276 400.548 357.871C397.054 334.376 394.974 310.73 394.316 287.034C393.605 280.259 391.146 273.725 387.131 267.948C380.06 256.704 376 244.141 375.272 231.25C375.272 223.026 377.437 214.919 381.591 207.586C383.106 201.95 382.591 196.029 380.12 190.672C375.705 181.517 364.192 174.069 345.928 168.638L316.496 159.948C280.746 149.552 251.228 140.862 233.656 123.405V193.931C233.656 209.293 245.862 219.224 270.012 223.414C274.355 224.203 277.331 227.805 276.908 231.759C276.485 235.712 272.799 238.741 268.368 238.776C267.816 238.763 267.266 238.711 266.723 238.621C254.749 236.827 243.418 232.52 233.656 226.052V333.586C233.656 347.164 243.351 356.552 262.395 361.44C266.53 362.521 269.15 366.163 268.54 369.985C267.931 373.807 264.279 376.646 259.971 376.646C259.151 376.652 258.333 376.548 257.547 376.336C248.897 374.236 240.784 370.653 233.656 365.784V387.896C233.656 408.612 219.027 423.819 192.453 430.646C191.667 430.858 190.849 430.963 190.029 430.957C185.721 430.957 182.069 428.118 181.46 424.295C180.85 420.473 183.47 416.831 187.605 415.75C206.649 410.862 216.344 401.474 216.344 387.896V280.362C206.582 286.831 195.251 291.138 183.277 292.931C182.734 293.021 182.184 293.073 181.632 293.086C177.201 293.051 173.515 290.022 173.092 286.069C172.669 282.115 175.645 278.514 179.988 277.724C204.138 273.534 216.344 263.603 216.344 248.241V123.405C198.772 140.862 169.254 149.552 133.504 159.948L103.986 168.638C85.8077 174.069 74.2949 181.517 69.8802 190.672C67.3185 196.181 66.8918 202.3 68.6683 208.052C82.4317 232.569 69.8802 255.224 63.2149 267.327C59.0383 273.286 56.4604 280.032 55.684 287.034C55.684 299.759 54.4721 315.353 52.914 329.707L50.0574 353.991L48.5858 364.465C48.0665 368.5 47.5471 371.836 47.2009 374.164L47.0277 375.25C47.0407 375.359 47.01 375.469 46.9412 375.56L46.6815 377.345C46.6037 377.678 46.5459 378.015 46.5084 378.353C44.4638 393.935 43.3657 409.605 43.219 425.293C43.2098 427.341 42.2921 429.302 40.6683 430.743C39.0444 432.184 36.8477 432.986 34.5627 432.974H34.4762C32.1804 432.954 29.9877 432.116 28.3805 430.647C26.7734 429.177 25.8834 427.196 25.9065 425.138C26.0672 408.878 27.2231 392.638 29.369 376.491C29.369 376.414 29.4556 375.483 29.7153 373.931L31.4465 362.448V362.371C35.2371 337.386 37.5487 312.238 38.3715 287.034C38.9779 277.82 42.0669 268.875 47.374 260.965C53.7796 249.405 63.1283 232.646 53.0005 214.569C49.0263 204.792 49.3668 194.025 53.9527 184.465C60.4449 171.121 75.4202 160.879 98.5323 153.897L128.137 145.207C189.336 127.362 216.344 117.819 216.344 77.5517V31H233.656V77.5517C233.656 117.819 260.664 127.362 321.863 145.207L351.381 153.897C374.58 160.879 389.555 171.121 396.047 184.465C400.554 193.892 400.986 204.485 397.259 214.181C386.872 232.646 396.22 249.405 402.28 260.422C407.768 268.478 410.977 277.614 411.629 287.034C412.437 312.265 414.748 337.439 418.553 362.448L420.285 373.931C420.459 374.855 420.574 375.788 420.631 376.724C422.785 392.792 423.941 408.955 424.093 425.138Z" fill="#FF5364"/>
<path d="M294.25 256C308.592 256 320.219 245.579 320.219 232.724C320.219 219.869 308.592 209.448 294.25 209.448C279.908 209.448 268.281 219.869 268.281 232.724C268.281 245.579 279.908 256 294.25 256Z" fill="#FB7B76"/>
<path d="M155.75 310.31C170.092 310.31 181.719 299.89 181.719 287.035C181.719 274.18 170.092 263.759 155.75 263.759C141.408 263.759 129.781 274.18 129.781 287.035C129.781 299.89 141.408 310.31 155.75 310.31Z" fill="#FB7B76"/>
<path d="M285.594 395.655C299.936 395.655 311.562 385.234 311.562 372.379C311.562 359.524 299.936 349.104 285.594 349.104C271.252 349.104 259.625 359.524 259.625 372.379C259.625 385.234 271.252 395.655 285.594 395.655Z" fill="#FB7B76"/>
<path d="M164.406 449.965C178.748 449.965 190.375 439.544 190.375 426.689C190.375 413.835 178.748 403.414 164.406 403.414C150.064 403.414 138.438 413.835 138.438 426.689C138.438 439.544 150.064 449.965 164.406 449.965Z" fill="#FB7B76"/>
</svg>
