<svg width="100" height="100" viewBox="0 0 587 620" fill="none" xmlns="http://www.w3.org/2000/svg">
<g clip-path="url(#clip0)">
<path d="M390.765 222.27L400.969 185.684C415.834 132.383 375.759 79.6021 320.424 79.6021H287.576C232.241 79.6021 192.166 132.383 207.031 185.684L217.235 222.27L238.566 270.617H374.099L390.765 222.27Z" fill="#A59CA6"/>
<path d="M250.005 296.183H357.995V452.271H250.005V296.183Z" fill="#FFE0D1"/>
<path d="M273.605 296.183H250.005V452.271H278.945V403.75C278.945 394.765 286.298 387.632 295.283 387.656H295.452H312.547C325.787 387.656 338.434 383.52 349.129 375.692L357.994 369.194V312.288V296.182H273.605V296.183Z" fill="#FFD1C2"/>
<path d="M381.966 288.423L385.407 294.981C398.312 319.576 382.811 347.586 358.269 352.621C358.269 352.621 358.269 352.63 358.26 352.63L341.323 365.042C332.978 371.151 322.899 374.452 312.547 374.452H295.452C285.1 374.452 275.021 371.151 266.676 365.042L249.37 352.348C225.55 346.635 210.788 319.162 223.473 294.981L226.65 288.916L225.638 288.388L222.152 286.38L206.871 277.164C200.85 273.529 197.17 267.015 197.17 259.99V242.332C197.17 231.249 206.158 222.27 217.232 222.27C219.758 215.263 221.659 208.08 222.927 200.774C224.203 193.468 224.846 186.056 224.846 178.618V171.628C224.846 163.679 227.892 156.039 233.341 150.264C239.335 143.917 247.575 140.511 255.972 140.511C259.81 140.511 263.675 141.224 267.381 142.685L292.178 152.474C299.775 155.475 308.225 155.475 315.822 152.474L340.619 142.685C352.441 138.02 365.927 141.021 374.659 150.264C377.379 153.151 379.51 156.505 380.953 160.132C382.397 163.759 383.154 167.658 383.154 171.628V178.618C383.154 193.503 385.724 208.265 390.768 222.27C396.305 222.27 401.323 224.515 404.949 228.142C408.585 231.777 410.83 236.795 410.83 242.332V259.99C410.83 267.015 407.15 273.529 401.129 277.164L385.848 286.38L383.708 287.507L381.966 288.423Z" fill="#FDD2B5"/>
<path d="M226.921 179.225C233.46 172.302 242.448 168.585 251.609 168.585C255.796 168.585 260.011 169.363 264.053 170.957L291.103 181.634C299.39 184.909 308.608 184.909 316.895 181.634L343.945 170.957C356.841 165.868 371.552 169.141 381.078 179.224C381.824 180.016 382.528 180.84 383.192 181.693C383.167 180.669 383.152 179.643 383.152 178.617V171.627C383.152 167.657 382.395 163.758 380.952 160.131C379.508 156.504 377.378 153.15 374.658 150.263C365.925 141.02 352.44 138.019 340.618 142.684L315.82 152.473C308.224 155.474 299.773 155.474 292.176 152.473L267.379 142.684C263.673 141.223 259.809 140.51 255.971 140.51C247.573 140.51 239.334 143.916 233.339 150.263C227.89 156.038 224.844 163.679 224.844 171.627V178.617C224.844 179.642 224.829 180.667 224.805 181.691C225.469 180.839 226.174 180.016 226.921 179.225Z" fill="#FFD1C2"/>
<path d="M391.588 411.99L448.298 438.572C470.394 448.93 484.508 471.132 484.508 495.535V510.393C484.508 513.71 481.819 516.398 478.502 516.398H129.498C126.181 516.398 123.492 513.71 123.492 510.393V495.535C123.492 471.132 137.606 448.93 159.702 438.572L216.412 411.99L243.171 402.177L304 423.778L364.882 398.854L391.588 411.99Z" fill="#F8F3F2"/>
<path d="M391.588 411.99L364.882 398.854L304 420.355L259.235 407.882L243.324 417.602V402.231L243.171 402.177L216.412 411.99L159.701 438.572C137.605 448.93 123.491 471.132 123.491 495.535V510.393C123.491 513.71 126.18 516.398 129.497 516.398H161.793V510.438C161.793 486.035 175.906 463.833 198.002 453.475L212.683 446.593C218.835 443.71 226.092 444.597 231.368 448.878L248.964 463.154C254.324 467.502 261.016 469.876 267.918 469.876H267.919C276.094 469.876 283.918 466.552 289.592 460.665L303.998 445.722L318.405 460.666C324.046 466.519 331.946 469.876 340.078 469.876C346.958 469.876 353.691 467.487 359.036 463.15L398.388 431.224C402.331 428.024 405.429 423.978 407.515 419.456L391.588 411.99Z" fill="#F2EAE7"/>
<path d="M304 420.355L245.491 385.317C239.502 381.731 231.843 382.667 226.895 387.59L219.554 394.895C213.129 401.288 213.663 411.842 220.702 417.553L260.053 449.479C265.09 453.565 272.417 453.117 276.918 448.448L304 420.355Z" fill="#F8F3F2"/>
<path d="M304 420.355L362.509 385.317C368.497 381.731 376.156 382.667 381.104 387.59L388.446 394.895C394.871 401.288 394.337 411.842 387.297 417.553L347.946 449.479C342.91 453.565 335.583 453.117 331.081 448.448L304 420.355Z" fill="#F8F3F2"/>
<path d="M240.746 211.082C241.971 212.077 243.442 212.56 244.906 212.56C246.825 212.56 248.729 211.727 250.033 210.121C253 206.47 257.401 204.374 262.107 204.374H280.208C283.855 204.374 286.81 201.419 286.81 197.772C286.81 194.126 283.855 191.17 280.208 191.17H262.107C253.408 191.17 245.273 195.043 239.787 201.794C237.486 204.625 237.916 208.782 240.746 211.082Z" fill="black"/>
<path d="M328.672 204.375H346.773C351.479 204.375 355.88 206.469 358.847 210.121C360.152 211.728 362.056 212.561 363.975 212.561C365.437 212.561 366.91 212.077 368.134 211.083C370.964 208.783 371.394 204.625 369.094 201.795C363.608 195.044 355.472 191.172 346.774 191.172H328.673C325.026 191.172 322.071 194.128 322.071 197.774C322.071 201.42 325.026 204.375 328.672 204.375Z" fill="black"/>
<path d="M293.056 257.33C289.863 259.09 288.702 263.106 290.461 266.299L290.703 266.738C293.499 271.809 298.623 274.943 304.411 275.121C304.584 275.126 304.757 275.129 304.929 275.129C310.514 275.129 315.598 272.34 318.605 267.599L319.208 266.65C321.164 263.572 320.252 259.493 317.174 257.538C314.095 255.583 310.014 256.494 308.062 259.573L307.457 260.524C306.655 261.788 305.452 261.945 304.816 261.924C304.174 261.905 302.989 261.676 302.267 260.364L302.025 259.924C300.265 256.73 296.25 255.57 293.056 257.33Z" fill="black"/>
<path d="M304 308.1C292.494 308.1 281.904 313.356 274.949 322.522C272.744 325.426 273.312 329.567 276.216 331.771C279.12 333.976 283.263 333.408 285.466 330.504C289.904 324.657 296.659 321.304 304 321.304C311.341 321.304 318.096 324.657 322.534 330.504C323.832 332.215 325.803 333.115 327.797 333.115C329.188 333.115 330.59 332.676 331.783 331.771C334.688 329.567 335.255 325.426 333.05 322.522C326.096 313.356 315.506 308.1 304 308.1Z" fill="black"/>
<path d="M287.972 241.768L290.21 242.208C293.789 242.909 297.258 240.577 297.96 236.999C298.662 233.421 296.329 229.952 292.751 229.25L290.513 228.811C272.761 225.332 254.567 227.2 237.892 234.221L236.002 235.017C232.643 236.432 231.067 240.304 232.481 243.664C233.545 246.187 235.992 247.704 238.568 247.704C239.423 247.704 240.292 247.537 241.128 247.185L243.016 246.39C257.259 240.393 272.808 238.794 287.972 241.768Z" fill="black"/>
<path d="M318.67 242.208L320.908 241.768C336.074 238.795 351.62 240.392 365.862 246.39L367.751 247.185C368.587 247.538 369.457 247.705 370.311 247.705C372.887 247.705 375.334 246.187 376.398 243.664C377.812 240.304 376.236 236.433 372.877 235.017L370.987 234.222C354.315 227.201 336.117 225.331 318.368 228.812L316.129 229.251C312.551 229.952 310.218 233.422 310.92 237C311.622 240.576 315.084 242.914 318.67 242.208Z" fill="black"/>
<path d="M410.143 310.842C412.563 313.586 418.058 315.23 423.835 315.23C425.79 315.23 427.779 315.041 429.693 314.643L452.621 309.865C460.178 308.29 463.678 304.036 460.438 300.362C457.201 296.688 448.454 294.985 440.887 296.56L417.959 301.338C410.403 302.913 406.904 307.168 410.143 310.842Z" fill="black"/>
<path d="M452.622 339.569L429.694 335.043C422.129 333.55 413.383 335.164 410.143 338.644C406.903 342.124 410.405 346.155 417.96 347.647L440.888 352.174C442.802 352.551 444.791 352.73 446.746 352.73C452.523 352.73 458.019 351.172 460.437 348.573C463.679 345.092 460.179 341.061 452.622 339.569Z" fill="black"/>
<path d="M158.616 309.866L179.845 314.643C181.617 315.042 183.459 315.23 185.269 315.23C190.618 315.23 195.708 313.586 197.947 310.842C200.946 307.168 197.704 302.914 190.708 301.339L169.479 296.561C162.476 294.984 154.374 296.689 151.376 300.362C148.378 304.036 151.618 308.291 158.616 309.866Z" fill="black"/>
<path d="M164.055 352.73C165.866 352.73 167.707 352.55 169.479 352.174L190.708 347.647C197.706 346.155 200.946 342.124 197.946 338.643C194.949 335.164 186.848 333.551 179.844 335.042L158.615 339.569C151.618 341.061 148.377 345.092 151.377 348.572C153.617 351.173 158.707 352.73 164.055 352.73Z" fill="black"/>
</g>
<defs>
<clipPath id="clip0">
<rect width="450" height="450" fill="white" transform="translate(79 73)"/>
</clipPath>
</defs>
</svg>