<svg width="80" height="80" viewBox="0 0 450 450" fill="none" xmlns="http://www.w3.org/2000/svg">
<g clip-path="url(#clip0)">
<path d="M311.765 149.27L321.969 112.684C336.834 59.3831 296.759 6.60205 241.424 6.60205H208.576C153.241 6.60205 113.166 59.3831 128.031 112.684L138.235 149.27L159.566 197.617H295.099L311.765 149.27Z" fill="#A59CA6"/>
<path d="M171.005 223.183H278.995V379.271H171.005V223.183Z" fill="#FFE0D1"/>
<path d="M194.605 223.183H171.005V379.271H199.945V330.75C199.945 321.765 207.298 314.632 216.283 314.656H216.452H233.547C246.787 314.656 259.434 310.52 270.129 302.692L278.994 296.194V239.288V223.182H194.605V223.183Z" fill="#FFD1C2"/>
<path d="M302.966 215.423L306.407 221.981C319.312 246.576 303.811 274.586 279.269 279.621C279.269 279.621 279.269 279.63 279.26 279.63L262.323 292.042C253.978 298.151 243.899 301.452 233.547 301.452H216.452C206.1 301.452 196.021 298.151 187.676 292.042L170.37 279.348C146.55 273.635 131.788 246.162 144.473 221.981L147.65 215.916L146.638 215.388L143.152 213.38L127.871 204.164C121.85 200.529 118.17 194.015 118.17 186.99V169.332C118.17 158.249 127.158 149.27 138.232 149.27C140.758 142.263 142.659 135.08 143.927 127.774C145.203 120.468 145.846 113.056 145.846 105.618V98.6283C145.846 90.6795 148.892 83.0387 154.341 77.2641C160.335 70.9174 168.575 67.5107 176.972 67.5107C180.81 67.5107 184.675 68.2238 188.381 69.685L213.178 79.4736C220.775 82.4754 229.225 82.4754 236.822 79.4736L261.619 69.685C273.441 65.0196 286.927 68.0213 295.659 77.2641C298.379 80.1514 300.51 83.5053 301.953 87.132C303.397 90.7587 304.154 94.6583 304.154 98.6283V105.618C304.154 120.503 306.724 135.265 311.768 149.27C317.305 149.27 322.323 151.515 325.949 155.142C329.585 158.777 331.83 163.795 331.83 169.332V186.99C331.83 194.015 328.15 200.529 322.129 204.164L306.848 213.38L304.708 214.507L302.966 215.423Z" fill="#FDD2B5"/>
<path d="M147.921 106.225C154.46 99.3016 163.448 95.5851 172.609 95.5851C176.796 95.5851 181.011 96.3633 185.053 97.9566L212.103 108.634C220.39 111.909 229.608 111.909 237.895 108.634L264.945 97.9566C277.841 92.8677 292.552 96.1415 302.078 106.224C302.824 107.016 303.528 107.84 304.192 108.693C304.167 107.669 304.152 106.643 304.152 105.617V98.6274C304.152 94.6573 303.395 90.7577 301.952 87.131C300.508 83.5043 298.378 80.1505 295.658 77.2632C286.925 68.0203 273.44 65.0186 261.618 69.684L236.82 79.4726C229.224 82.4744 220.773 82.4744 213.176 79.4726L188.379 69.684C184.673 68.2228 180.809 67.5098 176.971 67.5098C168.573 67.5098 160.334 70.9164 154.339 77.2632C148.89 83.0378 145.844 90.6785 145.844 98.6274V105.617C145.844 106.642 145.829 107.667 145.805 108.691C146.469 107.839 147.174 107.016 147.921 106.225Z" fill="#FFD1C2"/>
<path d="M312.588 338.99L369.298 365.572C391.394 375.93 405.508 398.132 405.508 422.535V437.393C405.508 440.71 402.819 443.398 399.503 443.398H50.4979C47.181 443.398 44.4927 440.71 44.4927 437.393V422.535C44.4927 398.132 58.6061 375.93 80.7026 365.572L137.412 338.99L164.171 329.177L225 350.778L285.882 325.854L312.588 338.99Z" fill="#F8F3F2"/>
<path d="M312.588 338.99L285.882 325.854L225 347.355L180.236 334.882L164.324 344.602V329.231L164.171 329.177L137.412 338.99L80.7017 365.572C58.6051 375.93 44.4917 398.132 44.4917 422.535V437.393C44.4917 440.71 47.1801 443.398 50.4969 443.398H82.7932V437.438C82.7932 413.035 96.9066 390.833 119.002 380.475L133.683 373.593C139.835 370.71 147.093 371.597 152.368 375.878L169.964 390.154C175.324 394.502 182.016 396.876 188.919 396.876H188.92C197.095 396.876 204.919 393.552 210.593 387.665L224.998 372.722L239.405 387.666C245.047 393.519 252.946 396.876 261.078 396.876C267.958 396.876 274.691 394.487 280.036 390.15L319.388 358.224C323.331 355.024 326.429 350.978 328.515 346.456L312.588 338.99Z" fill="#F2EAE7"/>
<path d="M225 347.355L166.491 312.317C160.503 308.731 152.843 309.667 147.895 314.59L140.554 321.895C134.129 328.288 134.663 338.842 141.703 344.553L181.053 376.479C186.09 380.565 193.417 380.117 197.919 375.448L225 347.355Z" fill="#F8F3F2"/>
<path d="M225 347.355L283.509 312.317C289.497 308.731 297.157 309.667 302.105 314.59L309.446 321.895C315.871 328.288 315.337 338.842 308.297 344.553L268.947 376.479C263.91 380.565 256.583 380.117 252.082 375.448L225 347.355Z" fill="#F8F3F2"/>
<path d="M161.746 138.082C162.971 139.077 164.442 139.56 165.906 139.56C167.825 139.56 169.729 138.727 171.033 137.121C174 133.47 178.401 131.374 183.107 131.374H201.208C204.855 131.374 207.81 128.419 207.81 124.772C207.81 121.126 204.855 118.17 201.208 118.17H183.107C174.408 118.17 166.273 122.043 160.787 128.794C158.486 131.625 158.916 135.782 161.746 138.082Z" fill="black"/>
<path d="M249.672 131.375H267.773C272.479 131.375 276.88 133.469 279.847 137.121C281.152 138.728 283.056 139.561 284.975 139.561C286.437 139.561 287.91 139.077 289.134 138.083C291.964 135.783 292.394 131.625 290.094 128.795C284.608 122.044 276.472 118.172 267.774 118.172H249.673C246.026 118.172 243.071 121.128 243.071 124.774C243.071 128.42 246.026 131.375 249.672 131.375Z" fill="black"/>
<path d="M214.056 184.33C210.863 186.09 209.702 190.106 211.461 193.299L211.703 193.738C214.499 198.809 219.623 201.943 225.411 202.121C225.584 202.126 225.757 202.129 225.929 202.129C231.514 202.129 236.598 199.34 239.605 194.599L240.208 193.65C242.164 190.572 241.252 186.493 238.174 184.538C235.095 182.583 231.014 183.494 229.062 186.573L228.457 187.524C227.655 188.788 226.452 188.945 225.816 188.924C225.174 188.905 223.989 188.676 223.267 187.364L223.025 186.924C221.265 183.73 217.25 182.57 214.056 184.33Z" fill="black"/>
<path d="M225 235.1C213.494 235.1 202.904 240.356 195.949 249.522C193.744 252.426 194.312 256.567 197.216 258.771C200.12 260.976 204.263 260.408 206.466 257.504C210.904 251.657 217.659 248.304 225 248.304C232.341 248.304 239.096 251.657 243.534 257.504C244.832 259.215 246.803 260.115 248.797 260.115C250.188 260.115 251.59 259.676 252.783 258.771C255.688 256.567 256.255 252.426 254.05 249.522C247.096 240.356 236.506 235.1 225 235.1Z" fill="black"/>
<path d="M208.972 168.768L211.21 169.208C214.789 169.909 218.258 167.577 218.96 163.999C219.662 160.421 217.329 156.952 213.751 156.25L211.513 155.811C193.761 152.332 175.567 154.2 158.892 161.221L157.002 162.017C153.643 163.432 152.067 167.304 153.481 170.664C154.545 173.187 156.992 174.704 159.568 174.704C160.423 174.704 161.292 174.537 162.128 174.185L164.016 173.39C178.259 167.393 193.808 165.794 208.972 168.768Z" fill="black"/>
<path d="M239.67 169.208L241.908 168.768C257.074 165.795 272.62 167.392 286.862 173.39L288.751 174.185C289.587 174.538 290.457 174.705 291.311 174.705C293.887 174.705 296.334 173.187 297.398 170.664C298.812 167.304 297.236 163.433 293.877 162.017L291.987 161.222C275.315 154.201 257.117 152.331 239.368 155.812L237.129 156.251C233.551 156.952 231.218 160.422 231.92 164C232.622 167.576 236.084 169.914 239.67 169.208Z" fill="black"/>
<path d="M331.143 237.842C333.563 240.586 339.058 242.23 344.835 242.23C346.79 242.23 348.779 242.041 350.693 241.643L373.621 236.865C381.178 235.29 384.678 231.036 381.438 227.362C378.201 223.688 369.454 221.985 361.887 223.56L338.959 228.338C331.403 229.913 327.904 234.168 331.143 237.842Z" fill="black"/>
<path d="M373.622 266.569L350.694 262.043C343.129 260.55 334.383 262.164 331.143 265.644C327.903 269.124 331.405 273.155 338.96 274.647L361.888 279.174C363.802 279.551 365.791 279.73 367.746 279.73C373.523 279.73 379.019 278.172 381.437 275.573C384.679 272.092 381.179 268.061 373.622 266.569Z" fill="black"/>
<path d="M79.616 236.866L100.846 241.643C102.618 242.042 104.459 242.23 106.27 242.23C111.618 242.23 116.708 240.586 118.947 237.842C121.947 234.168 118.704 229.914 111.709 228.339L90.479 223.561C83.476 221.984 75.3738 223.689 72.3759 227.362C69.3781 231.036 72.6186 235.291 79.616 236.866Z" fill="black"/>
<path d="M85.0555 279.73C86.866 279.73 88.7077 279.55 90.4795 279.174L111.708 274.647C118.706 273.155 121.946 269.124 118.947 265.643C115.949 262.164 107.849 260.551 100.844 262.042L79.615 266.569C72.6177 268.061 69.3773 272.092 72.377 275.572C74.6175 278.173 79.7069 279.73 85.0555 279.73Z" fill="black"/>
</g>
<defs>
<clipPath id="clip0">
<rect width="450" height="450" fill="white"/>
</clipPath>
</defs>
</svg>
