<svg width="80" height="80" viewBox="0 0 451 450" fill="none" xmlns="http://www.w3.org/2000/svg">
<path d="M350.551 302.424C350.532 246.59 284.372 201.429 203.081 201.759C140.427 202.013 87.1527 229.236 66.5088 267.344L8.9751 359.402L71.3036 376.358V425.967C71.3036 436.585 83.8047 445.192 99.2247 445.192H322.635C338.054 445.192 350.556 436.585 350.556 425.967L350.551 302.424Z" fill="#EC407A"/>
<path d="M96.5031 425.967V376.358L34.1746 359.402L91.7083 267.344C111.045 231.647 159.017 205.503 216.508 202.129C212.043 201.866 207.563 201.743 203.081 201.759C140.427 202.013 87.1527 229.236 66.5088 267.344L8.9751 359.402L71.3035 376.358V425.967C71.3035 436.585 83.8047 445.192 99.2247 445.192H124.424C109.004 445.192 96.5031 436.585 96.5031 425.967Z" fill="#D63C77"/>
<path d="M203.993 263.668H203.868C181.713 263.668 163.753 251.314 163.753 236.075V180.148H244.107V236.075C244.107 251.314 226.148 263.668 203.993 263.668Z" fill="#FDD2B5"/>
<path d="M186.064 235.99V180.147H163.753V235.99C163.753 251.276 181.741 263.667 203.931 263.667C207.803 263.667 211.543 263.283 215.086 262.578C198.326 259.247 186.064 248.609 186.064 235.99Z" fill="#F9B995"/>
<path d="M284.351 353.584V445.193H322.633C338.053 445.193 350.554 436.585 350.554 425.968L350.551 353.583H284.351V353.584Z" fill="#FDD2B5"/>
<path d="M284.351 353.583H312.35V445.192H284.351V353.583Z" fill="#F9B995"/>
<path d="M10.7474 379.907C0.629545 364.838 11.5316 347.054 34.2946 341.493L228.824 293.973L229.439 292.633C230.796 289.676 233.087 286.963 236.146 284.686C239.206 282.41 242.959 280.627 247.138 279.465L257.222 276.658C267.028 273.929 278.215 277.062 282.447 283.721L300.813 312.63C305.081 319.347 300.751 327.175 291.065 330.25L281.303 333.349C277.603 334.524 273.597 335.176 269.524 335.267C265.45 335.357 261.392 334.885 257.588 333.877L252.914 332.639L65.6685 393.592C45.0051 400.319 20.3228 394.168 10.7474 379.907Z" fill="#D63C77"/>
<path d="M300.815 312.63L296.935 306.521C295.106 309.791 291.494 312.44 286.867 313.904L277.106 317.004C273.405 318.179 269.4 318.831 265.326 318.922C261.253 319.012 257.194 318.54 253.391 317.532L248.716 316.294L61.471 377.246C41.3178 383.807 17.347 378.113 7.29353 364.595C6.33049 369.821 7.52914 375.128 10.7519 379.906C20.3273 394.168 45.0096 400.319 65.6716 393.592L252.917 332.639L257.591 333.877C261.395 334.885 265.453 335.357 269.527 335.267C273.6 335.176 277.606 334.524 281.306 333.349L291.068 330.249C300.751 327.175 305.083 319.347 300.815 312.63Z" fill="#BF376F"/>
<path d="M228.826 293.973L229.441 292.633C230.796 289.678 233.083 286.966 236.14 284.69C239.196 282.415 242.946 280.632 247.121 279.469L257.228 276.657C267.039 273.926 278.214 277.057 282.448 283.721L300.815 312.63C305.08 319.342 300.745 327.177 291.068 330.25L281.319 333.345C277.616 334.522 273.608 335.175 269.532 335.266C265.456 335.358 261.395 334.886 257.589 333.878L252.914 332.639L221.723 342.792L197.248 301.687L228.826 293.973Z" fill="#FDD2B5"/>
<path d="M300.815 312.63L298.251 308.595C296.234 310.92 293.242 312.771 289.667 313.904L279.906 317.004C276.205 318.179 272.199 318.831 268.125 318.922C264.052 319.013 259.993 318.54 256.189 317.533C254.712 317.141 253.135 316.961 251.553 317.001C249.971 317.042 248.418 317.303 246.987 317.768L213.344 328.719L221.725 342.793L252.916 332.639L257.59 333.878C261.394 334.886 265.452 335.358 269.526 335.267C273.6 335.176 277.606 334.524 281.306 333.349L291.068 330.249C300.752 327.175 305.083 319.347 300.815 312.63Z" fill="#F9B995"/>
<path d="M317.678 152.873C333.764 152.873 346.804 143.847 346.804 132.713C346.804 121.578 333.764 112.552 317.678 112.552C301.592 112.552 288.552 121.578 288.552 132.713C288.552 143.847 301.592 152.873 317.678 152.873Z" fill="#FDD2B5"/>
<path d="M90.1818 152.873C106.268 152.873 119.308 143.847 119.308 132.713C119.308 121.578 106.268 112.552 90.1818 112.552C74.0959 112.552 61.0557 121.578 61.0557 132.713C61.0557 143.847 74.0959 152.873 90.1818 152.873Z" fill="#FDD2B5"/>
<path d="M204.096 215.237H203.762C144.431 215.237 96.334 182.153 96.334 141.342V54.6689H311.526V141.341C311.526 182.153 263.428 215.237 204.096 215.237Z" fill="#FDD2B5"/>
<path d="M161.763 153.727C166.389 153.727 170.139 150.714 170.139 146.998C170.139 143.282 166.389 140.269 161.763 140.269C157.137 140.269 153.387 143.282 153.387 146.998C153.387 150.714 157.137 153.727 161.763 153.727Z" fill="#333333"/>
<path d="M246.097 152.766C250.723 152.766 254.473 149.754 254.473 146.037C254.473 142.321 250.723 139.309 246.097 139.309C241.471 139.309 237.721 142.321 237.721 146.037C237.721 149.754 241.471 152.766 246.097 152.766Z" fill="#333333"/>
<path d="M172.25 83.1527C169.416 83.1527 168.601 80.4941 170.806 79.5816C181.059 75.3277 192.807 73.0796 204.781 73.0796C216.755 73.0796 228.503 75.3277 238.756 79.5816C239.078 79.7092 239.36 79.8796 239.584 80.0829C239.809 80.2862 239.973 80.5183 240.066 80.7656C240.159 81.0129 240.18 81.2705 240.127 81.5233C240.073 81.7761 239.947 82.0191 239.756 82.2381C239.565 82.457 239.312 82.6476 239.012 82.7986C238.713 82.9496 238.373 83.0581 238.011 83.1176C237.65 83.1772 237.275 83.1866 236.909 83.1454C236.542 83.1042 236.192 83.0132 235.877 82.8777C226.492 78.9848 215.741 76.9275 204.782 76.9275C193.823 76.9275 183.072 78.9848 173.688 82.8777C173.254 83.0576 172.757 83.1527 172.25 83.1527ZM223.355 102.378C222.461 102.378 221.308 101.885 220.617 101.468C210.838 96.6296 197.399 96.8335 187.938 101.965C187.65 102.122 187.319 102.237 186.966 102.306C186.613 102.375 186.243 102.395 185.879 102.365C185.514 102.335 185.161 102.257 184.841 102.133C184.521 102.01 184.239 101.844 184.011 101.646C183.784 101.448 183.616 101.221 183.516 100.977C183.416 100.734 183.387 100.48 183.43 100.229C183.473 99.9786 183.588 99.7361 183.767 99.5157C183.946 99.2953 184.187 99.1014 184.475 98.945C195.883 92.7556 212.089 92.5114 223.883 98.346C225.525 98.9412 226.96 100.302 225.625 101.578C225.366 101.826 225.025 102.028 224.63 102.167C224.236 102.306 223.798 102.378 223.355 102.378ZM246.241 194.658C245.568 194.658 244.89 194.49 244.353 194.154C242.768 193.155 243.698 191.619 245.003 190.816C248.051 188.548 249.684 185.548 249.552 182.46C249.419 179.373 247.532 176.444 244.295 174.304C244.028 174.128 243.814 173.919 243.665 173.686C243.516 173.454 243.436 173.203 243.429 172.949C243.422 172.696 243.488 172.443 243.623 172.207C243.759 171.971 243.961 171.755 244.218 171.573C244.475 171.391 244.782 171.245 245.121 171.145C245.46 171.045 245.825 170.992 246.194 170.989C246.563 170.986 246.929 171.034 247.271 171.129C247.613 171.224 247.925 171.365 248.188 171.543C252.475 174.378 254.976 178.257 255.152 182.346C255.327 186.435 253.165 190.409 249.129 193.413C248.445 194.095 247.482 194.51 246.241 194.658ZM274.24 175.427C273.568 175.427 272.89 175.259 272.353 174.923C270.768 173.924 271.697 172.388 273.003 171.585C276.051 169.317 277.684 166.317 277.551 163.23C277.419 160.142 275.531 157.214 272.294 155.073C272.027 154.898 271.813 154.688 271.664 154.455C271.516 154.223 271.436 153.973 271.429 153.719C271.421 153.465 271.487 153.213 271.623 152.976C271.758 152.74 271.96 152.525 272.217 152.342C272.474 152.16 272.781 152.015 273.12 151.914C273.459 151.814 273.824 151.761 274.193 151.758C274.562 151.756 274.928 151.803 275.271 151.898C275.613 151.993 275.924 152.134 276.187 152.312C280.475 155.147 282.975 159.026 283.151 163.115C283.327 167.204 281.164 171.178 277.128 174.183C276.444 174.864 275.481 175.28 274.24 175.427ZM136.97 175.427C135.73 175.279 134.767 174.864 134.082 174.183C125.689 167.874 126.102 158.267 135.021 152.312C135.554 151.957 136.269 151.762 137.011 151.77C137.752 151.777 138.459 151.987 138.975 152.353C139.492 152.719 139.776 153.211 139.764 153.722C139.753 154.232 139.448 154.718 138.916 155.073C135.679 157.214 133.791 160.142 133.658 163.229C133.525 166.317 135.158 169.317 138.206 171.585C139.511 172.387 140.442 173.923 138.857 174.922C138.343 175.248 137.669 175.428 136.97 175.427ZM163.323 194.658C162.083 194.509 161.12 194.095 160.436 193.414C152.041 187.104 152.454 177.498 161.376 171.543C161.908 171.188 162.623 170.993 163.365 171C164.106 171.008 164.813 171.218 165.329 171.584C165.846 171.95 166.13 172.442 166.119 172.952C166.107 173.462 165.802 173.948 165.27 174.304C162.033 176.444 160.145 179.373 160.012 182.46C159.88 185.548 161.512 188.548 164.56 190.816C165.867 191.619 166.797 193.153 165.213 194.153C164.697 194.478 164.022 194.658 163.323 194.658Z" fill="#F9B995"/>
<path d="M143.671 123.932C138.968 123.932 136.752 119.402 140.476 117.468C153.012 110.828 170.522 110.828 183.059 117.466C184.161 118.05 184.881 118.91 185.06 119.859C185.24 120.807 184.864 121.766 184.016 122.524C183.168 123.282 181.917 123.777 180.538 123.9C179.16 124.024 177.766 123.765 176.664 123.182C172.397 120.925 167.166 119.701 161.783 119.699C156.401 119.697 151.168 120.917 146.896 123.169C145.975 123.664 144.84 123.932 143.671 123.932ZM228.004 123.932C223.269 123.932 221.131 119.426 224.81 117.468C237.346 110.828 254.857 110.829 267.393 117.466C268.495 118.05 269.214 118.911 269.393 119.859C269.573 120.808 269.197 121.766 268.349 122.524C267.5 123.281 266.249 123.776 264.871 123.899C263.492 124.022 262.099 123.764 260.997 123.182C256.729 120.925 251.499 119.701 246.116 119.699C240.734 119.697 235.501 120.917 231.23 123.169C230.309 123.664 229.173 123.933 228.004 123.932Z" fill="#999898"/>
<path d="M223.439 190.343H184.421C183.031 190.343 181.698 189.963 180.715 189.287C179.731 188.611 179.179 187.694 179.179 186.738C179.179 185.781 179.731 184.864 180.715 184.188C181.698 183.512 183.031 183.132 184.421 183.132H223.439C224.829 183.132 226.162 183.512 227.145 184.188C228.128 184.864 228.681 185.781 228.681 186.738C228.681 187.694 228.128 188.611 227.145 189.287C226.162 189.963 224.829 190.343 223.439 190.343Z" fill="#F9B995"/>
<path d="M322.732 112.741L320.958 82.0499C321.02 39.4028 270.844 4.80762 208.93 4.80762H200.607C138.692 4.80762 88.5168 39.4028 88.5783 82.0499L86.9163 112.011L87.7089 111.759C125.459 99.7646 156.771 79.9106 177.218 55.0047L204.742 76.8557C234.521 100.497 278.01 113.871 323.521 113.384L322.732 112.741Z" fill="#999898"/>
<path d="M113.776 82.0499C113.718 41.3605 159.4 8.02492 217.367 5.048C214.56 4.89563 211.746 4.81545 208.93 4.80762H200.607C138.692 4.80762 88.5168 39.4028 88.5783 82.0499L86.9163 112.01L87.7089 111.759C96.3897 108.999 104.711 105.807 112.658 102.251L113.776 82.0499Z" fill="#999898"/>
<path d="M309.51 277.233L357.785 216.635L311.798 205.064L439.384 133.002L398.171 194.325L443.094 205.627L309.51 277.233Z" fill="#FFD766"/>
<path d="M350.444 255.291L381.635 221.461C386.106 216.611 383.126 210.144 375.41 207.952L353.46 201.716L417.666 165.32L439.385 133.003L311.8 205.065L357.787 216.635L309.511 277.234L350.444 255.291Z" fill="#FFC533"/>
</svg>
