<svg width="80" height="80" viewBox="0 0 503 527" fill="none" xmlns="http://www.w3.org/2000/svg">
<path d="M381.74 232.853H378.481L366.281 177.517H401.097C413.538 177.517 423.623 185.862 423.623 196.157V198.196C423.621 217.337 404.871 232.853 381.74 232.853Z" fill="#E8AC5E"/>
<path d="M177.823 232.853H181.082L225.675 177.517H158.466C146.025 177.517 135.941 185.862 135.941 196.157V198.196C135.942 217.337 154.693 232.853 177.823 232.853Z" fill="#E8AC5E"/>
<path d="M380.712 207.779L384.694 163.04C389.165 112.8 341.812 69.2199 280.941 68.6949C217.954 68.1515 170.32 111.936 174.878 163.144L178.85 207.779H380.712Z" fill="#D09080"/>
<path d="M279.817 410.845C322.345 410.845 356.888 370.389 357.448 335.305H356.097C343.557 335.305 333.391 326.893 333.391 316.516V297.692C314.597 308.331 293.841 308.845 279.78 308.845C265.719 308.845 244.964 308.332 226.169 297.692V316.516C226.169 326.893 216.004 335.305 203.464 335.305H202.185C202.745 370.39 237.288 410.845 279.817 410.845Z" fill="#E2A770"/>
<path d="M380.713 207.779L358.654 189.525C351.24 183.39 347.075 175.069 347.075 166.392V139.073C347.075 137.797 345.386 137.04 344.075 137.711C331.729 144.025 307.995 148.297 280.743 148.297C252.048 148.297 227.253 143.559 215.547 136.691C214.262 135.938 212.49 136.716 212.49 138.019V166.391C212.49 175.067 208.325 183.388 200.911 189.524C200.911 189.524 178.852 207.778 178.852 207.779L181.953 242.634C185.727 285.038 248.9 314.425 279.783 314.425C310.666 314.425 373.838 285.038 377.612 242.634C377.611 242.634 380.713 207.779 380.713 207.779Z" fill="#E8AC5E"/>
<path d="M358.654 189.524C351.241 183.389 347.075 175.068 347.075 166.391V139.072C347.075 137.796 345.386 137.04 344.075 137.71C335.409 142.142 321.129 145.569 303.961 147.217V148.551C303.961 157.227 308.126 165.548 315.54 171.684C315.54 171.684 318.774 174.36 322.766 177.664C332.183 185.456 337.036 196.257 336.058 207.247L334.496 224.793C330.722 267.198 267.55 296.584 236.667 296.584C232.101 296.584 226.829 295.941 221.148 294.71C241.173 307.185 264.453 314.424 279.781 314.424C310.664 314.424 373.836 285.038 377.61 242.633L380.712 207.778C380.714 207.779 358.654 189.524 358.654 189.524Z" fill="#E8AC5E"/>
<path d="M279.818 429.734C337.137 429.734 383.833 382.631 384.396 335.305H357.449C356.889 370.389 322.346 398.688 279.818 398.688C237.289 398.688 202.746 370.389 202.187 335.305H175.238C175.801 382.631 222.498 429.734 279.818 429.734Z" fill="#F1F1F4"/>
<path d="M474.958 459.242V398.07C474.958 363.406 441.001 335.306 399.115 335.306H384.396C383.833 382.632 337.136 420.988 279.817 420.988C222.499 420.988 175.801 382.632 175.238 335.306H160.448C118.56 335.306 84.604 363.407 84.604 398.07V459.242L144.718 511.999H414.917L474.958 459.242Z" fill="#BCDF95"/>
<path d="M379.233 494.16H144.718V511.999H414.917V482.615C405.539 489.781 393.004 494.16 379.233 494.16Z" fill="#AAD880"/>
<path d="M409.706 335.913C423.387 347.266 431.845 362.93 431.845 380.23V450.623C431.845 453.574 431.489 456.456 430.813 459.243H474.96V398.07C474.959 366.381 446.58 340.177 409.706 335.913Z" fill="#AAD880"/>
<path d="M136.634 485.96C132.169 485.96 128.55 482.965 128.55 479.27V428.243C128.55 424.549 132.169 421.554 136.634 421.554C141.099 421.554 144.718 424.549 144.718 428.243V459.242C144.718 462.938 141.098 485.96 136.634 485.96Z" fill="#AAD880"/>
<path d="M423.001 485.96C427.466 485.96 431.085 482.965 431.085 479.27V428.243C431.085 424.549 427.466 421.554 423.001 421.554C418.536 421.554 414.917 424.549 414.917 428.243V459.242C414.917 462.938 418.536 485.96 423.001 485.96Z" fill="#AAD880"/>
<path d="M279.818 239.543C275.353 239.543 271.734 236.548 271.734 232.853C271.734 229.158 275.353 226.163 279.818 226.163C285.347 226.163 289.845 222.441 289.845 217.865V191.557C289.845 187.862 293.464 184.867 297.929 184.867C302.394 184.867 306.013 187.862 306.013 191.557V217.865C306.013 229.819 294.262 239.543 279.818 239.543ZM258.995 277.66C263.329 270.2 271.73 265.567 280.922 265.567C289.868 265.567 298.164 270.022 302.57 277.194C304.593 280.488 309.46 281.802 313.44 280.126C317.42 278.452 319.006 274.425 316.982 271.132C309.804 259.447 295.986 252.187 280.922 252.187C265.46 252.187 251.476 259.726 244.424 271.863C242.489 275.192 244.183 279.19 248.207 280.791C249.336 281.24 250.529 281.454 251.703 281.454C254.713 281.453 257.603 280.056 258.995 277.66Z" fill="#F1B986"/>
<path d="M313.439 280.126C317.419 278.452 319.005 274.424 316.982 271.131C315.521 268.754 313.785 266.559 311.821 264.572C308.149 267.866 304.177 270.947 300.014 273.794C300.967 274.844 301.824 275.98 302.57 277.193C304.592 280.488 309.459 281.802 313.439 280.126Z" fill="#E2A770"/>
<path d="M411.668 154.988C407.896 154.988 404.522 152.793 403.751 149.615C402.871 145.993 405.708 142.466 410.085 141.739C449.975 135.11 455.709 128.134 456.295 127.218C455.192 125.007 444.038 117.976 405.678 112.023C371.889 106.779 327.52 103.892 280.742 103.892C233.965 103.892 189.595 106.779 155.807 112.023C117.448 117.976 106.292 125.007 105.19 127.218C105.766 128.119 111.331 134.897 149.668 141.447C154.04 142.194 156.854 145.733 155.951 149.351C155.047 152.97 150.772 155.303 146.399 154.55C107.225 147.858 88.98 139.178 88.98 127.234C88.98 114.996 108.145 106.163 149.296 99.4353C184.489 93.6812 231.171 90.5122 280.743 90.5122C330.316 90.5122 376.999 93.6812 412.191 99.4353C453.34 106.164 472.507 114.997 472.507 127.234C472.507 139.363 453.683 148.141 413.269 154.857C412.732 154.945 412.196 154.988 411.668 154.988Z" fill="#F1F1F4"/>
<path d="M498.864 88.6814L492.819 85.7938L498.864 82.9062C502.731 81.0588 504.056 76.9674 501.823 73.7676C499.591 70.567 494.647 69.4732 490.78 71.3188L484.735 74.2064V68.6897C484.735 64.9949 481.116 62 476.651 62C472.187 62 468.567 64.9949 468.567 68.6897V74.2055L462.795 71.4472C458.927 69.5998 453.984 70.6954 451.752 73.896C449.519 77.0958 450.844 81.1872 454.711 83.0346L460.485 85.7929L454.711 88.5513C450.844 90.3987 449.519 94.4901 451.752 97.6898C453.249 99.8362 455.967 101.036 458.76 101.036C460.132 101.036 461.522 100.746 462.795 100.139L468.567 97.3803V103.156C468.567 106.85 472.187 109.845 476.651 109.845C481.116 109.845 484.735 106.85 484.735 103.156V97.3803L490.78 100.268C492.053 100.876 493.443 101.165 494.815 101.165C497.608 101.165 500.325 99.9655 501.823 97.8191C504.056 94.6211 502.731 90.5288 498.864 88.6814Z" fill="#FFD064"/>
<path d="M104.064 171.233C101.831 168.033 96.8874 166.938 93.0208 168.785L86.9759 171.672V166.156C86.9759 162.461 83.3568 159.466 78.892 159.466C74.4271 159.466 70.8081 162.461 70.8081 166.156V171.672L65.0352 168.914C61.1686 167.066 56.2245 168.162 53.9921 171.363C51.7597 174.562 53.0847 178.654 56.9513 180.501L62.7242 183.26L56.9513 186.018C53.0847 187.865 51.7597 191.957 53.9921 195.157C55.4893 197.303 58.2073 198.502 61.0007 198.502C62.3725 198.502 63.7623 198.213 65.0352 197.605L70.8081 194.847V200.622C70.8081 204.317 74.4271 207.312 78.892 207.312C83.3568 207.312 86.9759 204.317 86.9759 200.622V194.847L93.0208 197.735C94.2937 198.342 95.6835 198.632 97.0553 198.632C99.8487 198.632 102.567 197.432 104.064 195.286C106.296 192.086 104.971 187.995 101.105 186.147L95.0598 183.26L101.105 180.372C104.972 178.525 106.296 174.433 104.064 171.233Z" fill="#FFD064"/>
<path d="M84.604 459.242V506.905C84.604 509.718 87.3603 511.999 90.7604 511.999H144.718V459.242H84.604Z" fill="#F1D0A5"/>
<path d="M84.604 494.16V506.906C84.604 509.719 87.3603 512 90.7604 512H144.718V494.161H84.604V494.16Z" fill="#F1B986"/>
<path d="M414.917 459.242V511.999H468.803C472.203 511.999 474.96 509.718 474.96 506.905V459.242H414.917Z" fill="#F1D0A5"/>
<path d="M430.813 459.242C428.591 468.398 422.897 476.516 414.917 482.615V511.999H468.803C472.203 511.999 474.96 509.718 474.96 506.905V459.242H430.813Z" fill="#F1B986"/>
</svg>
